<?xml version="1.0" encoding="utf-8"?>
<!-- Generator: Adobe Illustrator 23.0.1, SVG Export Plug-In . SVG Version: 6.00 Build 0)  -->
<svg version="1.1" id="Layer_1" xmlns="http://www.w3.org/2000/svg" xmlns:xlink="http://www.w3.org/1999/xlink" x="0px" y="0px"
	 viewBox="0 0 512 512" style="enable-background:new 0 0 512 512;" xml:space="preserve">
<style type="text/css">
	.st0{fill:#669933;}
	.st1{fill:#DEDEE0;}
	.st2{fill:#CC3333;}
</style>
<path class="st0" d="M512,257c0,59-20,113.4-53.6,156.7C411.6,474.1,338.3,513,256,513s-155.6-38.9-202.4-99.3C20,370.4,0,316,0,257
	C0,115.6,114.6,1,256,1S512,115.6,512,257z"/>
<path d="M356.1,129.6c-27-13.5-62.6-20.9-100.1-20.9s-73.1,7.4-100.1,20.9c-30.5,15.2-47.3,36.8-47.3,60.6v131.6
	c0,23.9,16.8,45.4,47.3,60.6c27,13.5,62.6,20.9,100.1,20.9s73.1-7.4,100.1-20.9c30.5-15.2,47.3-36.8,47.3-60.6V190.2
	C403.4,166.3,386.6,144.8,356.1,129.6z"/>
<path class="st1" d="M364.8,174.4c-15.8-18.2-57.3-34.2-108.8-34.2s-93,16-108.8,34.2c-4.5,5.2-6.9,10.6-6.9,15.8s2.4,10.6,6.9,15.8
	c15.8,18.2,57.3,34.2,108.8,34.2s93-16,108.8-34.2c4.5-5.2,6.9-10.6,6.9-15.8C371.8,185,369.4,179.6,364.8,174.4z"/>
<path class="st2" d="M291.3,174.4c-8.7-4.8-21.3-7.9-35.3-7.9c-14,0-26.6,3.1-35.3,7.9c-7.5,4.2-12.1,9.7-12.1,15.8
	s4.6,11.6,12.1,15.8c8.7,4.8,21.3,7.9,35.3,7.9s26.6-3.1,35.3-7.9c7.5-4.2,12.1-9.7,12.1-15.8C303.4,184.1,298.8,178.6,291.3,174.4z
	"/>
</svg>
