<svg id="bacon" xmlns="http://www.w3.org/2000/svg" viewBox="0 0 1820.84 686.57"><defs><style>.cls-1{opacity:0.05;}.cls-2{fill:#f2f2f2;}.cls-3{fill:#e5e5e5;}.cls-4{fill:#bf2626;}.cls-5{fill:#82c2c5;}.cls-6{fill:#88c5c8;}.cls-7{fill:#86c4c7;}.cls-8{fill:#fafafa;}.cls-9{fill:#c0e0e2;}.cls-10{fill:#fc3;}.cls-11{fill:#f33;}</style></defs><title>prod-2</title><ellipse class="cls-1" cx="878.52" cy="632.64" rx="853.88" ry="19.21"/><path class="cls-2" d="M1285.66,502.39c53,9.65,322.07-38.57,377-51.1s86.79-30.86,111.22-46.45c-3.27-1.23-10,1.12-10,1.12s-8.73-13.82-15.75-20.67c-2.1-1.25-2.86-.22-6.64-1.5-1.13-.39-2.36-.78-3.64-1.18-3.17,1.46-7,3.13-11.57,5-28,11.57-180.33,77.15-404,77.15H17.76c-7.92,25.34-1.11,139.77,2.43,157.5,3.86,19.28,55.29,10.28,55.29,10.28l1141.71,10.29,3-.22c2.75-29.26,7.55-79,9.56-91.07C1232.62,534.21,1224.91,541,1285.66,502.39Z"/><path class="cls-3" d="M1773.91,404.84c-24.43,15.59-56.25,33.91-111.22,46.45s-324,60.75-377,51.1c-60.75,38.57-53,31.82-55.93,49.18-2,12.06-6.81,61.81-9.56,91.07,155.92-11.5,416-23.47,589.74-109.07C1803.89,495.57,1785.48,426.7,1773.91,404.84Z"/><path class="cls-4" d="M8.62,439.71h7.32c-5.84-34,14.22-156.21,14.22-156.21H20.65c0,.42,0,.64,0,.64S-.38,378,8.62,439.71Z"/><path class="cls-5" d="M25.86,221a60.42,60.42,0,0,0,3.33,6.57C21.56,262,20.73,280,20.65,283.5h9.51S10.1,405.75,15.94,439.71h.4s-.09.4-.19,1.09c.06.31.12.62.19.91H16c-.42,3.7-.64,11.86,4.16,18.58-.93.72-1.74,2.27-2.43,4.5H292.55C285.3,298,95.42,244.91,25.86,221Z"/><path class="cls-3" d="M979.34,329.46c17-16.82,11.89-28.6-4.5-42.1C962,276.43,818.62,180,805.76,150.43a13.46,13.46,0,0,1-8.83,2.48C774.37,177,758,203,756.76,210.57q-7.29.18-14.72.56c19.19,6,39.22,12.49,53.44,17.73C820.55,243.64,952.34,314,979.34,329.46Z"/><path class="cls-2" d="M1042.34,292.5c-.65-32.79-107.36-93.86-158.15-131.79s-31.5-86.14-25.71-113.14c0,0-30.86-30.86-56.57-11.57,9,18-18,92.57-3.86,115.71l-1.12,1.2a13.46,13.46,0,0,0,8.83-2.48C818.62,180,962,276.43,974.84,287.36c12.1,12.1,22,20.41,3.21,39.21-29.57,30.22-153.64,27-243.64,61.72-51.34,19.55-106.76,58.81-130.36,76.5h102.1c61.74-43.58,151.78-43.31,243-66.86C1046.19,372.86,1043,325.29,1042.34,292.5Z"/><path class="cls-6" d="M627.05,312.43c-190.93,44.36-283.5,30.46-435.86-28.93a391.22,391.22,0,0,0-41.47-13.35c69.72,36.54,138.52,95.5,142.83,194.64h311.5c23.6-17.69,79-57,130.36-76.5,27.53-10.62,58.24-17.69,88.47-23.25C777.69,341.71,693,304.35,627.05,312.43Z"/><path class="cls-7" d="M980.91,321.37c-1.71,1.54-3.71,3.24-6.07,5.2-27-15.43-154.29-82.93-179.36-97.71-14.22-5.24-34.25-11.74-53.44-17.73-162.26,8.34-367.35,87.37-674.28-74.2-41.48,7.21-56,51.54-41.9,84.07,28.23,9.7,76.26,24.2,123.86,49.15a391.22,391.22,0,0,1,41.47,13.35c152.36,59.39,244.93,73.29,435.86,28.93C693,304.35,777.69,341.71,822.88,365c68.59-12.63,134.64-17.5,155.17-38.47A6.85,6.85,0,0,0,980.91,321.37Z"/><path class="cls-6" d="M1465.2,308.32c-.4,1.46-.88,2.94-1.43,4.43-4.77,12.77-13.45,21.31-19.38,19.1s-6.88-14.36-2.11-27.13c.59-1.56,1.23-3.07,1.92-4.49q-24.54-9.69-50.86-21.23c-8.16-2.87-16.74-6-25.69-9.33,3.74,10,7.69,20.17,7.69,27.33-20.15,16.71-93.43,31.71-105.11,44.36-9.09,9.84,4,58.07-15.43,41.25-22.18-27.75,5.79-81.75,0-131.63-26,7-72.32-8-90.64-18.59s-65.55,1.93-66.54-14.1c3.86-21.83-1.93-38-46.28-29.29s-36.65-38.57-26.08-55c-6-3-9.68-9.17-11.94-15.15-89-40.29-154.84-71.32-154.84-71.32-5.79,27-25.07,75.22,25.71,113.14,39,29.11,110.87,71.84,142.51,105a45.62,45.62,0,0,1,7.2-13c8.35-10.76,19.18-16.34,24.18-12.46s2.29,15.76-6.06,26.52c-4.56,5.88-9.86,10.2-14.55,12.29,3.06,4.86,4.79,9.38,4.87,13.46.64,32.79,3.85,80.36-93.22,105.43-91.19,23.55-181.23,23.28-243,66.86H1322.3c223.71,0,376.07-65.58,404-77.15,4.6-1.9,8.4-3.57,11.57-5C1693.7,368.89,1601.93,359.71,1465.2,308.32ZM1036.11,223.2A10.85,10.85,0,1,1,1047,212.35,10.85,10.85,0,0,1,1036.11,223.2Z"/><circle class="cls-8" cx="1036.11" cy="212.35" r="10.85"/><path class="cls-8" d="M1052,266.75c8.35-10.76,11.07-22.64,6.06-26.52s-15.83,1.7-24.18,12.46a45.62,45.62,0,0,0-7.2,13A87,87,0,0,1,1037.47,279C1042.16,277,1047.46,272.63,1052,266.75Z"/><path class="cls-9" d="M1444.39,331.85c5.93,2.21,14.61-6.33,19.38-19.1.55-1.49,1-3,1.43-4.43q-10.32-3.88-21-8.09c-.69,1.42-1.33,2.93-1.92,4.49C1437.51,317.49,1438.45,329.63,1444.39,331.85Z"/><path class="cls-8" d="M1337.69,283.18c14.93-8-.28-14.79-4.14-20.89-1.64-2.6-.26-4.09,1.87-5l-5.44-2.13a54.23,54.23,0,0,0,.28,6.75c1.53,16.4-5.07,18.65-19.53,20.58S1276,289,1268,289.93s-12.22,10.3-12.22,10.3l-2.84-2.39c-1,6.65-2,13.21-3.07,19.6C1265,298.17,1314.92,295.37,1337.69,283.18Z"/><path class="cls-8" d="M1367.65,269.67q-8.36-3.12-17.13-6.48c-2.06,2.83-2.81,7.74,6.49,14.52,7.08,12.86-10,19.29-30.53,26s-53.36,16.39-66.54,24.43-12.21,17-12.21,17l-1-5.49c-1.66,17.11-.67,32,8,42.89,19.39,16.82,6.34-31.41,15.43-41.25,11.68-12.65,85-27.65,105.11-44.36C1375.34,289.84,1371.39,279.71,1367.65,269.67Z"/><path class="cls-8" d="M1313.94,269.68c11.9-4.82,7.4-8.36,6.11-13.5-7.24,2-24.75,4.5-33.11,2.41s-14.78-2.41-20.57,0a16.33,16.33,0,0,0-10.77,7c0,6.05-.36,12.11-.95,18.14a26.63,26.63,0,0,1,17.83-6.7C1291.44,276.75,1302.05,274.5,1313.94,269.68Z"/><path class="cls-8" d="M1318.76,252.52a41.5,41.5,0,0,0,4.26-.05c-22.94-9.09-47.35-19.07-72.5-29.6-45-3.86-101.26-28.93-125.9-43.51-15.19-9-33.5-20.5-42.26-29.43-24-10.69-47.21-21.14-69-31,2.26,6,6,12.16,11.94,15.15-10.57,16.39-18.28,63.64,26.08,55s50.14,7.46,46.28,29.29c1,16,48.22,3.5,66.54,14.1S1228.76,258,1254.8,251c.48,4.15.72,8.32.79,12.5a42,42,0,0,1,6.6-10.93C1275.05,249.89,1304.62,252,1318.76,252.52Z"/><path class="cls-10" d="M1124.62,179.36c24.64,14.58,81,39.65,125.9,43.51-55-23-113.53-48.59-168.16-72.94C1091.12,158.86,1109.43,170.37,1124.62,179.36Z"/><path class="cls-11" d="M1268,289.93c8-1,28.28-5.47,42.75-7.39s21.06-4.18,19.53-20.58a54.23,54.23,0,0,1-.28-6.75l-7-2.74a41.5,41.5,0,0,1-4.26.05c-14.14-.52-43.71-2.63-56.57,0a42,42,0,0,0-6.6,10.93c0,.72,0,1.43,0,2.15a16.33,16.33,0,0,1,10.77-7c5.79-2.41,12.22-2.09,20.57,0s25.87-.39,33.11-2.41c1.29,5.14,5.79,8.68-6.11,13.5s-22.5,7.07-41.46,7.39a26.63,26.63,0,0,0-17.83,6.7c-.46,4.72-1.06,9.42-1.73,14.07l2.84,2.39S1259.94,290.89,1268,289.93Z"/><path class="cls-11" d="M1259.94,328.18c13.18-8,46-17.68,66.54-24.43s37.61-13.18,30.53-26c-9.3-6.78-8.55-11.69-6.49-14.52q-7.43-2.85-15.1-5.85c-2.13.86-3.51,2.35-1.87,5,3.86,6.1,19.07,12.89,4.14,20.89-22.77,12.19-72.68,15-87.84,34.26-1.24,7.72-2.38,15.19-3.07,22.28l1,5.49S1246.76,336.21,1259.94,328.18Z"/></svg>