<svg id="bananas" xmlns="http://www.w3.org/2000/svg" viewBox="0 0 1820.84 686.57"><defs><style>.cls-1{opacity:0.05;}.cls-2,.cls-6{fill:#ffe390;}.cls-3{fill:#f2f2f2;}.cls-4{fill:#dbdbdb;}.cls-5{fill:#fff;stroke-width:0.5px;}.cls-5,.cls-6,.cls-9{stroke:#000;stroke-miterlimit:10;}.cls-6,.cls-9{stroke-width:0.25px;}.cls-7{fill:#e5e5e5;}.cls-8{fill:#c00;}.cls-9{fill:none;}</style></defs><title>prod-6</title><ellipse class="cls-1" cx="878.52" cy="632.64" rx="853.88" ry="19.21"/><path class="cls-2" d="M25.86,221a60.42,60.42,0,0,0,3.33,6.57C21.56,262,20.73,280,20.65,283.5h9.51S10.1,405.75,15.94,439.71h.4s-.09.4-.19,1.09c.06.31.12.62.19.91H16c-.42,3.7-.64,11.86,4.16,18.58-.93.72-1.74,2.27-2.43,4.5H292.55C285.3,298,95.42,244.91,25.86,221Z"/><path class="cls-3" d="M1393.34,279C1221.05,218.29,858.48,47.57,858.48,47.57c-5.79,27-25.07,75.22,25.71,113.14s157.5,99,158.15,131.79,3.85,80.36-93.22,105.43c-91.19,23.55-181.23,23.28-243,66.86H1322.3c223.71,0,376.07-65.58,404-77.15,4.6-1.9,8.4-3.57,11.57-5C1686.36,366.62,1570.12,356.79,1393.34,279Z"/><path class="cls-4" d="M979.34,329.46c17-16.82,11.89-28.6-4.5-42.1C962,276.43,818.62,180,805.76,150.43a13.46,13.46,0,0,1-8.83,2.48C774.37,177,758,203,756.76,210.57q-7.29.18-14.72.56c19.19,6,39.22,12.49,53.44,17.73C820.55,243.64,952.34,314,979.34,329.46Z"/><path class="cls-2" d="M627.05,312.43c-190.93,44.36-283.5,30.46-435.86-28.93a391.22,391.22,0,0,0-41.47-13.35c69.72,36.54,138.52,95.5,142.83,194.64h311.5c23.6-17.69,79-57,130.36-76.5,27.53-10.62,58.24-17.69,88.47-23.25C777.69,341.71,693,304.35,627.05,312.43Z"/><path class="cls-2" d="M980.91,321.37c-1.71,1.54-3.71,3.24-6.07,5.2-27-15.43-154.29-82.93-179.36-97.71-14.22-5.24-34.25-11.74-53.44-17.73-162.26,8.34-367.35,87.37-674.28-74.2-41.48,7.21-56,51.54-41.9,84.07,28.23,9.7,76.26,24.2,123.86,49.15a391.22,391.22,0,0,1,41.47,13.35c152.36,59.39,244.93,73.29,435.86,28.93C693,304.35,777.69,341.71,822.88,365c68.59-12.63,134.64-17.5,155.17-38.47A6.85,6.85,0,0,0,980.91,321.37Z"/><path class="cls-5" d="M1055.6,138s1.59,35-74.69,32.4c-9.29,3.21-10.57,18,19.64,28.93s100.06,2.91,93.42-44.19Z"/><path class="cls-5" d="M1091.62,245.14c-3.74-3-3.43,8.11-9.43,3.41s-15,.8-20.57,3.41-9,12.9-6,23.61,2.14,20.57,13.72,26.57,13.28,1.86,7.28-11.71-5.57-26.43.86-29c0,0,9.43-10.29,14.14-8.57C1091.62,252.86,1098.05,250.29,1091.62,245.14Z"/><path class="cls-5" d="M1181.19,308.14s20.57-15.43,33.43-15.43,33.43,2.15,43.72,7.72,14.14,8.57,8.14,11.57-21,6.86-27,6-24,7.07-28.29,11.46-19.28,22.25-19.28,22.25h-13.24l-11.62-35.85Z"/><path class="cls-5" d="M1248.05,464.79c3.43-10.08,12.43-33.65,16.29-41.79s3-12-3.86-15.86-30,4.72-40.31,18.86-15,38.79-15,38.79Z"/><path class="cls-5" d="M1626.72,357.38s-11,26.42-32,25.23-42.85,0-42.85,0-10.29,3.92,0,9.49,23.14,12.43,60.85,10.72,55.29-12.64,57.86-22.61,2-12.7,2-12.7Z"/><path class="cls-6" d="M1392.91,404.84c1.07,5.21,4.71,10.87,7.28,11.3s8.15-5.65,8.15-5.65,10.71-3.35,15.85-3.35,8.15-1.34,16.72-1.95,31.28-9.19,30.85-35.33-41.57-64.29-41.57-64.29-18-12.86-37.28-15,6.85,20.57,12.85,27,31.72,29.14,27.43,45.86-13.71,20.14-16.71,25.71-5.57,10.72-11.14,12.86S1392.3,401.86,1392.91,404.84Z"/><path class="cls-6" d="M1313.19,341.14c3.62-2.3,21,1.29,25.29,9s7.28,9,8.57,13.72,6,6.43,8.57,2.57-1.28-15.86-6.86-20.14-12.85-14.15-32.57-10.72c0,0-.43,3.86-6.85,3.43s-1.29,5.14-1.29,5.14S1308.48,344.14,1313.19,341.14Z"/><path class="cls-6" d="M854.35,64.79s29.34,17.5,36,37.42,24.31,39.28,12.28,71.71S866,157.5,866,157.5s6-32.79-8.77-52.71-23.14-25.72-23.14-25.72V56.57S849.74,61.8,854.35,64.79Z"/><path class="cls-6" d="M1185.12,195.05s7.64,20.95-14.86,17.74c0,0-4.92,1.07-6.64-1.5s-3.43.24-2.14,1.83,9,3.31,12.22,7.59,16.49.86,18.21,0S1204.05,203.25,1185.12,195.05Z"/><path class="cls-6" d="M932.19,197.57s2.57-4.61,12.86-2.52,27.59,7.81,35.86,21.24,7.29,16.76,7.29,16.76Z"/><path class="cls-6" d="M1181.19,308.14s1.29-5.57-10.28-12-32.57,0-35.57,6-15,43.72-47.58,47.57c12,10.29,33.43,6.86,40.72,0s21.86-17.57,21.86-17.57-20.58,27.65-24,32.9-12,19.92,6.42,39.8l-3,25.45h15.86l2.57-25.45c7.29-3.7,43.72-53.13,43.72-53.13s8.38-.28,4.4,7.86-31,19.29-25.83,31.29c5.14-6.43,11.14-9.43,21.43-10.29s33.95-21.56,14.4-45.71c-7.12,3.28-7.64,13.32-18.69,11.85,1.29-11.85-.86-19.43-4.71-24.5S1176.9,311.14,1181.19,308.14Z"/><path class="cls-6" d="M988.23,440.14h-7.32s-1.57,2.15-9.72,3-14.57,7.29-15.43,12.86a29.8,29.8,0,0,1-2.57,8.79H939.05s.86-18.65,9-24.65,23.3-11.14,32.86-4.71c0,0,2.08,1.28,7.32,1.28Z"/><path class="cls-6" d="M1507.76,402.86c11.14,4.66,41.58,8.57,43.72,21s0,15,0,15l19-1.71s7.54-14.15-8.75-23.15-36.42-16.71-49.71-16.29S1503.61,401.12,1507.76,402.86Z"/><path class="cls-3" d="M1285.66,502.39c53,9.65,322.07-38.57,377-51.1s86.79-30.86,111.22-46.45c-3.27-1.23-10,1.12-10,1.12s-8.73-13.82-15.75-20.67c-2.1-1.25-2.86-.22-6.64-1.5-1.13-.39-2.36-.78-3.64-1.18-3.17,1.46-7,3.13-11.57,5-28,11.57-180.33,77.15-404,77.15H17.76c-7.92,25.34-1.11,139.77,2.43,157.5,3.86,19.28,55.29,10.28,55.29,10.28l1141.71,10.29,3-.22c2.75-29.26,7.55-79,9.56-91.07C1232.62,534.21,1224.91,541,1285.66,502.39Z"/><path class="cls-7" d="M1773.91,404.84c-24.43,15.59-56.25,33.91-111.22,46.45s-324,60.75-377,51.1c-60.75,38.57-53,31.82-55.93,49.18-2,12.06-6.81,61.81-9.56,91.07,155.92-11.5,416-23.47,589.74-109.07C1803.89,495.57,1785.48,426.7,1773.91,404.84Z"/><path class="cls-8" d="M8.62,439.71h7.32c-5.84-34,14.22-156.21,14.22-156.21H20.65c0,.42,0,.64,0,.64S-.38,378,8.62,439.71Z"/><path class="cls-7" d="M1042.34,292.5c-.65-32.79-107.36-93.86-158.15-131.79s-31.5-86.14-25.71-113.14c0,0-30.86-30.86-56.57-11.57,9,18-18,92.57-3.86,115.71l-1.12,1.2a13.46,13.46,0,0,0,8.83-2.48C818.62,180,962,276.43,974.84,287.36c12.1,12.1,22,20.41,3.21,39.21-29.57,30.22-153.64,27-243.64,61.72-51.34,19.55-106.76,58.81-130.36,76.5h102.1c61.74-43.58,151.78-43.31,243-66.86C1046.19,372.86,1043,325.29,1042.34,292.5Z"/><path class="cls-9" d="M866,79.07s43.38,43.29,25.66,91.72"/><path class="cls-9" d="M842.41,72s46.93,32.14,32.78,86.79"/><path class="cls-9" d="M1061.62,142.71s12.22,42.43-49.5,39.22"/><path class="cls-9" d="M1082.19,153s20.57,43.16-70.07,41.51"/><path class="cls-9" d="M947.84,199.29s19.87,0,33.07,26.35"/><path class="cls-9" d="M1066.76,256.18s-16.71,7.4,0,37.29"/><path class="cls-9" d="M1074.49,259.07s-14.8,11.29-3.23,31.36"/><path class="cls-9" d="M1188.91,203.62s7.81,5.24-10.24,12.67"/><path class="cls-9" d="M1193.41,203.62s2.15,12.24-8.78,14.67"/><path class="cls-9" d="M963.64,438.86s-18.38,2.14-20.3,25.93"/><path class="cls-9" d="M969.05,438.86s-22.12,6.64-15.56,31.07"/><path class="cls-9" d="M1176.05,316.29s-14.52-13.5-25.26,0"/><path class="cls-9" d="M1176.05,307.93s-6.9-8.36-15-5.79"/><path class="cls-9" d="M1141.34,301.65s-9,10.41-12.86,20.56"/><path class="cls-9" d="M1141.34,322.21s-18,21.69-31.5,23.65"/><path class="cls-9" d="M1187.93,342.72s-6.09-37.79-37.59-10.58"/><path class="cls-9" d="M1167.05,329.46s-36.64,41.65-32.14,68.24"/><path class="cls-9" d="M1184.63,349.07s-29.15,48.4-36.87,48.63"/><path class="cls-9" d="M1143.91,403.13s-3.22,12.8-2.57,18.58"/><path class="cls-9" d="M1205.19,342.72s.43-3.06,4.29,6.35"/><path class="cls-9" d="M1190.59,349.07s37.45,3.91,3,24.31"/><path class="cls-9" d="M1245.48,301.65s-14.53-8.1-40.29,3.14"/><path class="cls-9" d="M1199.37,310.29s.25.21,5.82,6"/><path class="cls-9" d="M1193.58,311.93s.19-2.72,5.79,4.36"/><path class="cls-9" d="M1231.34,427.5s-18.34,20.57-17.53,42.43"/><path class="cls-9" d="M1240.34,435.5s-6.93,19.64-4.43,34.43"/><path class="cls-9" d="M1328.69,335.18s21.86,11.11,22.22,22.2"/><path class="cls-9" d="M1328.69,338.79s15.9,7.18,16.43,14.51"/><path class="cls-9" d="M1426.12,313.29s54.64,39.22,28.29,69.32"/><path class="cls-9" d="M1428.85,332.51s23.63,24,12.06,40.87-15.43,11.05-19.93,20.69"/><path class="cls-9" d="M1424.19,407.14s-6.43-7.1-6.43-9.44V400"/><path class="cls-9" d="M1403.62,407.14s-3.6-4-6.43-.92l2.83-3.05"/><line class="cls-9" x1="1403.62" y1="304.82" x2="1424.19" y2="322.29"/><path class="cls-9" d="M1529,403.17s4,.83,9.29,2.54c10.76,3.48,26.93,10.59,26.07,21.79"/><path class="cls-9" d="M1559.19,427.5s-7.6-18.2-26.35-20.36"/><path class="cls-9" d="M1636.34,357.38s-9,27.05-21.86,30.26"/><line class="cls-9" x1="1593.91" y1="391.5" x2="1568.84" y2="387.64"/><path class="cls-9" d="M1659.48,365.14s2.58,35-49.48,32.56l-25.74-.66"/></svg>