<?xml version="1.0" encoding="utf-8"?>
<!-- Generator: Adobe Illustrator 25.0.0, SVG Export Plug-In . SVG Version: 6.00 Build 0)  -->
<svg version="1.1" id="Layer_1" xmlns="http://www.w3.org/2000/svg" xmlns:xlink="http://www.w3.org/1999/xlink" x="0px" y="0px"
	 viewBox="0 0 938 492" style="enable-background:new 0 0 938 492;" xml:space="preserve">
<style type="text/css">
	.st0{fill:#FF3333;}
	.st1{opacity:0.9;fill:#FF3333;}
	.st2{fill:#FFB38F;}
	.st3{fill:#DDDDDD;}
	.st4{opacity:5.000000e-02;enable-background:new    ;}
	.st5{fill:#F2F2F2;}
	.st6{fill:#E5E5E5;}
	.st7{fill:#BF2626;}
</style>
<rect x="469" class="st0" width="469" height="492"/>
<rect class="st1" width="469" height="492"/>
<g>
	<rect x="163.7" y="-79.6" class="st2" width="139.4" height="500.6"/>
	<rect id="sock" x="163.7" y="112.2" class="st3" width="139.4" height="297.2"/>
	<rect x="163.7" y="112.2" width="139.4" height="25.4"/>
	<rect x="163.7" y="163.7" width="139.4" height="9.5"/>
	<rect x="163.7" y="207.2" width="139.4" height="9.5"/>
	<rect x="163.7" y="250.8" width="139.4" height="9.5"/>
	<rect x="163.7" y="294.4" width="139.4" height="9.5"/>
	<ellipse class="st4" cx="350.6" cy="459.2" rx="220.7" ry="5"/>
	<path class="st5" d="M455.9,425.5c13.7,2.5,83.3-10,97.5-13.2s22.4-8,28.8-12c-0.8-0.3-2.6,0.3-2.6,0.3s-2.3-3.6-4.1-5.3
		c-0.5-0.3-0.7-0.1-1.7-0.4c-0.3-0.1-0.6-0.2-0.9-0.3c-0.8,0.4-1.8,0.8-3,1.3c-7.2,3-46.6,19.9-104.4,19.9H128.1
		c-2,6.6-0.3,36.1,0.6,40.7c1,5,14.3,2.7,14.3,2.7l295.1,2.7l0.8-0.1c0.7-7.6,2-20.4,2.5-23.5C442.1,433.7,440.1,435.5,455.9,425.5z
		"/>
	<path class="st6" d="M582.1,400.3c-6.3,4-14.5,8.8-28.8,12c-14.2,3.2-83.8,15.7-97.5,13.2c-15.7,10-13.7,8.2-14.5,12.7
		c-0.5,3.1-1.8,16-2.5,23.5c40.3-3,107.5-6.1,152.4-28.2C589.8,423.7,585.1,405.9,582.1,400.3z"/>
	<path class="st7" d="M125.7,409.3h1.9c-1.5-8.8,3.7-40.4,3.7-40.4h-2.5c0,0.1,0,0.2,0,0.2S123.4,393.3,125.7,409.3z"/>
	<path class="st6" d="M376.7,380.8c4.4-4.3,3.1-7.4-1.2-10.9c-3.3-2.8-40.4-27.8-43.7-35.4c-0.7,0.5-1.5,0.7-2.3,0.6
		c-5.8,6.2-10.1,12.9-10.4,14.9c-1.3,0-2.5,0.1-3.8,0.1c5,1.6,10.1,3.2,13.8,4.6C335.6,358.6,369.7,376.8,376.7,380.8z"/>
	<path class="st5" d="M393,371.2c-0.2-8.5-27.8-24.3-40.9-34.1c-13.1-9.8-8.1-22.3-6.6-29.2c0,0-8-8-14.6-3c2.3,4.7-4.7,23.9-1,29.9
		l-0.3,0.3c0.8,0.1,1.6-0.2,2.3-0.6c3.3,7.6,40.4,32.6,43.7,35.4c3.1,3.1,5.7,5.3,0.8,10.1c-7.6,7.8-39.7,7-63,16
		c-13.3,5.1-27.6,15.2-33.7,19.8H306c16-11.3,39.2-11.2,62.8-17.3C393.9,392,393.1,379.7,393,371.2z"/>
	<path d="M336.3,389.8c17.7-3.3,34.8-4.5,40.1-10c0.4-0.3,0.7-0.8,0.7-1.3c-0.4,0.4-1,0.8-1.6,1.3c-7-4-39.9-21.5-46.4-25.3
		c-3.7-1.4-8.9-3-13.8-4.6c-42,2.2-95,22.6-174.4-19.2c-10.7,1.9-14.5,13.3-10.8,21.7h0c0.3,0.6,0.5,1.2,0.9,1.7
		c-2,8.9-2.2,13.6-2.2,14.5h2.6c0,0-5.2,31.7-3.7,40.6h0.1c0,0,0,0.1,0,0.3c0,0.1,0,0.3,0,0.3h-0.1c-0.1,0.9-0.2,2.9,1,4.6
		c-0.2,0.2-0.4,0.6-0.6,1.1h71h80.6c6.1-4.6,20.4-14.7,33.7-19.8C320.5,393.1,328.5,391.2,336.3,389.8 M131.7,353.3
		c0.8,0.3,1.7,0.6,2.6,0.9C133.3,353.8,132.5,353.5,131.7,353.3z M161.6,365.1c0.2,0.1,0.4,0.2,0.6,0.3c0.2,0.1,0.4,0.2,0.6,0.3
		C162.4,365.6,162,365.3,161.6,365.1z M177.7,375.5c1.1,0.9,2.2,1.9,3.3,2.9C179.9,377.3,178.8,376.4,177.7,375.5z M446.8,352.8
		c-20.3-8.5-41.7-18-61.6-27c0.1,0.4,0.3,0.8,0.5,1.2c-0.2-0.4-0.4-0.8-0.5-1.2c-23.1-10.5-40.2-18.5-40.2-18.5
		c-1.5,7-6.5,19.5,6.7,29.4c10.1,7.6,28.8,18.7,37,27.3c0,0,0,0,0,0c1,1.1,2,2.2,2.8,3.5c0.1,0,0.2-0.1,0.3-0.2
		c-0.1,0.1-0.2,0.1-0.3,0.2c0.8,1.3,1.2,2.4,1.3,3.5c0.2,8.5,1,20.9-24.2,27.4c-23.7,6.1-47.1,6-63.1,17.4h160
		c61.9-0.6,96-16.6,107.9-21.3c-11.5-3.6-35.3-5.9-70.8-19.3c-1.8-0.7-3.6-1.4-5.5-2.1c-0.2,0.5-0.5,1.1-0.7,1.6
		c0.2-0.6,0.4-1.1,0.7-1.6c-4.2-1.7-8.7-3.5-13.2-5.5c-2.1-0.7-4.3-1.6-6.7-2.4 M477.2,364.9c-1.4-0.5-2.9-1.1-4.4-1.7c0,0,0,0,0,0
		c-1.3-0.5-2.6-1-3.9-1.5c-0.4,0.2-0.7,0.4-0.7,0.8c-0.1-0.4,0.3-0.7,0.7-0.8l-1.4-0.6c0,0,0,0,0,0l-1.8-0.7c0,0,0,0,0,0
		c-6-2.4-12.3-5-18.8-7.7 M393.9,351.9c-0.4,1-1.5,1.6-2.6,1.6c3.7-0.1,3.7-5.5,0-5.6C393.3,347.9,394.8,349.8,393.9,351.9z
		 M395.5,364.6c-0.1,0.1-0.1,0.2-0.2,0.2c4.3-5.2,2.5-10.5-3.2-5.3C397.5,354.5,399.7,359.2,395.5,364.6z M407.4,352.8
		c-0.1-0.2-0.2-0.4-0.2-0.7c0.3-1.9,0.4-3.7-0.2-5.1c0.6,1.4,0.5,3.2,0.2,5.1C407.3,352.3,407.3,352.5,407.4,352.8z M474.3,367.4
		c0.3,0.5,0.4,1,0.4,1.4C474.7,368.4,474.6,367.9,474.3,367.4c-1.5-1.1-2-2-2-2.7C472.3,365.4,472.8,366.3,474.3,367.4z
		 M464.4,361.1C464.4,361.1,464.4,361.1,464.4,361.1c-0.9,0-2.1-0.1-3.4-0.2C462.3,361,463.5,361.1,464.4,361.1z M451.4,362.3
		c-0.2,0.1-0.4,0.1-0.6,0.2C451,362.4,451.2,362.3,451.4,362.3z M448.3,364.3c0.6-0.8,1.4-1.4,2.4-1.7
		C449.7,362.8,448.8,363.4,448.3,364.3C448.3,364.3,448.3,364.3,448.3,364.3z M448.1,363.7C448.1,363.7,448.1,363.7,448.1,363.7
		c0-0.1,0-0.1,0-0.2C448.1,363.6,448.1,363.6,448.1,363.7z M447.8,369c1.3-1.1,2.9-1.7,4.6-1.7c3.7-0.1,6.1-0.4,8.4-1.1
		c-2.3,0.7-4.8,1-8.4,1.1C450.7,367.2,449.1,367.8,447.8,369C447.8,369,447.8,369,447.8,369z M456.6,369.6c-2.2,0.4-4.2,0.8-5.3,0.9
		C452.4,370.4,454.4,370,456.6,369.6z M450.4,370.8c-1.5,0.7-2.3,2.4-2.3,2.4l0,0C448.2,373.1,448.9,371.5,450.4,370.8z
		 M447.4,372.6L447.4,372.6c0,0.3-0.1,0.6-0.1,1C447.3,373.3,447.3,372.9,447.4,372.6z M445.8,383.5
		C445.8,383.5,445.8,383.5,445.8,383.5l0.2,1.3c0,0,0,0,0,0L445.8,383.5z M446.6,377.7c0.2-1.2,0.4-2.3,0.6-3.6
		C447,375.3,446.8,376.5,446.6,377.7c3.5-5.5,23.3-6.3,24.4-10.7C470.1,371.4,450,372.3,446.6,377.7z M496.9,381.4
		c-0.2-0.1-0.4-0.2-0.5-0.3c0.3,0.3,0.7,0.4,1.1,0.4C497.3,381.5,497.1,381.5,496.9,381.4z"/>
</g>
</svg>
