<svg id="kwi" xmlns="http://www.w3.org/2000/svg" viewBox="0 0 1820.84 686.57"><defs><style>.cls-1{opacity:0.05;}.cls-2{fill:#c00;}.cls-3{fill:#063;}.cls-4{fill:#ffad85;}.cls-5{fill:#ffe085;}.cls-6{fill:#f2f2f2;}.cls-7{fill:#e5e5e5;}</style></defs><title>prod-4</title><ellipse class="cls-1" cx="878.52" cy="632.64" rx="853.88" ry="19.21"/><path class="cls-2" d="M8.62,439.71h7.32c-5.84-34,14.22-156.21,14.22-156.21H20.65c0,.42,0,.64,0,.64S-.38,378,8.62,439.71Z"/><path class="cls-3" d="M1393.34,279c-99.68-35.13-263-107.07-383-161.48-2.64,1.69-6.2,2.59-11,2-20.69-2.33-53-2.89-82-9.64-20.08-4.69-49.9-19.12-66.28-27.52-3.24,24.69.18,53.66,33.17,78.3,50.79,37.93,157.5,99,158.15,131.79.34,17.75,1.44,39.83-13,60.33,5.82,4.93,11.75,10.17,13.19,12.21,2.36,3.31-5.16,61-22,99.75h168.86a142.67,142.67,0,0,1-13.12-60c0-79.09,66.2-161.27,143.2-143.2,71.36,16.76,275.38,89.8,289.47,166,63.21-17,104.24-34.51,117.46-40,4.6-1.9,8.4-3.57,11.57-5C1686.36,366.62,1570.12,356.79,1393.34,279Z"/><path class="cls-3" d="M974.84,326.57c-6.93-3.95-20.44-11.33-37.13-20.37,0,0-6.91,24.55-21.24,43.12h0c28.61-5.5,51.07-12,61.58-22.76a6.85,6.85,0,0,0,2.86-5.2C979.2,322.91,977.2,324.61,974.84,326.57Z"/><path class="cls-3" d="M531.59,368.55c-12.54-22-32.38-110.49-34.72-128.6a27.46,27.46,0,0,1-.21-3.22C427,240,350,236.08,263.35,213.82A368.77,368.77,0,0,1,208.55,251a280.41,280.41,0,0,1-52.41,22.6c67.46,36.77,132.24,95.11,136.41,191.21h311.5c11.37-8.52,30.13-22.05,52.25-36C614.71,414.26,541.62,386.15,531.59,368.55Z"/><path class="cls-4" d="M1374.19,326.87c66.8,0,129.4,54.15,129.4,121,0,.8,0,1.59,0,2.38a1070,1070,0,0,0,105.33-22.58c-14.09-76.18-218.11-149.22-289.47-166-77-18.07-143.2,64.11-143.2,143.2a142.67,142.67,0,0,0,13.12,60h65.1a121,121,0,0,1,119.76-137.92Z"/><path class="cls-5" d="M1503.55,450.2c0-.79,0-1.58,0-2.38,0-66.8-62.6-120.95-129.4-120.95a121,121,0,0,0-119.76,137.92h67.87A1127.78,1127.78,0,0,0,1503.55,450.2Z"/><path class="cls-4" d="M999.26,119.57c4.83.54,8.39-.36,11-2C922.88,77.89,858.48,47.57,858.48,47.57c-2,9.46-5.71,21.53-7.46,34.84,16.38,8.4,46.2,22.83,66.28,27.52C946.23,116.68,978.57,117.24,999.26,119.57Z"/><path class="cls-4" d="M1042.5,365c-1.44-2-7.37-7.28-13.19-12.21-12.25,17.37-35.67,33.6-80.19,45.1-24.43,6.31-48.78,10.91-72.53,15.1-2.32,9.9-6.87,25.3-14.25,34.79-4.19,5.38-7.25,11.23-15.23,17h173.36C1037.34,426,1044.86,368.35,1042.5,365Z"/><path class="cls-5" d="M850.18,417.64c-54.74,9.59-105,19.62-144,47.15h141c8-5.74,11-11.59,15.23-17,7.38-9.49,11.93-24.89,14.25-34.79C867.7,414.6,858.88,416.11,850.18,417.64Z"/><path class="cls-5" d="M292.38,461.48c-.62,1.11-1.26,2.22-1.91,3.31h2.08C292.5,463.68,292.44,462.58,292.38,461.48Z"/><path class="cls-4" d="M176,285.12C120.58,250.74,59.31,232.5,25.86,221a60.42,60.42,0,0,0,3.33,6.57C21.56,262,20.73,280,20.65,283.5h9.51S10.1,405.75,15.94,439.71h.4s-.09.4-.19,1.09c.06.31.12.62.19.91H16c-.42,3.7-.64,11.86,4.16,18.58-.93.72-1.74,2.27-2.43,4.5H86.13A119.12,119.12,0,0,1,176,285.12Z"/><path class="cls-5" d="M176,285.12A119.12,119.12,0,0,0,86.13,464.79H290.47c.65-1.09,1.29-2.2,1.91-3.31C287.43,376.75,235,321.76,176,285.12Z"/><path class="cls-4" d="M263.35,213.82C203,198.32,138.07,173.94,67.76,136.93c-41.48,7.21-56,51.54-41.9,84.07,28.23,9.7,76.26,24.2,123.86,49.15q3.21,1.68,6.42,3.43A280.41,280.41,0,0,0,208.55,251,368.77,368.77,0,0,0,263.35,213.82Z"/><path class="cls-4" d="M833.71,250.06a51.76,51.76,0,0,1,1.63,12.81c0,42.21-51.78,76.43-115.65,76.43s-115.64-34.22-115.64-76.43c0-13.9,5.61-26.92,15.41-38.15-38.35,5-79.11,9.95-122.8,12a27.46,27.46,0,0,0,.21,3.22c2.34,18.11,22.18,106.62,34.72,128.6,10,17.6,83.12,45.71,124.71,60.27,23.81-15,51.5-30.4,78.11-40.53,27.53-10.62,58.24-17.69,88.47-23.25,33.46-6.16,66.32-10.48,93.59-15.71h0c14.33-18.57,21.24-43.12,21.24-43.12C906.72,289.43,864.78,267,833.71,250.06Z"/><path class="cls-5" d="M719.69,339.3c63.87,0,115.65-34.22,115.65-76.43a51.76,51.76,0,0,0-1.63-12.81c-17.48-9.51-31.52-17.24-38.23-21.2-14.22-5.24-34.25-11.74-53.44-17.73-38.22,2-78.83,7.85-122.58,13.59-9.8,11.23-15.41,24.25-15.41,38.15C604.05,305.08,655.82,339.3,719.69,339.3Z"/><g id="seeds"><path d="M1436.41,388l54.25-19.44c12.6-3.41,19.53-14.34,0-22.05s-31.11,2.57-44.61,10.93S1425.63,391.85,1436.41,388Z"/><path d="M1415.84,374.2c12.85-9.06,43.07-30.42,43.07-30.42,5.14-6.28-4.5-18.49-16.07-21.71s-19.29,5.79-27,15.43-10.93,33.54-9,36.7S1411.89,377,1415.84,374.2Z"/><path d="M1392.54,366.08c9.09-16.05,19.45-29.91,22.34-39.21s-.15-14.44-11.17-18.3-19.65-4.5-25.3,9.64S1379,362,1379,362,1386.4,376.92,1392.54,366.08Z"/><path d="M1367.62,348.92c3.5-17.8,11.7-40.35-11.19-48.06s-22.16,8.73-21.59,20.55S1353.25,362,1353.25,362s4.73,9.73,6.66,8.07S1364.18,366.4,1367.62,348.92Z"/><path d="M1341.91,370.21l-10.64-48.8s-4.15-13.09-17.65-15.21-29.57.4-23.14,15.21,17.18,26.38,25,34.73S1339.34,382.35,1341.91,370.21Z"/><path d="M1324.55,376.43c-2-11.93-23.85-31.29-30.57-38.32s-28.67-22.47-39.55-13.47-4.55,18.19,0,24.52,39.26,23.7,55.33,30.77S1326.69,389.4,1324.55,376.43Z"/><path d="M1315.46,398.57c-.39.4-22.41,2.87-45.55-2.74S1223,385.18,1222,374.2c-11.91.11-60.12-6.44-67.84-12.25s-19.93-14.24-14.78-23.84,13.5-7.17,24.43-3.25,63,27.09,63,27.09c10.94-7.74,18.11-7.09,26.42-4.52s35.78,19,35.78,19l26.44,15.71S1319.87,394.07,1315.46,398.57Z"/><path d="M1315.46,416.16s-25.62,13.27-52,13.27-43.31-4.21-43.31-4.21-21.62,12-48,9.42-50.78-5.85-45.64-23.85c11.63-11.34,43.07-9,43.07-9l41.79,10.28,8.76-12.62s-53.76,3.92-69.83-3.62-24.43-12.58-19.29-21.63,24.43-8.12,24.43-8.12l39.21,10.35,33.11,14.43v5s10.61-.64,30.54,3.62S1307.66,411.9,1315.46,416.16Z"/><path d="M1320.69,434.64l-48.85,34h-46.93l-7.72-13.59-25.71,16.81s-61.72,3.28-61.72-18.61S1205,439.07,1205,439.07l22.82,2.57s4.27-4.26,20.62-6.63,67-5.58,67-5.58Z"/><path d="M1603.55,435l-40.5-12.65-3.86-9.65,22.18-7.16c23.47-1.19,61.39,10.08,65.25,14.73S1613.19,439.31,1603.55,435Z"/><path d="M1548.26,395.83c-.73,8.15,66.22,8.85,75.22,9s15.43-3.4,14.78-9-27.36-18.47-35.21-16.54S1549.55,381.51,1548.26,395.83Z"/><path d="M1538.62,379.09l64.43-4.78s17.21.52-4-12.36c-17.36-8.15-50.14,1.84-55.93,3.48S1526.41,377,1538.62,379.09Z"/><path d="M1521.91,362c18.15,1,49.45-8.15,49.45-8.15s4.55-7-12.17-10-27.64-4.65-37.28,0S1493.87,360.37,1521.91,362Z"/><path d="M1490.66,346.5l48.81-8.39s-13-12.23-27.85-11.24a130.4,130.4,0,0,0-26.48,4.53S1464.55,341.36,1490.66,346.5Z"/><path d="M1456.85,331.4l46.74-9.32s-33.54-13.43-41.36-10.58S1436.18,322.88,1456.85,331.4Z"/><path d="M1428.85,315l38.13-6s-23-12.27-33.67-13.11S1416.79,311.14,1428.85,315Z"/><path d="M1399.76,301.5l29.09-5.65s-21.24-12.41-32.88-10.77C1385.92,290.43,1390.76,299.57,1399.76,301.5Z"/><path d="M1393.34,279,1372,290.43s-5.61,1.07-10.11-5.5-2.94-12.28-2.94-12.28S1357.82,262.15,1393.34,279Z"/><path d="M1345.12,284.93l11.31-15.51s-4-5.33-23.82-13.17c0,0-13.53-2.8-8.87,6.44S1334.84,286.35,1345.12,284.93Z"/><path d="M1320.69,285l-5.23-.1L1289,259.12s-14.55-12.67,0-13.55,29.74,9.64,30.39,16.07S1323.26,278.19,1320.69,285Z"/><path d="M1302.11,288H1294s-14.86-11.89-27.82-23.3-28.3-22.34-17.74-24.27,30.69,7.53,34.13,11.57S1302.11,288,1302.11,288Z"/><path d="M1282.55,293.21s-2.36,7.15-15.21,0S1214,251.36,1214,251.36s-3.83-7.82,8-5.84,24.73,8.15,36.31,18.57S1282.55,293.21,1282.55,293.21Z"/><path d="M1259.62,306.2s-23.28-2.63-39-13a206.49,206.49,0,0,1-27.9-22.42s-12.21-7.22,0-14.61,35,14.61,35,14.61l34.39,30.71S1265,307,1259.62,306.2Z"/><path d="M1244.9,329.14s-45.64-14.22-57.56-22.86A162.3,162.3,0,0,1,1166.41,288s-1.61-10.93,9.8-11.57,37.18,14.06,37.18,14.06l31.51,27.08S1255.24,325.29,1244.9,329.14Z"/><path d="M1233.91,348.92s-39.86-2.07-51.43-9-30.22-21.72-30.22-21.72-7.07-6.44,0-15.43,39.25,8.33,39.25,8.33l36.29,23.43S1246.12,343.62,1233.91,348.92Z"/><path d="M862.76,59.57c6.32,3.8,19.72,8.14,23.15,8.14s8.92-3.16,0-7.32-18.43-9.82-23.15-9S859.8,57.79,862.76,59.57Z"/><path d="M900.49,67.17s6.68,14.08,16,15.24,12.29,1.24,12.29,1.24S933.07,79.91,900.49,67.17Z"/><path d="M850.05,69.86s8-.47,11.43,5.55,3.6,15.45-1.63,26.59a58.93,58.93,0,0,1-12.74,17.73S824.06,102,850.05,69.86Z"/><path d="M877.34,75.41s10.07,1.45,13.41,14.16,5.3,23.14.87,33.86-16,6.86-21.57,2.14-7.74-23.43-4.09-28.71S877.34,75.41,877.34,75.41Z"/><path d="M926.19,91.29c4.46,5,9.43,13.71,8.57,19.71s-.65,27-20,25.93-18.87-23.87-14.23-27.22S922.51,87.17,926.19,91.29Z"/><path d="M942.48,94.79c6,4.21,19.71,18.35,24.86,28.21s6.42,25.29-7.72,23.57-24.11-5.57-21.91-23.14S942.48,94.79,942.48,94.79Z"/><path d="M957.05,99.43s9.74,14.57,13.87,23.14,11,21.69,22.56,24.13,19.71-1.84,5.14-18.56S961.76,101.57,957.05,99.43Z"/><path d="M970.92,102.86s35,27.08,42.7,34.11,15.43,7,18,7.46,2.57-5.57-7.71-11.57S983.15,103.79,970.92,102.86Z"/><path d="M995.63,110.87s37.71,25.42,45,28,12.43,2.14,4.29-1.93S1000,112.86,995.63,110.87Z"/><path d="M888,163.5s16.57-9.21,26.75-3.21,13,23.57,1.75,32.14S881.89,177.44,888,163.5Z"/><path d="M927.05,194.26s14.14-9.55,21.64-11.69a19.64,19.64,0,0,1,22.23,9c5,8.57.7,29-13.87,33.15S927.05,194.26,927.05,194.26Z"/><path d="M965.19,225.06s21.43-12.14,26.57-11.24,13.29-3,21,5.6,1.3,30.87-17.13,33.44S965.19,225.06,965.19,225.06Z"/><path d="M1006.45,254.66s12.74-9.64,23.89-7.44,20.57,3.59,24.42,11.9-1.56,13.41-5.7,17.29-20.87,8.62-20.87,8.62Z"/><path d="M1035.91,291s4.71-3,15-3,24.43-1.29,29.14,5.57,11.14,14.57,0,21.86-30.43,16.1-44.14,12.33S1035.91,291,1035.91,291Z"/><path d="M1029.81,331.4s31,.55,42.1,0,32.14,8.06,29.57,22.4-14.14,18.63-24.86,18.2-46.28-3.38-63-10.05-18-22-18-22Z"/><path d="M989.88,372s18.84,2,39.93,2.28,52,3.26,61.81,15.26,10.72,13.92,6.86,23.46-17.57,13.83-45.86,5.26-78-35.68-78-35.68Z"/><path d="M974.62,408.81V413l65.57,59s39,2.4,44.15-8.74,1.28-22.29-17.15-31.29S1009.76,405.33,974.62,408.81Z"/><path d="M960.48,435s63.58,20.13,70.79,33.63-56.65,3.61-56.65,3.61l-18-25.25S954.91,445.74,960.48,435Z"/><path d="M866,400.53s28.09,18.61,41.38,28.9,16.28,31.21-3.86,42.82-87.43-57-87.43-57Z"/><path d="M793.34,433.29c4.06-4.6,49.71,8.06,78.42,38.74s-54,3.71-54,3.71l-26.39-32.17S788.47,438.8,793.34,433.29Z"/><path d="M793.34,251c14.17.6,48.42,11.61,61.28,19.17s28.72,23,18.43,36.05-22.71,14.8-44.57-8.34-38-41.68-38-41.68S786.27,250.69,793.34,251Z"/><path d="M881.62,301.29c.83-1,29.14-1.29,49.72,8.57s49.57,30.85,49.57,30.85-27.43,18.37-39.29,12.12-30.43-19-42-26.06S872.19,312.43,881.62,301.29Z"/><path d="M870.05,331.38s39-.29,57,21.45-28.5,8.88-28.5,8.88S864.05,349.47,870.05,331.38Z"/><path d="M780.91,268.29c9.63.83,30.43,17.07,44.14,32.53s26,37.4,9.12,48.51-25.41-4.14-33.55-17.95-15-42.95-19.71-50.24S775.77,267.84,780.91,268.29Z"/><path d="M762.05,280.29c7,2.19,29.14,33.64,34.29,49.17s8.57,34.4,2.57,44.68-32.15,8.57-34.72-18-5.14-64.71-5.14-64.71S756.91,282,762.05,280.29Z"/><path d="M738.91,290.57c7.33,0,13.71,22.72,13.71,22.72s12,30.69,6,52.2A152,152,0,0,1,742,403.29s-25.28-15.17-22.35-37.8,14.07-72.35,14.07-72.35S731.62,290.57,738.91,290.57Z"/><path d="M714.05,290.57c6.1.64,8.28,20.57,5.64,45.86s-11.64,63.43-33.07,51,8.57-67.72,8.57-67.72S705.91,289.71,714.05,290.57Z"/><path d="M690.48,287.57c9.37,5.57-7.29,54.43-16.29,69.43s-27.43,22.34-36.85,15-9-20.39,10.71-42.57S681.05,284.57,690.48,287.57Z"/><path d="M671.62,273.6c3,2.4,3.86,4.44-2.14,13.7s-27.82,45.45-38.12,52-28.74,12.31-35.6,0-.42-26.87,16.72-36.3S671.62,273.6,671.62,273.6Z"/><path d="M659.19,258.43c2.68,3.68,3,8.14-18,21.86s-52.28,35.57-72,17.14,20.15-32.57,20.15-32.57l62.57-8.68S655.76,253.71,659.19,258.43Z"/><path d="M651.05,235.29c.48,4.76,8.14,4.66-15.43,15.68-23.14,6.17-76.28,18.9-81-3.75s73.72-17.08,73.72-17.08S650.2,226.8,651.05,235.29Z"/><path d="M536.62,237.86c-7,2.93-63,13.58-73.71,9.36s-18-4.95-16.72-9.51,90.43-3.65,90.43-3.65S541.76,235.71,536.62,237.86Z"/><path d="M542.19,260.15c.86,8.56,4,7.84-16.71,13.45s-71.57,16.26-77.14,1.62,4.23-20.76,27-24.24,65.57,1.88,65.57,1.88Z"/><path d="M550.76,285.12c4,6,3.43,7.54-16.71,19.38s-67.29,28.07-75.43,9.21S486.3,287.3,486.3,287.3,546.91,279.24,550.76,285.12Z"/><path d="M563.72,312.43c7.5,7.08-13.39,20.94-27.1,27.77s-48,35.31-60,9.13,62.28-36.9,62.28-36.9S557.81,306.86,563.72,312.43Z"/><path d="M580.34,331.38c9.35,3.93-16.62,34.11-16.62,34.11s-29.79,42.08-62.94,28.37c-14.48-18.91,24.57-39.73,24.57-39.73l46.41-22.75S576.48,329.76,580.34,331.38Z"/><path d="M597.48,348.43c4.71,4.28,6,15-8.57,36.43s-34.72,57.93-54,44,23.57-51.68,23.57-51.68l34.58-28.71Z"/><path d="M625.76,363.63c4.58,5,4.72,19.08-6.85,39.66s-33.43,45-33.43,45-11.14,9-16.72-3.86S585,401.11,585,401.11l36-37.48S622.68,360.3,625.76,363.63Z"/><path d="M656.3,378.43c5.74,3.28,6.12,17.47,0,30.38s-30.11,54.32-30.11,54.32-19.21,8.3-22.67-5.84,14.66-42.52,14.66-42.52l26.87-32.16S649.56,374.57,656.3,378.43Z"/><path d="M687.48,390.18c6.62,2.84,2.57,20.82,0,26s-38.14,28.72-38.14,28.72-4.5-6.5,7-23.39a330.47,330.47,0,0,1,24.75-31.62S681.91,387.79,687.48,390.18Z"/><path d="M142,443.57,120.48,477s-61.72-6.3-59.14-13.87,5.57-11,23.57-14.42,51.43-9,51.43-9S141.22,437.57,142,443.57Z"/><path d="M132.48,417.86c0,6-3.86,8.57-27.86,18s-56.14,24-62.57-15c0-21,17.57-21.86,34.29-18s37.71,10.28,46.71,10.71S132.48,417.86,132.48,417.86Z"/><path d="M129.91,390.18s0,6.6-8.15,6.42-51.42,16.77-74.57-14c-7.71-14.9.43-30.75,7.72-30.32S75.79,354,87,360.2s27.06,16.51,34.77,19.94S130.5,387.71,129.91,390.18Z"/><path d="M130.05,363.63c-22-2.4-54.57-6.45-67-24.33S59.19,307,64.76,302.65s20.15-4.36,33.43,11.49,20.57,17.76,20.57,17.76-13.71-27.19-15-33.61.43-27.29,6-32.08,7.29-9.07,7.29-9.07-13.28-3.85-15.43-4.71-3.86-10.72-3-14.57,10.29.85,15.86,8.57a82.7,82.7,0,0,0,13.71,14.14,21.85,21.85,0,0,0-2.57-10.76c-3-5.95-1.28-23.65.43-25.09s4.88-7,15.94,9.26,31.36,49.52,31.36,49.52-9.16-29.45-10.87-33.69-.43-31.31-2.14-36,9-6.82,15.64-3.39,20.36,32.57,28.93,48.43,15,27.43,17.57,40.71,1.71,14.12-4.72,27.2S199.34,351,195.05,333a91.37,91.37,0,0,1-1.71-34.71c.42-3.43.42-6-3.43-1.29s-9,17.12-13.93,29.77-13.5,33.73-17.79,16.12-9.66-31.32-8.47-46.75,4-18.85,4-18.85-1.75-5.27-4-3.71-7.73,44-7.73,44v36.86a11.78,11.78,0,0,0-4.37.86C135.91,356.14,134.16,364.08,130.05,363.63Z"/><path d="M201.91,198.86c18,2.94,31.28,7.58,39.43,25.86s12.42,31.14,17.14,43.57c0,17.91-5.35,34.8-24.86,21.42s-24.43-26-28.28-43S195.51,197.81,201.91,198.86Z"/><path d="M239.62,208.74S254.5,239.68,263.35,251s24,9.16,27.12,8.73,16.3-12.08,8.29-25.73-10.71-13-10.71-13Z"/><path d="M120.91,168c5.14,3,40.71,14.57,40.71,14.57s-12.86,31.72-29.14,29.14-20.57-5.14-21-18.85S120.91,168,120.91,168Z"/><path d="M99.05,158.57l17.14,7.72L95.43,208.74c-13.09,18.4-26.81,20-31.52,3.12s12-41.72,12-41.72S90.87,154.89,99.05,158.57Z"/><path d="M90.87,154.89s-15.82,5.4-24.39,20-20.14,33.88-20.14,33.88c-10.29,5.55-16.93-4.74-16.18-15.45s9.32-29.44,16.6-35.29,22.29-12.71,30.43-10.14A45.92,45.92,0,0,1,90.87,154.89Z"/><path d="M83.62,145.29s-27-.86-30.86,5.14S30.1,169.71,30.1,169.71s1.43-13.28,14-19.71,24.34-10.3,26.69-10.29S83.62,145.29,83.62,145.29Z"/><path d="M56.86,238.29s-8-7.72-9.67-6.43-4.71.5,0,14.82,8.23,15.18,9.47,8.32S56.86,238.29,56.86,238.29Z"/><path d="M37.76,234.45c-1.73,10.44,4.29,18.86,4.29,25.71s.71,16.27-2.43,21-5.61.73-9.52-11-3.26-33.87.06-38.44S38.26,231.45,37.76,234.45Z"/><path d="M1518.44,447.67l-47.8,7.38-18.8-13.41v-6.43S1499.54,430.56,1518.44,447.67Z"/><path d="M1451.84,416.16s73.92,30,81.64,28.69,28.93-10.45,10.93-28.69S1465.34,406.76,1451.84,416.16Z"/><path d="M1446.05,401.79h72.39c20.18-1.93,22.75-19.29,4.75-25.08S1469.19,373.5,1446.05,401.79Z"/></g><path class="cls-6" d="M979.34,329.46c17-16.82,11.89-28.6-4.5-42.1C962,276.43,818.62,180,805.76,150.43a13.46,13.46,0,0,1-8.83,2.48C774.37,177,758,203,756.76,210.57q-7.29.18-14.72.56c19.19,6,39.22,12.49,53.44,17.73C820.55,243.64,952.34,314,979.34,329.46Z"/><path d="M1042.34,292.5c-.65-32.79-107.36-93.86-158.15-131.79s-31.5-86.14-25.71-113.14c0,0-30.86-30.86-56.57-11.57,9,18-18,92.57-3.86,115.71l-1.12,1.2a13.46,13.46,0,0,0,8.83-2.48C818.62,180,962,276.43,974.84,287.36c12.1,12.1,22,20.41,3.21,39.21-29.57,30.22-153.64,27-243.64,61.72-51.34,19.55-106.76,58.81-130.36,76.5h102.1c61.74-43.58,151.78-43.31,243-66.86C1046.19,372.86,1043,325.29,1042.34,292.5Z"/><path class="cls-6" d="M1285.66,502.39c53,9.65,322.07-38.57,377-51.1s86.79-30.86,111.22-46.45c-3.27-1.23-10,1.12-10,1.12s-8.73-13.82-15.75-20.67c-2.1-1.25-2.86-.22-6.64-1.5-1.13-.39-2.36-.78-3.64-1.18-3.17,1.46-7,3.13-11.57,5-28,11.57-180.33,77.15-404,77.15H17.76c-7.92,25.34-1.11,139.77,2.43,157.5,3.86,19.28,55.29,10.28,55.29,10.28l1141.71,10.29,3-.22c2.75-29.26,7.55-79,9.56-91.07C1232.62,534.21,1224.91,541,1285.66,502.39Z"/><path class="cls-7" d="M1773.91,404.84c-24.43,15.59-56.25,33.91-111.22,46.45s-324,60.75-377,51.1c-60.75,38.57-53,31.82-55.93,49.18-2,12.06-6.81,61.81-9.56,91.07,155.92-11.5,416-23.47,589.74-109.07C1803.89,495.57,1785.48,426.7,1773.91,404.84Z"/></svg>