<svg id="noodles" xmlns="http://www.w3.org/2000/svg" viewBox="0 0 1820.84 686.57"><defs><style>.cls-1{opacity:0.05;}.cls-2{fill:#f2f2f2;}.cls-3{fill:#e5e5e5;}.cls-4{fill:#c00;}.cls-5{fill:#f7f7f7;}.cls-6{fill:#0d0d0d;}</style></defs><title>prod-1</title><ellipse class="cls-1" cx="878.52" cy="632.64" rx="853.88" ry="19.21"/><path class="cls-2" d="M1285.66,502.39c53,9.65,322.07-38.57,377-51.1s86.79-30.86,111.22-46.45c-3.27-1.23-10,1.12-10,1.12s-8.73-13.82-15.75-20.67c-2.1-1.25-2.86-.22-6.64-1.5-1.13-.39-2.36-.78-3.64-1.18-3.17,1.46-7,3.13-11.57,5-28,11.57-180.33,77.15-404,77.15H17.76c-7.92,25.34-1.11,139.77,2.43,157.5,3.86,19.28,55.29,10.28,55.29,10.28l1141.71,10.29,3-.22c2.75-29.26,7.55-79,9.56-91.07C1232.62,534.21,1224.91,541,1285.66,502.39Z"/><path class="cls-3" d="M1773.91,404.84c-24.43,15.59-56.25,33.91-111.22,46.45s-324,60.75-377,51.1c-60.75,38.57-53,31.82-55.93,49.18-2,12.06-6.81,61.81-9.56,91.07,155.92-11.5,416-23.47,589.74-109.07C1803.89,495.57,1785.48,426.7,1773.91,404.84Z"/><path class="cls-4" d="M8.62,439.71h7.32c-5.84-34,14.22-156.21,14.22-156.21H20.65c0,.42,0,.64,0,.64S-.38,378,8.62,439.71Z"/><path class="cls-3" d="M979.34,329.46c17-16.82,11.89-28.6-4.5-42.1C962,276.43,818.62,180,805.76,150.43a13.46,13.46,0,0,1-8.83,2.48C774.37,177,758,203,756.76,210.57q-7.29.18-14.72.56c19.19,6,39.22,12.49,53.44,17.73C820.55,243.64,952.34,314,979.34,329.46Z"/><path class="cls-2" d="M1042.34,292.5c-.65-32.79-107.36-93.86-158.15-131.79s-31.5-86.14-25.71-113.14c0,0-30.86-30.86-56.57-11.57,9,18-18,92.57-3.86,115.71l-1.12,1.2a13.46,13.46,0,0,0,8.83-2.48C818.62,180,962,276.43,974.84,287.36c12.1,12.1,22,20.41,3.21,39.21-29.57,30.22-153.64,27-243.64,61.72-51.34,19.55-106.76,58.81-130.36,76.5h102.1c61.74-43.58,151.78-43.31,243-66.86C1046.19,372.86,1043,325.29,1042.34,292.5Z"/><path class="cls-5" d="M1689.23,368q-6.11-1.38-12.73-2.8c2,6.84,4.61,21.17.62,41.42,4.37-1.53,8.5-3,12.36-4.43l2.78-20.64A124.7,124.7,0,0,0,1689.23,368Z"/><path class="cls-5" d="M1727.43,387.19c-.27-2.91-.6-6.12-1-9.22-4.29-1.49-9-2.91-14.14-4.32a33.12,33.12,0,0,1,5,17.74c3.79-1.55,6.82-2.82,9.06-3.75Z"/><path class="cls-5" d="M1207.55,223.71c-.58-4.6-7.06-15-14.06-25.05l-16.2-7c8.38,9.19,18.32,21.88,18.69,30.76.64,15.43-1.29,29.57-9.64,49.5-7.51,17.91-62.78,163.51-73.91,192.86h10.26l73.4-186.43S1208.84,234,1207.55,223.71Z"/><path class="cls-5" d="M1215.91,329.14l41-103.61-7.6-3.18-46.87,122.22-53.93,120.22h7.64l36-77.79Z"/><path class="cls-5" d="M1272.48,294.43c3.71-10.33,13.8-36.57,20.53-54l-10.16-4.16-31.59,85.81-52.48,142.72h9.36l52.77-133.72S1266.69,310.5,1272.48,294.43Z"/><path class="cls-5" d="M1330.34,276.43c2-4.85,4.88-11.86,7.47-18.15l-7.87-3.08-94.72,209.59h11.87c12.55-24,38.7-74.19,44-86.79C1298.19,361.29,1325.84,287.36,1330.34,276.43Z"/><path class="cls-5" d="M1369.49,270.35a21.06,21.06,0,0,1-1.87,15.08c-5.92,10.76-57.28,138.05-73.9,179.36h9.9L1384.8,276C1379.84,274.17,1374.72,272.3,1369.49,270.35Z"/><path class="cls-5" d="M1417.76,312.43c1.54-6.44,3.21-14.48,4.55-21.13q-5.43-2.24-10.94-4.54a83.22,83.22,0,0,1-3.89,14.1c-6.83,19.35-51.47,137-61.6,163.67q6.28-.12,12.48-.32l53.37-131.85S1414.55,325.93,1417.76,312.43Z"/><path class="cls-5" d="M1457.62,331.07c2.23-4.82,4.24-15.63,5.54-23.92q-4.42-1.62-8.91-3.31c.46,8.11-.4,20.63-6.27,36.87-9.09,25.12-39.93,97.76-50.09,121.56q7.26-.48,14.41-1l38.89-100.59S1453.76,339.43,1457.62,331.07Z"/><path class="cls-5" d="M1482.69,378c4.5-12.86,9.28-36.83,10.93-48.21.56-3.86,1.11-7.84,1.59-11.41q-6.84-2.28-13.83-4.72l-5.76,33.48s-3.86,30.22-8.36,39.86c-3.67,7.87-20.59,54.65-26.71,71.63q8.21-.87,16.22-1.83l17.57-46.66S1478.19,390.86,1482.69,378Z"/><path class="cls-5" d="M1533.48,350.68c1.68-1.89,4.72-10.76,5.92-18.48q-7.11-2.07-14.43-4.3c-.33,13-1.42,35.45-5,43-3.9,8.29-22.23,58-30.85,81.52,4-.6,8-1.21,12-1.84l20.81-65.22S1530.91,353.57,1533.48,350.68Z"/><path class="cls-5" d="M1568.84,355.5c1.15-5.4,2.3-10.1,2.21-14.53q-5.61-1.47-11.35-3c0,7.37-.79,17.42-4.36,25.28-5.12,11.26-19.18,62-24.72,82.24q6.59-1.24,13-2.53l16.09-47.56S1566.91,364.5,1568.84,355.5Z"/><path class="cls-5" d="M1613.84,368.36a29.33,29.33,0,0,0,4.07-15.91q-7.47-1.71-15.29-3.57a40,40,0,0,1,3.5,22.05c-1.9,13.3-14,46.26-20.16,62.56q4.2-1,8.29-2.06l12.23-33.5S1610,374.79,1613.84,368.36Z"/><path class="cls-5" d="M1657.55,374.14c0-3.53-1.5-8.8-3.23-13.69l-9-1.94c1.55,6.91,2.71,16.08.69,24.1-2.47,9.82-7.85,26.81-11.39,37.74q6.17-1.83,12-3.64l7.78-16.85S1657.55,382.5,1657.55,374.14Z"/><path d="M1454.25,303.84q-15.63-5.88-31.94-12.54c-1.34,6.65-3,14.69-4.55,21.13-3.21,13.5-6,19.93-6,19.93l-53.37,131.85q20.21-.65,39.53-1.94c10.16-23.8,41-96.44,50.09-121.56C1453.85,324.47,1454.71,312,1454.25,303.84Z"/><path d="M1369.49,270.35c-10.11-3.75-20.7-7.79-31.68-12.07-2.59,6.29-5.48,13.3-7.47,18.15-4.5,10.93-32.15,84.86-39.22,101.57-5.33,12.6-31.48,62.82-44,86.79h46.63c16.62-41.31,68-168.6,73.9-179.36A21.06,21.06,0,0,0,1369.49,270.35Z"/><path d="M1411.37,286.76q-8.92-3.76-18-7.76c-2.8-1-5.65-2-8.54-3l-81.18,188.83h18.68c8,0,15.81-.1,23.58-.26,10.13-26.68,54.77-144.32,61.6-163.67A83.22,83.22,0,0,0,1411.37,286.76Z"/><path d="M1475.62,347.14l5.76-33.48q-9-3.12-18.22-6.51c-1.3,8.29-3.31,19.1-5.54,23.92-3.86,8.36-6.43,29.57-6.43,29.57L1412.3,461.23q14.39-1.14,28.25-2.6c6.12-17,23-63.76,26.71-71.63C1471.76,377.36,1475.62,347.14,1475.62,347.14Z"/><path d="M1525,327.9q-14.48-4.42-29.76-9.52c-.48,3.57-1,7.55-1.59,11.41-1.65,11.38-6.43,35.35-10.93,48.21s-8.35,32.14-8.35,32.14l-17.57,46.66q16.61-2,32.36-4.35c8.62-23.52,26.95-73.23,30.85-81.52C1523.55,363.35,1524.64,340.93,1525,327.9Z"/><path d="M1282.85,236.26q-12.81-5.23-26-10.73l-41,103.61L1192.12,387l-36,77.79h42.66l52.48-142.72Z"/><path d="M1249.28,222.35c-18.3-7.66-37-15.61-55.79-23.69,7,10.07,13.48,20.45,14.06,25.05,1.29,10.29-11.46,54.65-11.46,54.65l-73.4,186.43h25.79l53.93-120.22Z"/><path d="M1196,222.43c-.37-8.88-10.31-21.57-18.69-30.76-158.22-68.48-318.81-144.1-318.81-144.1-5.79,27-25.07,75.22,25.71,113.14s157.5,99,158.15,131.79,3.85,80.36-93.22,105.43c-91.19,23.55-181.23,23.28-243,66.86h406.28c11.13-29.35,66.4-175,73.91-192.86C1194.69,252,1196.62,237.86,1196,222.43Z"/><path d="M1293,240.42c-6.73,17.44-16.82,43.68-20.53,54-5.79,16.07-11.57,36.64-11.57,36.64l-52.77,133.72h27.08l94.72-209.59C1318,250.52,1305.68,245.57,1293,240.42Z"/><path d="M1559.7,337.93q-9.93-2.71-20.3-5.73c-1.2,7.72-4.24,16.59-5.92,18.48-2.57,2.89-11.57,34.71-11.57,34.71l-20.81,65.22q15.2-2.44,29.52-5.16c5.54-20.27,19.6-71,24.72-82.24C1558.91,355.35,1559.7,345.3,1559.7,337.93Z"/><path d="M1645.29,358.51c-8.67-1.87-17.8-3.87-27.38-6.06a29.33,29.33,0,0,1-4.07,15.91c-3.86,6.43-7.36,29.57-7.36,29.57l-12.23,33.5c14.49-3.66,28-7.4,40.34-11.08,3.54-10.93,8.92-27.92,11.39-37.74C1648,374.59,1646.84,365.42,1645.29,358.51Z"/><path class="cls-6" d="M1689.23,368a124.7,124.7,0,0,1,3,13.55l-2.78,20.64c11.64-4.28,21-8,27.8-10.79a33.12,33.12,0,0,0-5-17.74C1705.37,371.75,1697.68,369.9,1689.23,368Z"/><path d="M1676.5,365.19q-10.45-2.26-22.18-4.74c1.73,4.89,3.23,10.16,3.23,13.69,0,8.36-3.21,25.72-3.21,25.72l-7.78,16.85c11.24-3.5,21.44-6.91,30.56-10.1C1681.11,386.36,1678.47,372,1676.5,365.19Z"/><path class="cls-6" d="M1737.91,382.61a111.81,111.81,0,0,0-11.45-4.64c.37,3.1.7,6.31,1,9.22C1731.54,385.47,1735,384,1737.91,382.61Z"/><path d="M1602.62,348.88q-15.12-3.6-31.57-7.91c.09,4.43-1.06,9.13-2.21,14.53-1.93,9-9.14,39.86-9.14,39.86l-16.09,47.56q22.37-4.51,42.35-9.43c6.18-16.3,18.26-49.26,20.16-62.56A40,40,0,0,0,1602.62,348.88Z"/><path class="cls-5" d="M76.44,183.21c12.54,0,30.86,7.72,50.15,9.65s77.14,8.68,77.14,8.68l23.33,2q-16.19-5-32.8-10.85c-50.74-6.87-157.27-23-164.1-23a11.23,11.23,0,0,0-4.85,1.41,62.41,62.41,0,0,0-3.42,11.48C41.3,179.27,66.85,183.21,76.44,183.21Z"/><path class="cls-5" d="M572.09,235.29c20.5,2.59,116.67-1.93,116.67-1.93s106.08,6.75,118.61,6.59c2.51,0,5.13,0,7.73-.07-4.29-2.35-8.12-4.48-11.4-6.32h0S710,222.75,657.91,222.69H635c-39.56,5.25-81.7,10.8-127,13.46C540.63,235.08,565.71,234.48,572.09,235.29Z"/><path class="cls-5" d="M92.84,226.06S260.62,235.29,299.19,240c21.34,2.57,96.3.08,162.5-2.22a791,791,0,0,1-82.63-3.53h0C345.14,236,83.19,216,57.16,212.14c-18.16-2.69-27.21,0-32.9,4.69.49,1.41,1,2.8,1.6,4.17.42,1,.88,1.93,1.35,2.88C48.18,214.89,92.84,226.06,92.84,226.06Z"/><path class="cls-5" d="M98.62,254.57c13.5-1.93,41.14,8.36,49.5,11.57s99.64,3.86,122.14,5.79,147.22-2.57,163.93-1.93,39.86,3.86,55.93.64,134.36,5.15,134.36,5.15l237.86,2.57s12.59.48,25.08.72l-25.76-13.89H724.12c-19.28.32-69.43-3.54-69.43-3.54H577.55l-79.65-1.93s-114.81,2.58-149.53,1.61-49.18-1.93-63.64,0-39.54,3.86-39.54,3.86-79.07-1.93-100.28-4.82a220.61,220.61,0,0,1-49.18-13.14c-8.68-3.49-36.64,2.53-59.79,0a41.77,41.77,0,0,0-10.73,0c-.58,3.21-1.09,6.19-1.54,9,8.85,0,26.13.22,33.17,1.63C66.48,259.71,85.12,256.5,98.62,254.57Z"/><path class="cls-5" d="M109.55,296.36c19.29,2.57,57.86-3.22,93.86,4.5S285.69,312.43,314.62,315s89.36,1.93,103.5,1.29,101.57,3.21,158.79,1.28,68.14-5.78,113.78-1.28,131.15,1.92,156.22,2.57S969.59,333,969.61,333a40.45,40.45,0,0,0,8.44-6.41,6.85,6.85,0,0,0,2.86-5.2c-1.71,1.54-3.71,3.24-6.07,5.2-3.9-2.23-9.9-5.54-17.37-9.63L848.84,310.5l-262.29-5.79S382.76,306,350.62,307.29s-134.36-12.22-150.43-12.22-23.14-11.57-23.14-11.57H85.12c-15.77,0-41.56,2.35-55.57,3.76-.35,2.25-.86,5.45-1.46,9.41C55.48,295.74,97,294.68,109.55,296.36Z"/><path class="cls-5" d="M683.62,345.16c-16.07-.7-23.78,2.63-23.78,2.63L429.05,351s-158.79-6.43-171-6.43a20,20,0,0,1-17.36-10s-43.07-.3-66.85-1.61-73.29,4.52-92.58,3.23S58.12,333,58.12,333H22.9c-.16,1.16-.31,2.33-.47,3.51,9.87,1.93,21.47,4.13,32.48,5.51,25.71,3.21,16.71,1.93,16.71,1.93s49.5,1.93,70.07,3.21,27.65-2.57,27.65-2.57h73.92l13.5,11.57s118.29,3.22,139.5,1.93,46.93,2.57,46.93,2.57,112.5-1.93,168.43-1.93,80.36-5.14,94.53-1.92,82.26,0,129.19,3.2c4,.28,7.8.59,11.34.91,25.13-4.15,49.21-7.61,70-11.62l-76.22-4.12S699.69,345.86,683.62,345.16Z"/><path class="cls-5" d="M72.91,372.11l68.78,4.6,131.15,5.9-9-12.32H180.26c-19.92,0-25.71-5.15-25.71-5.15s-61.07,1.93-77.79,0-33.42-3.53-33.42-3.53h-24c-.36,3.2-.71,6.42-1.05,9.62,7.56-.32,15.62-.68,21.18-.94C53,369.64,72.91,372.11,72.91,372.11Z"/><path class="cls-5" d="M141.37,416.57H285.05l-5.79-11.21s-88.07,4.14-102.85,3.5-23.79-5.15-41.15-6.43-59.78,0-59.78,0H24.64l-9.16,2.18c-.23,3.9-.4,7.65-.49,11.2,24.84-.31,72.71.48,83-2.45C111.48,409.5,141.37,416.57,141.37,416.57Z"/><path class="cls-5" d="M580.76,396c-12.21.64-74.25-3.21-74.25-3.21s-42.1,2.57-61.39,3.21-167.78-3.21-167.78-3.21l7.71,9.07L530,406.93s25.07-3.86,37.93-3.86H701.39c7.28-3.69,14.62-7.15,21.94-10.28H631.55S593,395.36,580.76,396Z"/><path class="cls-5" d="M570.48,438.43,491.41,441l-127.93-1.29s-70.07,0-72.64-3.85v8.35l-122.79,3.86s-22.5-3.21-41.79-3.21c-15.66,0-84.92-.43-110.41-.59a30.65,30.65,0,0,0,.55,7H92.19s39.22,3.21,43.07,6.42,29.58,3.22,35.36,2.58,122.79.33,122.79.33V448.24l104.78,4.33s15.43-2.57,47.57-.64c26.75,1.6,142.52-2,180.64-3.28,5.79-4,12.15-8.35,18.94-12.79H627.69Z"/><path d="M177.05,283.5s7.07,11.57,23.14,11.57,118.29,13.5,150.43,12.22,235.93-2.58,235.93-2.58l262.29,5.79,108.63,6.44c-17.72-9.69-43.79-23.71-70.05-37.86-12.49-.24-25.08-.72-25.08-.72l-237.86-2.57s-118.29-8.36-134.36-5.15-39.21,0-55.93-.64-141.43,3.86-163.93,1.93-113.78-2.57-122.14-5.79-36-13.5-49.5-11.57-32.14,5.14-41.78,3.22c-7-1.41-24.32-1.62-33.17-1.63-2.57,16.06-3,25-3,27.34h9.51s-.22,1.34-.61,3.76c14-1.41,39.8-3.76,55.57-3.76Z"/><path d="M57.16,212.14c26,3.86,288,23.86,321.9,22.06h0a761.37,761.37,0,0,1-152-30.64l-23.33-2s-57.86-6.75-77.14-8.68S89,183.21,76.44,183.21c-9.59,0-35.14-3.94-54.55-.61a65.88,65.88,0,0,0,2.37,34.23C30,212.17,39,209.45,57.16,212.14Z"/><path d="M803.7,233.56h0c-3.36-1.89-6.15-3.48-8.22-4.7-14.22-5.24-34.25-11.74-53.44-17.73-33.67,1.73-69.19,6.51-107.08,11.55h22.95C710,222.75,803.7,233.56,803.7,233.56Z"/><path d="M194.26,192.71a958.86,958.86,0,0,1-126.5-55.78c-21.44,3.73-35.65,17.38-42.45,34.19a11.23,11.23,0,0,1,4.85-1.41C37,169.71,143.52,185.84,194.26,192.71Z"/><path d="M35.94,247.22c23.15,2.53,51.11-3.49,59.79,0a220.61,220.61,0,0,0,49.18,13.14c21.21,2.89,100.28,4.82,100.28,4.82s25.07-1.93,39.54-3.86,28.93-1,63.64,0,149.53-1.61,149.53-1.61l79.65,1.93h77.14s50.15,3.86,69.43,3.54H861.66c-17.6-9.5-34-18.4-46.56-25.31-2.6,0-5.22,0-7.73.07-12.53.16-118.61-6.59-118.61-6.59s-96.17,4.52-116.67,1.93c-6.38-.81-31.46-.21-64.15.85-15.06.89-30.47,1.45-46.25,1.59-66.2,2.3-141.16,4.79-162.5,2.22-38.57-4.66-206.35-13.89-206.35-13.89s-44.66-11.17-65.63-2.18c.62,1.25,1.27,2.48,2,3.69-1.61,7.27-2.92,13.8-4,19.62A41.77,41.77,0,0,1,35.94,247.22Z"/><path d="M706.15,356.79c-14.17-3.22-38.6,1.92-94.53,1.92s-168.43,1.93-168.43,1.93-25.71-3.85-46.93-2.57-139.5-1.93-139.5-1.93l-13.5-11.57H169.34s-7.08,3.86-27.65,2.57-70.07-3.21-70.07-3.21,9,1.28-16.71-1.93c-11-1.38-22.61-3.58-32.48-5.51-1.05,8.07-2.11,16.56-3.08,25.12h24s16.71,1.6,33.42,3.53,77.79,0,77.79,0,5.79,5.15,25.71,5.15h83.58l9,12.32-131.15-5.9-68.78-4.6S53,369.64,39.48,370.29c-5.56.26-13.62.62-21.18.94-1.21,11.58-2.22,23-2.82,33.38l9.16-2.18H75.48s42.43-1.29,59.78,0,26.36,5.78,41.15,6.43,102.85-3.5,102.85-3.5l5.79,11.21H141.37S111.48,409.5,98,413.36c-10.28,2.93-58.15,2.14-83,2.45-.28,9.82,0,18.14.95,23.9h.4s-.09.4-.19,1.09c.06.31.12.62.19.91H16c-.08.71-.15,1.58-.18,2.56,25.49.16,94.75.59,110.41.59,19.29,0,41.79,3.21,41.79,3.21l122.79-3.86v-8.35c2.57,3.85,72.64,3.85,72.64,3.85L491.41,441l79.07-2.57,57.21-2.57h17.65a600.31,600.31,0,0,1,56-32.79H567.91c-12.86,0-37.93,3.86-37.93,3.86l-244.93-5.07-7.71-9.07s148.5,3.85,167.78,3.21,61.39-3.21,61.39-3.21,62,3.85,74.25,3.21,50.79-3.21,50.79-3.21h91.78c3.7-1.59,7.4-3.1,11.08-4.5,27.53-10.62,58.24-17.69,88.47-23.25,8-1.47,16-2.84,23.8-4.14-3.54-.32-7.3-.63-11.34-.91C788.41,356.79,720.31,360,706.15,356.79Z"/><path d="M846.91,318.86c-25.07-.65-110.57,1.93-156.22-2.57s-56.57-.65-113.78,1.28-144.65-1.93-158.79-1.28-74.57,1.28-103.5-1.29-75.21-6.43-111.21-14.14-74.57-1.93-93.86-4.5c-12.57-1.68-54.07-.62-81.46.31-1.37,9-3.27,21.83-5.19,36.31H58.12s3.86,1.95,23.14,3.23,68.79-4.54,92.58-3.23,66.85,1.61,66.85,1.61a20,20,0,0,0,17.36,10c12.21,0,171,6.43,171,6.43l230.79-3.21s7.71-3.33,23.78-2.63,156.86,0,156.86,0l76.22,4.12c22.32-4.3,40.88-9.22,52.91-16.3C969.59,333,872,319.5,846.91,318.86Z"/><path d="M445.76,451.93c-32.14-1.93-47.57.64-47.57.64l-104.78-4.33v12.38s-117-1-122.79-.33-31.5.64-35.36-2.58-43.07-6.42-43.07-6.42H16.4a23.35,23.35,0,0,0,3.79,9c-.93.72-1.74,2.27-2.43,4.5H604.05c5.74-4.3,13.36-9.88,22.35-16.14C588.28,449.91,472.51,453.53,445.76,451.93Z"/></svg>