<svg id="sprinkles" xmlns="http://www.w3.org/2000/svg" viewBox="0 0 1820.84 686.57"><defs><style>.cls-1{opacity:0.05;}.cls-2{fill:#5c5c85;}.cls-3{fill:#dbdbdb;}.cls-4{fill:#fff;}.cls-5{fill:#e5e5e5;}.cls-6{fill:none;stroke:#000;stroke-miterlimit:10;}.cls-7{fill:#ff5c5c;}.cls-8{fill:#ff85ad;}.cls-9{fill:#ffd65c;}.cls-10{fill:#9bced1;}.cls-11{fill:#82c2c5;}.cls-12{fill:#ffad85;}.cls-13{fill:#f33;}.cls-14{fill:#f69;}.cls-15{fill:#f2f2f2;}.cls-16{fill:#c00;}</style></defs><title>prod-8</title><ellipse class="cls-1" cx="878.52" cy="632.64" rx="853.88" ry="19.21"/><path class="cls-2" d="M25.86,221a60.42,60.42,0,0,0,3.33,6.57C21.56,262,20.73,280,20.65,283.5h9.51S10.1,405.75,15.94,439.71h.4s-.09.4-.19,1.09c.06.31.12.62.19.91H16c-.42,3.7-.64,11.86,4.16,18.58-.93.72-1.74,2.27-2.43,4.5H292.55C285.3,298,95.42,244.91,25.86,221Z"/><path class="cls-2" d="M1391.48,279C1219.19,218.29,856.62,47.57,856.62,47.57c-5.79,27-25.07,75.22,25.71,113.14s157.5,99,158.15,131.79,3.85,80.36-93.22,105.43c-91.18,23.55-181.23,23.28-243,66.86h616.15c223.72,0,376.07-65.58,404-77.15,4.6-1.9,8.41-3.57,11.58-5C1684.5,366.62,1568.26,356.79,1391.48,279Z"/><path class="cls-3" d="M979.34,329.46c17-16.82,11.89-28.6-4.5-42.1C962,276.43,818.62,180,805.76,150.43a13.46,13.46,0,0,1-8.83,2.48C774.37,177,758,203,756.76,210.57q-7.29.18-14.72.56c19.19,6,39.22,12.49,53.44,17.73C820.55,243.64,952.34,314,979.34,329.46Z"/><path class="cls-2" d="M627.05,312.43c-190.93,44.36-283.5,30.46-435.86-28.93a391.22,391.22,0,0,0-41.47-13.35c69.72,36.54,138.52,95.5,142.83,194.64h311.5c23.6-17.69,79-57,130.36-76.5,27.53-10.62,58.24-17.69,88.47-23.25C777.69,341.71,693,304.35,627.05,312.43Z"/><path class="cls-2" d="M980.91,321.37c-1.71,1.54-3.71,3.24-6.07,5.2-27-15.43-154.29-82.93-179.36-97.71-14.22-5.24-34.25-11.74-53.44-17.73-162.26,8.34-367.35,87.37-674.28-74.2-41.48,7.21-56,51.54-41.9,84.07,28.23,9.7,76.26,24.2,123.86,49.15a391.22,391.22,0,0,1,41.47,13.35c152.36,59.39,244.93,73.29,435.86,28.93C693,304.35,777.69,341.71,822.88,365c68.59-12.63,134.64-17.5,155.17-38.47A6.85,6.85,0,0,0,980.91,321.37Z"/><g id="ice_cream" data-name="ice cream"><path class="cls-4" d="M1167.05,335.57c-50.14,4.5-64.59-28.66-72.17-43.89-13.06,15-75,16.25-78.73-30.11s-22.4-56.72-48.58-67.63c114.23-46.49,130.81-10.31,144.19,6.06,32.79-10.22,71.36,15.36,78.43,21.39Z"/><path class="cls-5" d="M1434.48,305.36a262,262,0,0,0-37.17-13.5l-70.83-18s17.5-2,23.78,2.8,25.08,10.06,30.86,7.17-23.25-13.62-33.43-10.4-16.71-10.62-29.57-.59c0,0-15.43-4-19.28-6.64s-32.77-22.36-54.64-24.39-46.94-14.39-54-20.42l-23.14,114.18c-4.67,16.16,3.21,10.93,3.21,10.93s38.78-22.31,74.36-.87c22.18-5,54.22-16.17,54.22-16.17l109.28,22.27c10.93,2.48,13.86-10.38,13.68-21.62s0-20.9,0-20.9l-8.55-3.85,30.49,12.21S1452.48,313.71,1434.48,305.36Z"/><path class="cls-5" d="M1330.85,336l-16.91,4.68-1.28,2.79a19.62,19.62,0,0,0-3.77-2.79c-1.51-.69-4.27-1.88-1.05,2.79a30.2,30.2,0,0,0-7.72-7.47c-4.5-2.8-4.89,0-2.57,9.22-2.57-4.82-4.82-8-8-7.71s-2.57,1.29.65,9.31c-3.22,1-4.5-5.45-8-6.14s-4.5,0,0,11.06,12.86,3.13,23.6,3.77,9.83-12,9.83-12h23.14Z"/><path class="cls-6" d="M1231.34,256.18s-15.4-.85-13.81,10"/><path class="cls-6" d="M1211.41,286.72s2.1,17.35,8.76,26.35"/></g><rect class="cls-7" x="59.87" y="254.65" width="5.96" height="31" rx="2.98" transform="translate(72.36 -7.05) rotate(15.06)"/><rect class="cls-7" x="683.07" y="280.21" width="5.54" height="28.78" rx="2.77" transform="translate(165.46 -240.53) rotate(22.55)"/><rect class="cls-7" x="869.68" y="296.95" width="5.54" height="28.78" rx="2.77" transform="translate(383.12 -475.21) rotate(38.47)"/><rect class="cls-7" x="1214.66" y="384.63" width="5.74" height="29.82" rx="2.87" transform="matrix(0.14, 0.99, -0.99, 0.14, 1448.45, -860.9)"/><rect class="cls-7" x="1304.97" y="389.93" width="5.74" height="29.82" rx="2.87" transform="translate(11.75 -36.18) rotate(1.59)"/><rect class="cls-7" x="1554.91" y="391.74" width="3" height="15.59" rx="1.5"/><rect class="cls-7" x="1549.12" y="366.86" width="3" height="15.59" rx="1.5" transform="translate(71.19 971.38) rotate(-35.55)"/><rect class="cls-7" x="1214.76" y="207" width="5.54" height="28.78" rx="2.77" transform="translate(1924.29 -794.43) rotate(114.52)"/><rect class="cls-7" x="1005.91" y="168.62" width="4.43" height="23.03" rx="2.21" transform="translate(1636.58 -628.46) rotate(117.72)"/><rect class="cls-7" x="1065.95" y="244.67" width="4.43" height="23.03" rx="2.21" transform="translate(709.09 -781.93) rotate(57.43)"/><rect class="cls-7" x="1051.54" y="224.02" width="4.43" height="23.03" rx="2.21" transform="translate(863.38 -827.31) rotate(67.25)"/><rect class="cls-7" x="1156.66" y="235.71" width="4.43" height="23.03" rx="2.21" transform="translate(2029.53 -556.56) rotate(125.24)"/><rect class="cls-7" x="1152.98" y="285.85" width="4.43" height="23.03" rx="2.21" transform="translate(2238.75 -201.43) rotate(140.85)"/><rect class="cls-8" x="1011.3" y="226.66" width="4.43" height="23.03" rx="2.21" transform="translate(1776.74 -469.94) rotate(123.92)"/><rect class="cls-8" x="589.91" y="295.98" width="4.2" height="21.85" rx="2.1" transform="translate(123.08 -167.2) rotate(17.91)"/><rect class="cls-8" x="302.46" y="293.16" width="6.99" height="36.34" rx="3.5" transform="translate(-63.82 79.38) rotate(-13.4)"/><rect class="cls-8" x="217.55" y="280.83" width="6.99" height="36.34" rx="3.5" transform="translate(-63.27 59.37) rotate(-13.4)"/><rect class="cls-8" x="435.23" y="250.1" width="5.96" height="31" rx="2.98"/><rect class="cls-8" x="1145.86" y="399.61" width="6.76" height="35.14" rx="3.38" transform="translate(1406.89 -777.98) rotate(82.21)"/><rect class="cls-8" x="1476.34" y="328.55" width="5.74" height="29.82" rx="2.87" transform="translate(1937.62 -1104.26) rotate(94.5)"/><rect class="cls-8" x="1574.06" y="369.7" width="3" height="15.59" rx="1.5" transform="translate(165.54 -420.47) rotate(16.03)"/><rect class="cls-8" x="1589.84" y="357.24" width="3" height="15.59" rx="1.5" transform="translate(164.77 1159.09) rotate(-42.02)"/><rect class="cls-8" x="951.45" y="130.12" width="5.54" height="28.78" rx="2.77" transform="translate(1480.71 -664.34) rotate(114.45)"/><rect class="cls-8" x="1113.03" y="363.93" width="3.46" height="18" rx="1.73" transform="translate(1487.7 -741.84) rotate(90)"/><rect class="cls-8" x="651.16" y="371.31" width="7.07" height="36.76" rx="3.54" transform="translate(199.55 -221.31) rotate(22.55)"/><rect class="cls-9" x="1428.11" y="313.85" width="4.5" height="23.37" rx="2.25" transform="translate(726.28 -961.39) rotate(48.5)"/><rect class="cls-9" x="1171.5" y="345.63" width="5.74" height="29.82" rx="2.87" transform="translate(1372.49 -851.85) rotate(82.21)"/><rect class="cls-9" x="1351.39" y="337.19" width="5.74" height="29.82" rx="2.87" transform="translate(1040.11 -1011.46) rotate(62.45)"/><rect class="cls-9" x="1263.93" y="367.7" width="5.74" height="29.82" rx="2.87" transform="translate(193.78 1157.08) rotate(-52.63)"/><rect class="cls-9" x="1001.36" y="439.76" width="5.54" height="28.78" rx="2.77" transform="translate(1187.17 -632.6) rotate(75.22)"/><rect class="cls-9" x="501.78" y="352.93" width="7.07" height="36.76" rx="3.54"/><rect class="cls-9" x="739.58" y="346.52" width="4.92" height="25.58" rx="2.46" transform="translate(194.58 -257.14) rotate(22.55)"/><rect class="cls-9" x="964.8" y="107.08" width="5.54" height="28.78" rx="2.77" transform="translate(1478.61 -709.06) rotate(114.45)"/><rect class="cls-9" x="1076.66" y="152.98" width="5.54" height="28.78" rx="2.77" transform="translate(1678.55 -746) rotate(114.45)"/><rect class="cls-9" x="1292.47" y="239.17" width="5.54" height="28.78" rx="2.77" transform="translate(1558.01 -1039.84) rotate(90.41)"/><rect class="cls-9" x="1089.05" y="283.09" width="4.43" height="23.03" rx="2.21" transform="translate(2220.33 241.24) rotate(162.19)"/><rect class="cls-9" x="1118.9" y="206.77" width="4.43" height="23.03" rx="2.21" transform="translate(2242.24 436.57) rotate(180)"/><rect class="cls-9" x="1160.16" y="272.31" width="4.43" height="23.03" rx="2.21" transform="translate(1920.07 -642.23) rotate(115.57)"/><rect class="cls-9" x="1157.35" y="207.23" width="4.43" height="23.03" rx="2.21" transform="translate(1215.49 1397.44) rotate(-103.4)"/><rect class="cls-9" x="594.73" y="225.8" width="4.2" height="21.85" rx="2.1" transform="translate(101.73 -172.08) rotate(17.91)"/><rect class="cls-9" x="97.8" y="218.03" width="5.96" height="31" rx="2.98" transform="translate(-57.11 34.12) rotate(-15.03)"/><rect class="cls-9" x="42.92" y="346.11" width="5.96" height="31" rx="2.98" transform="translate(110.35 2.84) rotate(17.42)"/><rect class="cls-9" x="764.09" y="277.29" width="5.54" height="28.78" rx="2.77" transform="translate(133.82 -230.25) rotate(18.68)"/><rect class="cls-9" x="1241.34" y="345.63" width="5.74" height="29.82" rx="2.87" transform="translate(10.5 -34.43) rotate(1.59)"/><rect class="cls-9" x="1394.44" y="356.29" width="5.74" height="29.82" rx="2.87" transform="translate(761.94 -927.48) rotate(49.05)"/><rect class="cls-9" x="1535.62" y="380.48" width="3" height="15.59" rx="1.5"/><rect class="cls-9" x="1565.68" y="343.93" width="3" height="15.59" rx="1.5" transform="translate(167.47 1139.5) rotate(-42.02)"/><rect class="cls-9" x="1043.71" y="188.48" width="4.43" height="23.03" rx="2.21" transform="translate(1487.48 -769.02) rotate(103.67)"/><rect class="cls-9" x="1092.66" y="206.77" width="4.43" height="23.03" rx="2.21" transform="translate(1669.41 -738.95) rotate(109.7)"/><rect class="cls-9" x="1084.91" y="228.43" width="4.43" height="23.03" rx="2.21" transform="translate(2019.58 -368.27) rotate(134.44)"/><rect class="cls-9" x="1123.82" y="271.91" width="4.43" height="23.03" rx="2.21" transform="translate(2155.73 820.09) rotate(-166.6)"/><rect class="cls-9" x="982.78" y="172.11" width="4.43" height="23.03" rx="2.21" transform="translate(1417.86 -720.01) rotate(105.04)"/><rect class="cls-9" x="576.06" y="377.62" width="7.07" height="36.76" rx="3.54" transform="translate(62.7 -78.94) rotate(8.24)"/><rect class="cls-4" x="508.85" y="270.15" width="7.07" height="36.76" rx="3.54"/><rect class="cls-4" x="107.81" y="414.01" width="4.3" height="22.37" rx="2.15" transform="translate(-154.23 74.36) rotate(-22.48)"/><rect class="cls-4" x="1068.77" y="416.61" width="5.54" height="28.78" rx="2.77" transform="translate(1215.01 -715.02) rotate(75.22)"/><rect class="cls-4" x="1341.44" y="362.58" width="5.74" height="29.82" rx="2.87" transform="translate(1637.68 -987.65) rotate(86.44)"/><rect class="cls-4" x="1594.83" y="352.74" width="3" height="15.59" rx="1.5" transform="matrix(0.74, -0.67, 0.67, 0.74, 169.07, 1161.28)"/><rect class="cls-4" x="909.24" y="79.95" width="5.54" height="28.78" rx="2.77" transform="translate(1375.35 -696.84) rotate(114.45)"/><rect class="cls-4" x="1013.93" y="149.94" width="4.43" height="23.03" rx="2.21" transform="translate(2022.41 376.09) rotate(-176.99)"/><rect class="cls-4" x="384.37" y="425.19" width="7.07" height="36.76" rx="3.54"/><rect class="cls-10" x="991.54" y="195.97" width="4.43" height="23.03" rx="2.21" transform="translate(630.19 -740.36) rotate(57.22)"/><rect class="cls-10" x="1085.83" y="182.43" width="4.43" height="23.03" rx="2.21" transform="translate(1528.84 -819.54) rotate(103.4)"/><rect class="cls-10" x="1156.66" y="254.69" width="4.43" height="23.03" rx="2.21" transform="translate(2347.41 301.42) rotate(168.76)"/><rect class="cls-10" x="1147.02" y="314.02" width="4.43" height="23.03" rx="2.21" transform="translate(933.02 -849.18) rotate(63.76)"/><rect class="cls-11" x="375.05" y="268" width="5.96" height="31" rx="2.98"/><rect class="cls-11" x="217.55" y="345.37" width="6.99" height="36.34" rx="3.5" transform="translate(153.65 -56.56) rotate(22.19)"/><rect class="cls-11" x="1465.92" y="311.32" width="5.74" height="29.82" rx="2.87" transform="translate(1909.2 -1112.45) rotate(94.5)"/><rect class="cls-11" x="1583.41" y="388.27" width="3" height="15.59" rx="1.5" transform="translate(-48.64 378.07) rotate(-13.4)"/><rect class="cls-11" x="1267.33" y="373.36" width="5.74" height="29.82" rx="2.87" transform="translate(948.85 -900.49) rotate(59)"/><rect class="cls-11" x="1060.64" y="365.18" width="5.54" height="28.78" rx="2.77" transform="translate(1186.2 -742.85) rotate(76.6)"/><rect class="cls-11" x="859.67" y="99.5" width="5.54" height="28.78" rx="2.77" transform="translate(1323.08 -624.08) rotate(114.45)"/><rect class="cls-11" x="1026.39" y="130.12" width="5.54" height="28.78" rx="2.77" transform="translate(1586.66 -732.56) rotate(114.45)"/><rect class="cls-11" x="1100.25" y="317.95" width="4.43" height="23.03" rx="2.21" transform="translate(2252.86 305.87) rotate(162.19)"/><rect class="cls-11" x="496.24" y="439.71" width="7.07" height="36.76" rx="3.54"/><rect class="cls-11" x="558.79" y="446.41" width="7.07" height="36.76" rx="3.54" transform="matrix(0.99, 0.16, -0.16, 0.99, 81.44, -83.83)"/><rect class="cls-11" x="322.01" y="382.61" width="7.07" height="36.76" rx="3.54" transform="translate(-86.86 90.04) rotate(-13.91)"/><rect class="cls-12" x="1031.67" y="164.6" width="4.43" height="23.03" rx="2.21" transform="translate(1904.3 -408.94) rotate(136.43)"/><rect class="cls-12" x="435.23" y="345.86" width="7.07" height="36.76" rx="3.54"/><rect class="cls-12" x="694.85" y="210.08" width="4.2" height="21.85" rx="2.1" transform="translate(101.75 -203.64) rotate(17.91)"/><rect class="cls-12" x="194.87" y="196.34" width="5.96" height="31" rx="2.98" transform="translate(46.44 -35.34) rotate(11.55)"/><rect class="cls-12" x="125.8" y="317.25" width="6.99" height="36.34" rx="3.5" transform="translate(106.33 -23.32) rotate(17.42)"/><rect class="cls-12" x="1001.49" y="371.27" width="5.54" height="28.78" rx="2.77" transform="matrix(0.02, 1, -1, 0.02, 1365.7, -627.57)"/><rect class="cls-12" x="1441.5" y="328.99" width="4.5" height="23.37" rx="2.25" transform="translate(2109.72 -984.83) rotate(103.4)"/><rect class="cls-12" x="1129.44" y="169.24" width="5.54" height="28.78" rx="2.77" transform="translate(2054.11 -498.8) rotate(134.28)"/><rect class="cls-12" x="1096.16" y="265.15" width="4.43" height="23.03" rx="2.21" transform="translate(1622.05 -727.7) rotate(103.4)"/><rect class="cls-12" x="1174.1" y="230.3" width="4.43" height="23.03" rx="2.21" transform="translate(2295.27 -194.2) rotate(147.09)"/><rect class="cls-12" x="1118.9" y="239.47" width="4.43" height="23.03" rx="2.21" transform="translate(2197.26 -151.28) rotate(146.89)"/><path class="cls-4" d="M1466.3,360.54S1463,375,1445.86,368.3s-8.49-10.66-8.49-10.66-1.28-5.41-10.28-5.54-2.25,11.44-2.25,11.44c5.78,8,29.57,18.13,47.25,16.94C1477.23,379,1485.26,366.22,1466.3,360.54Z"/><path class="cls-5" d="M1421.24,338.83l42.81,21.71s0,9.42-11.25,7.5-19.93-9.87-13.82-10.4,3.49,2.68,6.88,4.29a7.18,7.18,0,0,0,6,.32L1419.6,345Z"/><path class="cls-13" d="M1253.19,256.16s6.45,40.2-9,61.41c0,0,28.28-.56,39.21-20.21C1288.55,276.66,1280.84,268.68,1253.19,256.16Z"/><path class="cls-14" d="M1275.69,276.66l-12.21,36.41s16.07-13.26,18.64-18.2S1284.05,276.25,1275.69,276.66Z"/><path class="cls-9" d="M1531.11,331.71l-4.06,28.83s-7.31,1.16-12-2.9-12.42-9.87-11.78-4.08,2.58,6.25,18.65,12.77l16.07,6.53s8.83-32.6,7-36.87S1531.11,331.71,1531.11,331.71Z"/><path class="cls-4" d="M1494.09,319.45l33,45.59s-3.39-4.17-16.48-18.75a227.77,227.77,0,0,1-21.84-28.72S1488.83,312.17,1494.09,319.45Z"/><path class="cls-15" d="M1285.66,502.39c53,9.65,322.07-38.57,377-51.1s86.79-30.86,111.22-46.45c-3.27-1.23-10,1.12-10,1.12s-8.73-13.82-15.75-20.67c-2.1-1.25-2.86-.22-6.64-1.5-1.13-.39-2.36-.78-3.64-1.18-3.17,1.46-7,3.13-11.57,5-28,11.57-180.33,77.15-404,77.15H17.76c-7.92,25.34-1.11,139.77,2.43,157.5,3.86,19.28,55.29,10.28,55.29,10.28l1141.71,10.29,3-.22c2.75-29.26,7.55-79,9.56-91.07C1232.62,534.21,1224.91,541,1285.66,502.39Z"/><path class="cls-5" d="M1773.91,404.84c-24.43,15.59-56.25,33.91-111.22,46.45s-324,60.75-377,51.1c-60.75,38.57-53,31.82-55.93,49.18-2,12.06-6.81,61.81-9.56,91.07,155.92-11.5,416-23.47,589.74-109.07C1803.89,495.57,1785.48,426.7,1773.91,404.84Z"/><path class="cls-16" d="M8.62,439.71h7.32c-5.84-34,14.22-156.21,14.22-156.21H20.65c0,.42,0,.64,0,.64S-.38,378,8.62,439.71Z"/><path class="cls-5" d="M1042.34,292.5c-.65-32.79-107.36-93.86-158.15-131.79s-31.5-86.14-25.71-113.14c0,0-30.86-30.86-56.57-11.57,9,18-18,92.57-3.86,115.71l-1.12,1.2a13.46,13.46,0,0,0,8.83-2.48C818.62,180,962,276.43,974.84,287.36c12.1,12.1,22,20.41,3.21,39.21-29.57,30.22-153.64,27-243.64,61.72-51.34,19.55-106.76,58.81-130.36,76.5h102.1c61.74-43.58,151.78-43.31,243-66.86C1046.19,372.86,1043,325.29,1042.34,292.5Z"/></svg>