<svg id="sushi" xmlns="http://www.w3.org/2000/svg" viewBox="0 0 1820.84 686.57"><defs><style>.cls-1{opacity:0.05;}.cls-2{fill:#f2f2f2;}.cls-3{fill:#e5e5e5;}.cls-4{fill:#c00;}.cls-5{fill:#ededed;}.cls-6{fill:#dbdbdb;}.cls-7{fill:#fff;}.cls-7,.cls-8{stroke:#000;stroke-miterlimit:10;}.cls-11,.cls-8{fill:none;}.cls-9{fill:#ffc;}.cls-10{fill:#fc9;}.cls-12{fill:#693;}.cls-13{fill:#c33;}</style></defs><title>prod-9</title><ellipse class="cls-1" cx="878.52" cy="632.64" rx="853.88" ry="19.21"/><path class="cls-2" d="M1285.66,502.39c53,9.65,322.07-38.57,377-51.1s86.79-30.86,111.22-46.45c-3.27-1.23-10,1.12-10,1.12s-8.73-13.82-15.75-20.67c-2.1-1.25-2.86-.22-6.64-1.5-1.13-.39-2.36-.78-3.64-1.18-3.17,1.46-7,3.13-11.57,5-28,11.57-180.33,77.15-404,77.15H17.76c-7.92,25.34-1.11,139.77,2.43,157.5,3.86,19.28,55.29,10.28,55.29,10.28l1141.71,10.29,3-.22c2.75-29.26,7.55-79,9.56-91.07C1232.62,534.21,1224.91,541,1285.66,502.39Z"/><path class="cls-3" d="M1773.91,404.84c-24.43,15.59-56.25,33.91-111.22,46.45s-324,60.75-377,51.1c-60.75,38.57-53,31.82-55.93,49.18-2,12.06-6.81,61.81-9.56,91.07,155.92-11.5,416-23.47,589.74-109.07C1803.89,495.57,1785.48,426.7,1773.91,404.84Z"/><path class="cls-4" d="M8.62,439.71h7.32c-5.84-34,14.22-156.21,14.22-156.21H20.65c0,.42,0,.64,0,.64S-.38,378,8.62,439.71Z"/><path class="cls-5" d="M25.86,221a60.42,60.42,0,0,0,3.33,6.57C21.56,262,20.73,280,20.65,283.5h9.51S10.1,405.75,15.94,439.71h.4s-.09.4-.19,1.09c.06.31.12.62.19.91H16c-.42,3.7-.64,11.86,4.16,18.58-.93.72-1.74,2.27-2.43,4.5H292.55C285.3,298,95.42,244.91,25.86,221Z"/><path class="cls-5" d="M1393.34,279C1221.05,218.29,858.48,47.57,858.48,47.57c-5.79,27-25.07,75.22,25.71,113.14s157.5,99,158.15,131.79,3.85,80.36-93.22,105.43c-91.19,23.55-181.23,23.28-243,66.86H1322.3c223.71,0,376.07-65.58,404-77.15,4.6-1.9,8.4-3.57,11.57-5C1686.36,366.62,1570.12,356.79,1393.34,279Z"/><path class="cls-6" d="M979.34,329.46c17-16.82,11.89-28.6-4.5-42.1C962,276.43,818.62,180,805.76,150.43a13.46,13.46,0,0,1-8.83,2.48C774.37,177,758,203,756.76,210.57q-7.29.18-14.72.56c19.19,6,39.22,12.49,53.44,17.73C820.55,243.64,952.34,314,979.34,329.46Z"/><path class="cls-3" d="M1042.34,292.5c-.65-32.79-107.36-93.86-158.15-131.79s-31.5-86.14-25.71-113.14c0,0-30.86-30.86-56.57-11.57,9,18-18,92.57-3.86,115.71l-1.12,1.2a13.46,13.46,0,0,0,8.83-2.48C818.62,180,962,276.43,974.84,287.36c12.1,12.1,22,20.41,3.21,39.21-29.57,30.22-153.64,27-243.64,61.72-51.34,19.55-106.76,58.81-130.36,76.5h102.1c61.74-43.58,151.78-43.31,243-66.86C1046.19,372.86,1043,325.29,1042.34,292.5Z"/><path class="cls-5" d="M627.05,312.43c-190.93,44.36-283.5,30.46-435.86-28.93a391.22,391.22,0,0,0-41.47-13.35c69.72,36.54,138.52,95.5,142.83,194.64h311.5c23.6-17.69,79-57,130.36-76.5,27.53-10.62,58.24-17.69,88.47-23.25C777.69,341.71,693,304.35,627.05,312.43Z"/><path class="cls-5" d="M980.91,321.37c-1.71,1.54-3.71,3.24-6.07,5.2-27-15.43-154.29-82.93-179.36-97.71-14.22-5.24-34.25-11.74-53.44-17.73-162.26,8.34-367.35,87.37-674.28-74.2-41.48,7.21-56,51.54-41.9,84.07,28.23,9.7,76.26,24.2,123.86,49.15a391.22,391.22,0,0,1,41.47,13.35c152.36,59.39,244.93,73.29,435.86,28.93C693,304.35,777.69,341.71,822.88,365c68.59-12.63,134.64-17.5,155.17-38.47A6.85,6.85,0,0,0,980.91,321.37Z"/><path class="cls-7" d="M126.26,171s-25.71-14.14-30.85,5.14,0,27.72,7.71,42.15,19.93,13.78,19.93,13.78a15.2,15.2,0,0,0,9,15.15c10.29,4.78,15.69,12.49,21.66,12.49s17.55,8.66,19.48,10.44,9.72,1.85,15.43,8.21,14.79,3.21,19.29,5.14,7.07,7.71,14.78,8.36,11.16,13.93,22.3,11.47,17.56-3.35,20.13.3,26.36,17.8,33.43,4.3,3.43-36.11-6-57S274,216.55,267.19,214.8,146.23,175.85,126.26,171Z"/><path class="cls-7" d="M89,247.22s-7.72,3.49-9,11.85-1.29,20.57,4.5,21.22,9,6.42,14.14,3.21,3.86-1.29,7.07,0,6.43,1.29,14.15,1,12.21-1.25,21.21.17,17.36,8.5,20.57,5.93,6.84-.1,10.93-2.57l4.09-2.47S94.76,242.55,89,247.22Z"/><path d="M215.84,314s-10.5.35-13.08,4.85-13.5-1.29-17.35,3.85-10.29-8.7-21.86-4.35-11,1.54-13.83,5.52-11.24,5.91-13.81,13.62.9,11.57,17.8,19.29,94,22.29,105,22.5,29.15,4.5,33.86,9.64,6,6.43,13.07,10.28,19.93,9,24.43,14.79,14.14,12.21,18.64,19.93,14.15,18.64,18,27,3.86,10.93,3.86,10.93-12.21-15.43-16.71-22.5-10.29-22.5-25.72-31.5-17.67-7.72-25.87-14.15S287.29,384.9,272,384c0,0,23.73,50.7,20.3,76.66,0,0-135.21-21.61-148.07-33.18s-19.74-15.43-16.3-28.29,11.8-37.6,11.8-37.6l7.08-3.54-13.5-7.71s-14.15,51.43-13.5,57.21,12.85,16.07,12.85,16.07S116.62,415.29,116,405s16.71-62.11,16.71-62.11,4.82-13.43,13.5-18.73S157.6,320,160,318.05s13.83-5.46,15.91-3.37,8.36,6.27,8.84,6.11,8.68-.65,11.58-1.77,9-3.18,10-5.37,4.66-3,6.91-2.51S219.1,312.22,215.84,314Z"/><path class="cls-8" d="M125.19,466.5s-5.39-9.43-9.23-10.07-7-1.5-9.41-4.29-7.5-6.43-9.86-6.43-3.43-1.07-8.78-2.78-2.57,3.64-7.5,0-7.29-3-9.22-1.5-6-3.22-14.35,1.71c0,0-10.29,3.65-11.36,7.72s-3.22,13.93-3.22,13.93H39.91s-.35-13.29,3.64-15,9.21-7.93,15.21-10.08,5.79-1.28,9-1.28a18.29,18.29,0,0,0,7.29-1.5c2.36-.86,2.78,1.71,7.5,2.78s7.29,1.5,10.07,2.36,4.72,1.5,9,3.22,3.86,4.32,7.5,6.34,2.57,2.23,5.57,2.66,4.5.85,6.86,3.64S128,466.5,128,466.5Z"/><path d="M350,239.83s-8.57-2.62-10.29,1.24-1.07,9.64-2.57,13.5-11.57,40.5-12.43,51-1.5,16.72,26.79,33.86,78.86,45.86,120.43,55.28,60.85,8.79,69.21,6.43,17.14,6.86,22.93-11.35,20.36-82.08,20.36-82.08-14.57-15.85-21.65-21.42-5.57-7.08-11.14-6.43-5.57,2.78-7.07-.65a19,19,0,0,0-5.36-7.28c-2.35-2.14-.43-7.72-5.35-7.93s-4.29,4.29-6.22.21-5.57-2.57-5.57-2.57-1.5-4.93-4.93-6-.43-2.67-4.71-4.66-4.29-1.12-10.29-.91-6,2-10.71.91,3.85.46-6.43-3.76-4.07-1-9.64-1.22-5.79.64-7.93,0-5.36-3.64-7.07-3-7.72-1.29-9.86-.86-2.57.22-9.64-1.71-5.15-1.22-10.5-1.47-5.79-.61-7.08,0-3.64,1-9,1-9.21-2.36-10.71-2.36-32.79-1.5-39.43,0-9.64.65-9.64.65,10.28,1.5,13.93.64,16.93-.43,18.43-.43-3.65,2.36-13.08,2.14-12-1.28-16.07,1.07-12.43,5.36-13.93,6.86,3.43,1.72,5.79-.43,9-5.78,12-5.78,13.07-.86,19.29-.43,7.92-.43,11.78-1.07,12.64.43,18.64.64,9.22,1.29,11.79.43,6.43-3,15.43-.64,10.28,4.71,14.14,4.28,9.43.3,12.22,1.65,4.28,1.78,6.42.92,2.58,0,4.29.43S482.62,248,485,251s6.86,1.66,8.36,1.66,11.35.43,13.71,0,4.71-.85,5.36,2.79,1.07-1.07,4.28,4.28,1.72,5.79,4.72,5.58,6.85,3.21,9.21,2.35,4.93-.21,6.86,4.93,3.86,3,4.28,6,6.43,6.22,9.86,5.79,5.57.64,6.43,4.5.43,5.35,2.57,6.64,6.22,1.29,9.43,3.43,12,8.09,11.36,12.08-3.43,7.2-5.36,7.85-43.29,9.21-83.14-1.5-146.79-55.07-148.72-60.65-2.35-7.28-2.35-7.28l-1.29.21s-1.5-7.07.64-7.71S350,239.83,350,239.83Z"/><path class="cls-8" d="M365.41,279s-10.72,1.5-12.22,0-2.35-.43,1.07,3.21,4.93,5.36,3.22,4.93-6.22-3.85-7.5-6.43-4.93-2.37-4.93-2.37-3.43,20-4.29,22.09-4.71,3.86,4.08,14.36S425,368.57,425,368.57s3.64,3.15-8.36-1.1-67.5-29.33-86.36-59.33c0,0-2.35,0,0-7.71s8.58-29.79,9-32.57,1.5-3.65,4.5-1.93S367.9,278.7,365.41,279Z"/><path class="cls-8" d="M547.76,337.29c.56.38,13.08,1.28,14.58,2.35s3,.22,2.14,4.29-2.57,12-3.43,16.5-.21,7.86,0,7,7.29-18.61,7.93-24.4,1.71-7.28,3-10.28-.22-4.93-3.43-4.29S545,335.36,547.76,337.29Z"/><path class="cls-8" d="M489.05,466.93s8.45-12.22,11.73-16.5,7.56-4.5,16.34-5.36,18.64-5.36,25.93-6,63.51-1.91,76.5,1.72,14.85,2.36,14.85,2.36.79-1.94-2.42-2.58-26.57-7.28-52.72-6.21-46.07,3.43-47.14,3.43-7.28,3.42-11.57,3.64-7.07,1.5-13.5,1.5-12.64,10.28-12.64,10.28l-9.86,13.72S484.55,471.21,489.05,466.93Z"/><path d="M812.41,366.43s-5.57-3.22-7.72-8.36-3-6.43-8.14-10.28-5.36-13.29-15-16.72-15-7.07-18.21-5.78-17.79,14.57-22.5,18.85-26.36,54.22-26.36,54.22-12.86,11.35-19.72,8.14-10.07-5.14-10.07-5.14,2.15-31.07,9.43-40.93,25.5-38.36,29.79-43.07S734.41,306,734.41,306s-4.07-7.5-17.36-11.36-25.5-12.64-36.86-10.5-22.93,1.29-35.35-2.14-21.43-3-28.93-7.5-18.65-9.21-21.43-7.71-4.07,6.85.86,15,23.78,33.85,23.78,33.85-.86,5.36,7.29,8.36,5.78,3.64,10.71,5.46,4.07,2.47,3.43,5.25,1.93,7.08-.64,8.58-3,.64-2.79,3.64.86,3.64-1.07,8.36,2.36,6,1.5,9.75-.21,7.39,3.21,8,3.43,4.07,5.58,6.22,12.64,9.21,18.42,10.07,5.36,1.5,9.43,3.64,9.43,5.57,9.43,5.57,3,3-3.86,0S648.91,384.64,647,383.79s-.43-4.29-6.43-7.93-6.34-7.5-6.06-10.82-1.87-5.25-2.08-7.83,1.37-8.14,2.08-11.57,4.35-5.28,4.35-8.86-1.2-3.78-4.35-5.07-11.3.65-15.58-8.57-8.93-13.5-14.86-21.64-14.93-24.43-14.93-25.93,1.29-9.21,4.07-10.71,15.86,5.29,15.86,5.29,5.79,3.06,16.07,5,20.57,5.36,24.43,5.36,38.57,1.71,38.57,1.71,16,4,21,7.72,16.93,4.5,21,8.57,12,5.57,13.5,5.36,3.22,4.5,6.43,7.71,10.07,8.57,16.07,9.86,6.22,3,12.43,4.71,12,5.79,14.14,11.57,2.57,5.58,5.79,9,7.16,4.08,7.07,6.86-.86,4.5,4.07,7.29S814.71,368.05,812.41,366.43Z"/><path class="cls-8" d="M943.34,400.71s-11.79,7.72-14.58,12.86-5.35,11.57-12,17.14-29.35,35.58-29.35,35.58l-2.36-1.5s38.57-43.08,40.07-48.22S940.76,400,940.76,400,943.76,397.71,943.34,400.71Z"/><path class="cls-8" d="M1194.69,467.36a10.21,10.21,0,0,0-4.5-10.07c-5.78-4.08-93-54.65-93-54.65s-7.28.14-11.78-3.47-26.15-24-37.29-22.24-13.93,2.14-21,8.14-6.64,17.57-16.93,21.64-13.5,7.08-14.57,9.65l-1.07,2.57a76.94,76.94,0,0,1-7.5-2.36c-2.57-1.07-9.43-2.14-12,3.22s-.21,8.78,1.29,11.78,6,5.57,6,5.57l-10.08,12.43s-7.92,8.79-8.78,15.22-5.14.21-2.79-4.72,17.57-23.14,17.57-23.14.22-.47-3.21-4.2-3.86-14.23-1.07-16.8,15.64-2.57,18.64-1.07,5.14-6.22,10.5-8.79,17.14-14.78,20.36-20.78,12.43-11.79,20.36-10.93,11.78.43,16.28,3.64,24.43,16.71,24.43,16.71,7.29,4.72,13.71,6.43,29.79,16.07,29.79,16.07l55.29,33.65S1201.34,457.29,1194.69,467.36Z"/><path class="cls-7" d="M1404.91,458.36s18-3.22,21.85-6.43,9.65-8.36,15.43-12.22a80.55,80.55,0,0,0,12.86-10.28c3.21-3.22,3.86-5.48,9-8.53s7.07-5.61,8.36-7.54a39.44,39.44,0,0,1,7.71-8.52c3.22-2.41,6.43-2.49,8.36-5.67s10.93-13.87,14.78-16.56,11.78-8.34,11.78-8.34,5.58-6.12,11.37-9.23-.65-11.47-5.79-13.4-45-20.57-58.5-18.64-45,1.29-60.43,11.57-58.5,37.15-63.64,51-12.86,42.18-12.86,55.68,5.15,4.5-2.89,13.5S1401.69,475.71,1404.91,458.36Z"/><path class="cls-7" d="M1715.82,392s.87-3.69-8.13-5-12.21-6.43-20.57-7.07-30.21-8.74-41.14-5.66a145.48,145.48,0,0,0-22.5,8.34c-3.86,1.82-10.29-.75-24.43,6.32s-31.89,28.92-30.21,38.57-.11,15.43-.11,15.43S1698.87,414.33,1715.82,392Z"/><path d="M1124.62,226.29s-8.36,3.21-13.5,0-54.64-30.86-54.64-30.86-9.31-3.22-14-9-2.74-10.93-4.66-16.07,2.26-9.65,4.66-12.86.17-7.07,0-9.64,6.91-6.43,6.91-6.43l3.89-4.5s-5.18,8.36-5.18,13.5,1.29,6.43-2.57,11.57-5.24,9.79,0,20.32,15.43,15,24.43,8.61,40.28-28.61,40.28-28.61l70.37,30.79a67.23,67.23,0,0,0-24.51,15.18c-10.93,10.92-30.21,19.28-39.21,14.14s-43.07-25.07-43.07-25.07V193.5l-7.72,3.21S1103.41,221.79,1124.62,226.29Z"/><path d="M1252.55,264.64S1239.05,250,1229.41,251s-21.86-16-27.65-11-13.5,3.78-16.71,7.27-16.71-1.11-23.14,3.76-12.22-.27-18,8.73-9.65,9-12.22,14.79-7.07,14.79-5.14,21.86.64,18,4.5,21.21S1142,339.43,1142,339.43s4.5,7.07,9.64,9.64,2.57,10.29,10.29,10.93,10.28,5.94,21.85,7.47,11.58,10,22.5,6.1,20.58-8.43,25.08-12.28,13.5-3.86,21.21-10.93,17.36-17.5,17.36-17.5,3.85-6.29,3.85-12.72,5.79-4.15,4.5-13.32,7.45-15,.19-21.39-15.61-15.28-15.61-15.28l-3.86-5.51-7.72-8.46s19.93,10.91,23.15,14,16.71,8.21,23.78,14S1313,292.5,1318.12,297s10.29,4.2,10.29,9.82,1.28,26.82-14.79,42.25-31.5,21.47-44.36,25.2-18,.77-23.78,0-7.07-1.41-4.5-4-6.23,3.36-13.72,3.28-3.64,0,6,2.54c0,0,12,8.18,21.22,3.82l9.25-4.36a41.46,41.46,0,0,1-31.11,7c-18-3.32-23.78-4-23.78-4s-12.22-4.35-22.5-5.07-12.22-8-19.93-8.53-22.5-19.83-25.72-21.11-2.86-16.72-14.61-24.43c0-19.93-5.61-37.29,0-41.14s1.11-8.79,9.47-13.72,10.93-17.3,38.57-21a24.41,24.41,0,0,0,18-3.69c9-5.95,26.21,3.89,29.91,7.27S1245.48,247.07,1252.55,264.64Z"/><path class="cls-7" d="M973.55,222.41s6.43.66,12.21-12.84,8.36-14.14,12.86-22.5,1.93-9.64,6.43-16.07,6.43-15.43,5.14-20.57-5.39-9-18.12-16.72-20.45-10.28-25.59-15.42-18-14.79-31.5-21.22-25.07-15.43-37.93-22.5S872.62,63.64,869.41,63s-5.79,2.57-9,21.86-3.77,18.58-8.64,28.58-4.86,13.2-4.86,13.2S935,214.68,973.55,222.41Z"/><path class="cls-9" d="M135.91,185.14s-11.29,15.43-20,18-12.2,4.82-12.2,4.82-2.57-14.78,6.11-19.28S135.26,178.71,135.91,185.14Z"/><path class="cls-9" d="M170.3,188.68s-15.77-3.22-20.58-1.61-17.35,15.11-17.35,15.11,15.69,7.71,21.34,5.78S170.3,188.68,170.3,188.68Z"/><path class="cls-9" d="M194.09,195.08c1-.11,17.35,8.06,17.35,8.06l-13.65,22.18-26.2-11.89S188.84,195.68,194.09,195.08Z"/><path class="cls-9" d="M250.66,214.07a38.4,38.4,0,0,0-17-3.87c-9,.34-12.21,3.91-15.11,10.8s-3.85,10.11-3.85,10.11-1,1.77,9,5.87,19.26,2.16,19.59-1.37S250.66,214.07,250.66,214.07Z"/><path class="cls-9" d="M275.73,231.11c5.12,6.12,9.32,11.27,3.86,15.76a46.79,46.79,0,0,0-10.93,13.81c-1,2.25-5.79,5.78-12.86,0s-9-6.41-5.14-13.81,7.71-11.58,10-15.76S269.94,224.19,275.73,231.11Z"/><path class="cls-9" d="M289.23,265.05s-15.43,10.41-16.07,13.63,3.21,6.75,4.82,10,6.43,6.75,6.43,6.75,5.46-4.82,6.43-6.1,3.85-2.71,4.82-9.07S296.62,265.56,289.23,265.05Z"/><path class="cls-10" d="M103.12,218.29s6.43-4.22,9.64-3.25,9.65,6,9.65,6-3.64,10.64-5.13,10.07S108.44,228.55,103.12,218.29Z"/><path class="cls-10" d="M138.16,231.09s-7.21-1.91-10.2-2.23a13.89,13.89,0,0,0-4.27,0l7.23-14c7.88-1.46,15.59,1.15,14.63,6.11S138.16,231.09,138.16,231.09Z"/><path class="cls-10" d="M145.63,234s1.14,2.1,8.08,3,7.59-.13,13,2.3S179,245.36,179,245.36a18.44,18.44,0,0,1,1.61-8.38c1.92-3.94,2.39-10.46-4-10.09s-9.16-2.37-12.9-3.9-4.69-3-6,0-2.57,5.87-6.42,6.19S142.4,232.07,145.63,234Z"/><path class="cls-10" d="M193.12,239.83c4.94,2.67,6.11-5.66,10-2.85s4.5,5.7,8.35,6,8.36,2.89,6.11,6.11-9,4.5-10.29,6.43-6.08-4.61-9.47-4.56-8.85-1.21-11.74-4.11-5.79-5.72-2.57-7S190.23,238.26,193.12,239.83Z"/><path class="cls-10" d="M224.94,255.89c4.17,5.16,9.65-7.36,11.9,0s2.23,0,6.41,3.5,11.26,7.05,4.19,10.76a113.82,113.82,0,0,1-14.8,6.28s-8.74-6.83-14.49-7.43-6.71-6.71-6.71-6.71,9-.65,10-3.54S222.37,252.71,224.94,255.89Z"/><path class="cls-10" d="M262.87,280.22s-.32,1.34,8,5.85,4,8.36,2.17,9.32-10.81,6.17-10.21,6.46-10-5.81-12.21-8.71-6.77-5.78-7.41-7.71,3.78-4.31,7.2-5.21,4.39,1.86,7.28,0S262.55,276.94,262.87,280.22Z"/><path class="cls-10" d="M286.34,307.93c2.6,2.93,4.82,3.08,4.82,3.08s-7.25,5.55-10.38,1.39a72.09,72.09,0,0,1-4.91-7.36h8.72A7.83,7.83,0,0,0,286.34,307.93Z"/><ellipse class="cls-10" cx="169.94" cy="324.15" rx="6.7" ry="4.35"/><circle class="cls-10" cx="147.48" cy="338.46" r="6.11"/><circle class="cls-10" cx="162.07" cy="339.23" r="3.66"/><circle class="cls-10" cx="157.28" cy="350.52" r="5.95"/><circle class="cls-10" cx="169.26" cy="356.46" r="3.54"/><circle class="cls-10" cx="178.82" cy="345.7" r="7.23"/><circle class="cls-10" cx="193.88" cy="330.38" r="6.23"/><ellipse class="cls-10" cx="214.01" cy="325.28" rx="6.43" ry="5.47"/><circle class="cls-10" cx="230.67" cy="338.04" r="7.66"/><circle class="cls-10" cx="204.03" cy="344.28" r="6.24"/><circle class="cls-10" cx="197.77" cy="359.19" r="6.26"/><circle class="cls-10" cx="221.37" cy="355.62" r="5.1"/><ellipse class="cls-10" cx="216.91" cy="369.36" rx="2.89" ry="1.89"/><circle class="cls-10" cx="239.92" cy="366.47" r="7.28"/><circle class="cls-10" cx="258.35" cy="371.63" r="4.16"/><circle class="cls-10" cx="255.15" cy="358.83" r="3.2"/><circle class="cls-10" cx="243.52" cy="348.08" r="5.19"/><circle class="cls-11" cx="290.34" cy="348.6" r="4.33"/><circle class="cls-11" cx="305.22" cy="347.54" r="2.97"/><circle class="cls-11" cx="301.07" cy="362.52" r="2.52"/><path class="cls-9" d="M278.62,391.43a43.35,43.35,0,0,0,4.89,3.61c2.18,1.28,5.69-3.86,6.83,0s3.07,5.55-1.75,7.59a62.25,62.25,0,0,0-6.44,3S274.76,393.62,278.62,391.43Z"/><path class="cls-9" d="M294.66,405.64c2.93,1.93,5.22,1.93,6.41,0s4.88,2.57,1.18,8-7,1.93-9.7,2.89-6.54.25-6.54.25-4.5-6,0-5.69S294.66,405.64,294.66,405.64Z"/><path class="cls-9" d="M318.8,415.61c-2.57,1.63-3.54,10.28-7.71,8.35s-9.43-1.93-10,.32.69,3.22,5.52,6.11,16.69,8.36,17.82,11.57,8.21,1.93,9.5-2.25,3.53-11.57-2.57-13.82-9.65-3.85-9-7.39S322.34,413.36,318.8,415.61Z"/><path class="cls-9" d="M308.2,448.39s-3.85-4.82-5.95,0-2.63,9-6.15,9.32-3.07,7.08-1.44,7.08h20.28S315.42,445.15,308.2,448.39Z"/><path class="cls-9" d="M333.59,453.21c2.39,3.59,8,1.93,7.39-4.82s2.25-7.32,3.53-4.62,10.93,13.94,10,21H335.39l-6.17-13.16S330.37,448.39,333.59,453.21Z"/><circle class="cls-11" cx="415.07" cy="429.27" r="6.59"/><circle class="cls-11" cx="435.72" cy="441.5" r="4.75"/><circle class="cls-11" cx="415.26" cy="447.65" r="3.88"/><circle class="cls-12" cx="354.06" cy="254.7" r="1.19"/><ellipse class="cls-12" cx="372" cy="256.56" rx="3.05" ry="1.86"/><circle class="cls-12" cx="365.34" cy="262.86" r="2.18"/><circle class="cls-12" cx="363.12" cy="247.57" r="2.22"/><ellipse class="cls-12" cx="374.68" cy="247.57" rx="2.68" ry="2.22"/><circle class="cls-12" cx="388.84" cy="247.57" r="2.22"/><circle class="cls-12" cx="394.37" cy="263.99" r="3.31"/><circle class="cls-12" cx="381.39" cy="269.08" r="4.04"/><circle class="cls-12" cx="407.94" cy="274.65" r="5.57"/><circle class="cls-12" cx="407.3" cy="248.58" r="4.93"/><circle class="cls-12" cx="404.59" cy="260.65" r="2.22"/><circle class="cls-12" cx="418.98" cy="254.71" r="3.72"/><ellipse class="cls-12" cx="420.92" cy="270.21" rx="1.78" ry="2.91"/><circle class="cls-12" cx="436.44" cy="281.89" r="5.46"/><circle class="cls-12" cx="420.25" cy="282.67" r="2.45"/><circle class="cls-12" cx="432.46" cy="259.94" r="4.05"/><circle class="cls-12" cx="430.02" cy="246.97" r="1.61"/><circle class="cls-12" cx="440.23" cy="251.65" r="1.86"/><circle class="cls-12" cx="452.99" cy="248.5" r="3.15"/><circle class="cls-12" cx="461.84" cy="256.73" r="3.22"/><circle class="cls-12" cx="452.99" cy="270.45" r="3.15"/><circle class="cls-12" cx="454.81" cy="280.07" r="1.82"/><circle class="cls-12" cx="448.84" cy="297.18" r="4.68"/><circle class="cls-12" cx="469.14" cy="285.98" r="4.08"/><ellipse class="cls-12" cx="477.85" cy="262.58" rx="6.7" ry="7.87"/><circle class="cls-12" cx="498.61" cy="259.23" r="3.34"/><ellipse class="cls-12" cx="501.85" cy="275.01" rx="4.66" ry="5.92"/><circle class="cls-12" cx="518.05" cy="273.65" r="3.5"/><circle class="cls-12" cx="483.64" cy="286.71" r="5.79"/><ellipse class="cls-12" cx="500.73" cy="293.14" rx="5.46" ry="6.43"/><ellipse class="cls-12" cx="485.27" cy="307.76" rx="4.15" ry="5.89"/><circle class="cls-12" cx="504.18" cy="307.37" r="2.33"/><circle class="cls-12" cx="524.59" cy="306.43" r="4.57"/><ellipse class="cls-12" cx="519.57" cy="288.16" rx="5.02" ry="4.34"/><circle class="cls-12" cx="535.3" cy="286.36" r="6.14"/><ellipse class="cls-12" cx="557.78" cy="303.75" rx="5.3" ry="4.18"/><ellipse class="cls-12" cx="568.41" cy="315.41" rx="3.07" ry="4.4"/><ellipse class="cls-12" cx="542.28" cy="311.9" rx="6.98" ry="5.47"/><path class="cls-9" d="M604.05,459.32s-10.21-6.43-19.64-2.57-2.68-1.63-19.07-3.23-21.86-10.55-14.15-12,42.11,0,42.11,0S610.62,453.86,604.05,459.32Z"/><path class="cls-9" d="M614.51,446.25s-1,5.16-6.42,1.4S603.91,437.68,614.51,446.25Z"/><path class="cls-9" d="M544.76,464.79c1.32,1.41-51.42,0-51.42,0s7.87-6.75,10.84-9.65,18.23-7.21,20.41-3.6,3.46,8.59,6.35,5.94S540.26,460,544.76,464.79Z"/><ellipse class="cls-9" cx="604.08" cy="283.29" rx="5.64" ry="3.07"/><path class="cls-9" d="M605.54,292.5s9-3.21,13.8,0,6.1,3.54,13.17,5.14a113.85,113.85,0,0,1,13.83,4.22s2.25,7.26-13.5,4.57-21.78-3.49-23.12-4.57S601.34,293.56,605.54,292.5Z"/><path class="cls-9" d="M618.69,286.71c5.79,0,4.5-5.46,0-5.78S610.34,286.71,618.69,286.71Z"/><path class="cls-9" d="M654.05,299.05c3-2.85,8.36,3.41,5.46,6S648.26,304.64,654.05,299.05Z"/><path class="cls-9" d="M618.17,307.76s11.22,1.18,16.32,3.25,6.7,4.87,9.6,6.36,7.39,7.92-5.15,7.27-15.07-2.33-16.38-7.27S613.78,309.19,618.17,307.76Z"/><path class="cls-9" d="M652.06,321.11a89,89,0,0,0,9.7,5.14c4.5,1.93,10.29,1.93,7.72,6.11s-9.21,2.25-13.28,0S647.17,326.89,652.06,321.11Z"/><path class="cls-9" d="M662.41,307.93c5.1,1,9.3,6.67,7.7,9.44s-9.63.72-11.56-1.15S647,305,662.41,307.93Z"/><path class="cls-9" d="M675.59,305c.94.18,4.51-1.08,8.35,4.66s4.65,14.57-2.89,9S670.85,304.1,675.59,305Z"/><path class="cls-9" d="M694.87,296.36c7.38-.54,15.75-2.33,23.14,2.69s14.6,8.88,14.6,8.88l-8.7,9.43s.21-.84-5.57-5.46,1.33-5.58-12.19-8.15S689.76,296.73,694.87,296.36Z"/><path class="cls-9" d="M706.15,319.8c6.63,1.35,3.83,5.25,6.4,4.89s1,5.52-3.2,10.13-6.12-4.39-9.34-5.36S698.65,318.29,706.15,319.8Z"/><path class="cls-9" d="M680,324.69c6.24,2.87,6.83,2.85,10.36,4.77s3.14,9.11-3.57,5.36-13.37-10.09-13.58-10.13S669.65,319.91,680,324.69Z"/><path class="cls-9" d="M702.91,336.13s-5.47-1.84-7.72,1.37-6.64,5.53,0,8.68l6.65,3.15S719.3,332.18,702.91,336.13Z"/><path class="cls-9" d="M675.26,338.46c8.44.63,9.89-1.6,11.54,2.25s1.64,5.87-1.57,7.27-4.5,3.42-8.36,0-2.91-3.83-6.76-5.55S670.45,338.11,675.26,338.46Z"/><path class="cls-9" d="M699.89,352.2,692.57,363a8.09,8.09,0,0,1-4.69-1.36c-2.65-1.61-1.44-5.15-1.08-7.72S695.91,347.29,699.89,352.2Z"/><path class="cls-9" d="M760.51,327.1s10.54-.42,16.33,7.72,8.54,12.27,11.32,13.52a18.36,18.36,0,0,1,5.71,4.59c1.29,1.28-4.18,6.43-12.53,0s-.68-8.25-13.65-13.28-15.28-8.26-15.28-8.26Z"/><path class="cls-9" d="M742,341.6s9.08.1,8.76,8.29-2.89,12-6.43,6.55A105,105,0,0,0,737,346.5Z"/><path class="cls-9" d="M735.34,353.23s7.37,3.24,1.64,5.75a28.69,28.69,0,0,0-9,6.06Z"/><path class="cls-9" d="M743.89,366.43c4.76,2,1.46,2.19,6.92,7.84l5.45,5.66-12.37,4.88s-5.63-.38-6.91-3.92,2.25-5.78,0-9S736.34,363.21,743.89,366.43Z"/><path class="cls-9" d="M754,363c-.6.2,1.93,2.47,4.18,6.33s2.25,2.51,4.5,4.95,7.4.86,7.4.86.64-3.58-4.5-5.82-5.15-2.77-6.43-4.27S764.13,359.54,754,363Z"/><circle class="cls-13" cx="1029.08" cy="417.78" r="5.38"/><circle class="cls-13" cx="1047.79" cy="423.06" r="5.28"/><circle class="cls-13" cx="1054.55" cy="441.64" r="4.18"/><circle class="cls-13" cx="1039" cy="439.75" r="4.54"/><ellipse class="cls-13" cx="1038.64" cy="458.04" rx="7.23" ry="6.11"/><ellipse class="cls-13" cx="1014.85" cy="461.41" rx="10.45" ry="3.37"/><circle class="cls-13" cx="1020.76" cy="436.94" r="5.91"/><circle class="cls-13" cx="1010.42" cy="443.2" r="3.45"/><circle class="cls-13" cx="1011.04" cy="424.41" r="6.63"/><circle class="cls-13" cx="1000.93" cy="433.99" r="2.95"/><ellipse class="cls-13" cx="984.19" cy="428.06" rx="9.61" ry="7.16"/><ellipse class="cls-13" cx="995.4" cy="450.62" rx="5.53" ry="7.42"/><circle class="cls-13" cx="983.67" cy="460.45" r="4.34"/><circle class="cls-11" cx="1085.17" cy="270.72" r="3.29"/><circle class="cls-11" cx="1023.71" cy="189.06" r="2.95"/><path class="cls-13" d="M908.94,114.75s10,6.43,14.47,8.36,11.25,5.46,11.25,5.46,1,10.61-2.25,16.39-10.54,15.75-10.54,15.75-5.21.33-6.18,0,1,.33,2.9,2.9,2.25-5.15-9.65-6.11-11.5-5.14-17.32-3.86-7.11,1-7.11,1,16.4-25.72,18.65-30.54a48.81,48.81,0,0,0,3.21-9.32s5,6.75,3.28,8.36S897.37,143,896.73,145.93s-7.07,6.43,6.11,6.43,14.46,5.14,18.64-1.93,8.1-20.57,7.26-21.54-1.48-1.6-8.23-3.85S908.94,116.68,908.94,114.75Z"/><path class="cls-13" d="M913.44,126.32c1,1,5.15,2.57,7.07,5.47s-1.6,14.46-3.53,16.07-9.64,0-11.25-1.61S913.44,126.32,913.44,126.32Z"/><path class="cls-13" d="M931.12,158.14c6.1-1.95,13.82,0,15.75,3.54s5.47,5.46,4.82,11.25-2.17,10.61-10.24,7.07-6.47-15.35-10.33-15.87S923.09,160.71,931.12,158.14Z"/><path class="cls-13" d="M956.84,161h5.46s-2.89,5.78,0,15.1,2.57,15.11-2.73,18.65-11.43,10-11.43,10-3.84-6.17-7-8.74-8.86-15.43-14.56-21.21-6-6.43-9.23-8.68,1.44-5.06,3.77-2.05,9.42,8.4,11,14.58S947.51,197,947.51,197a13.61,13.61,0,0,0,9.33-8c2.89-6.81,2.25-7.13,1-14.2A68.47,68.47,0,0,1,956.84,161Z"/><circle class="cls-13" cx="1060.01" cy="146.89" r="2.57"/><circle class="cls-13" cx="1056.73" cy="154.86" r="2.51"/><ellipse class="cls-13" cx="1049.5" cy="150.76" rx="1.19" ry="2.24"/><ellipse class="cls-13" cx="1052.46" cy="160.75" rx="1.77" ry="3.38"/><circle class="cls-13" cx="1059.32" cy="166.01" r="1.88"/><circle class="cls-13" cx="1048.44" cy="171.54" r="2.25"/><circle class="cls-13" cx="1043.44" cy="166.95" r="0.94"/><circle class="cls-13" cx="1051.96" cy="183.66" r="2.45"/><circle class="cls-13" cx="1058.97" cy="176.02" r="2.23"/><ellipse class="cls-13" cx="1059.67" cy="187.58" rx="0.35" ry="1.48"/><circle class="cls-13" cx="1066.2" cy="185.25" r="2.33"/><circle class="cls-13" cx="1074.81" cy="181.3" r="1.62"/><circle class="cls-13" cx="1070.86" cy="173.87" r="2.33"/><ellipse class="cls-13" cx="1063.23" cy="171.58" rx="0.64" ry="2.29"/><circle class="cls-13" cx="1066.06" cy="155.18" r="2.18"/><ellipse class="cls-13" cx="1071.87" cy="156.82" rx="1" ry="1.96"/><circle class="cls-13" cx="1077.69" cy="156.12" r="1.25"/><circle class="cls-13" cx="1067.75" cy="162.58" r="1.55"/><circle class="cls-13" cx="1073.34" cy="165.6" r="1.47"/><circle class="cls-13" cx="1080.82" cy="171.17" r="1.88"/><circle class="cls-13" cx="1089.81" cy="172.52" r="1.35"/><circle class="cls-13" cx="1086.31" cy="177.35" r="1.15"/><ellipse class="cls-13" cx="1097.3" cy="163.61" rx="1.29" ry="2.57"/><circle class="cls-13" cx="1096.93" cy="170.21" r="0.92"/><ellipse class="cls-13" cx="1086.81" cy="163.99" rx="1.65" ry="2.96"/><circle class="cls-13" cx="1080.82" cy="162.92" r="1.88"/><circle class="cls-13" cx="1087.65" cy="157.45" r="1.33"/><circle class="cls-13" cx="1066.87" cy="147.71" r="0.81"/><circle class="cls-13" cx="1072.1" cy="149.76" r="1.24"/><ellipse class="cls-11" cx="1086.93" cy="270.72" rx="4.22" ry="3.29"/><circle class="cls-11" cx="1194.53" cy="219.37" r="3.05"/><path class="cls-12" d="M1249,293.14s-10.28-4.18-20.25-3.53-8.67-3.54-20.25-10.61-14.14-8.2-17-8.28,21.39-9.72,28.69-5.54S1249.34,287.36,1249,293.14Z"/><path class="cls-10" d="M1181.84,270.72s-10,1.85-14.47,5.71S1165,268.23,1181.84,270.72Z"/><path class="cls-10" d="M1203.69,284.79s-15.43.32-21.85,5.14-14,14.78-16.51,18,.76,4.5-5.35,0l-6.11-4.5s3.54-14.47,12.54-18.64,12.53-5.55,17.35-6.15a16.85,16.85,0,0,0,7.72-2.85S1201.76,278,1203.69,284.79Z"/><path class="cls-10" d="M1212.37,293.14s-12.22-.3-17.84.17-6.43,5.62-13.9,11.08-11.33,9-12.62,11.25-2.57,5.47,8.36,9.65,11.25-.33,15.11-4.18,3.21-.65,9.32-2.25,8.36-1.93,11.57-4.18,2.66-4.82,7.76-1.61,8.31,8.68,13.13,7.07,0-3.81,6.43-9.3,7.4-10.95,7.4-10.95a55.24,55.24,0,0,0-12.22-.32C1229.09,300.21,1213.34,296.36,1212.37,293.14Z"/><path class="cls-10" d="M1226,327l-16.53,8s-3.86-4.11-8.68-4-10.93,0-10.93,0a14.88,14.88,0,0,1,10.61-6.62C1207.87,323.36,1222.29,322.2,1226,327Z"/><polygon class="cls-10" points="1509.05 373.57 1488.16 378.32 1492.98 361.29 1504.55 361.29 1509.05 373.57"/><path class="cls-10" d="M1505.84,355.82,1493,357.43,1480.76,342S1498.44,342.32,1505.84,355.82Z"/><path class="cls-10" d="M1473.05,354.86l-12.54,10-26.67-19.61s-2.58-.64,5.14-3.21S1456.55,336.32,1473.05,354.86Z"/><polygon class="cls-10" points="1474.66 366.75 1457.94 373.57 1461.48 391.82 1479.48 379.29 1474.66 366.75"/><path class="cls-10" d="M1445.41,369.8s-14.79,8.84-15.75,9.49-26.36-14.47-26.36-14.47,5.14-14.46,14.79-15.11S1445.41,369.8,1445.41,369.8Z"/><path class="cls-10" d="M1447,382.61s-8,4.39-10.92,9.21-6.11,15.11-6.11,15.11l8.52,1.32,14.74-14.5S1454.41,383.69,1447,382.61Z"/><path class="cls-10" d="M1419.37,393.43l-19,19s-1.61-6.1-13.82-14.14l-12.22-8s9-12.53,18.64-11.89S1419.37,393.43,1419.37,393.43Z"/><path class="cls-10" d="M1422.59,404.84s1.6,4.34,5.14,5.62,5.69,1.93,5.69,1.93a92.38,92.38,0,0,1-10.83,18.32c-6.75,8.68-9.33,12.22-9.33,12.22s-2.25-11.25-5.46-16.07-2.89-8,1.93-12.22S1422.59,404.84,1422.59,404.84Z"/><path class="cls-10" d="M1388.51,425.89l-11.57,20.57s-10.93-14.14-14.46-16.39,5.14-19.93,5.14-19.93Z"/><polygon class="cls-10" points="1394.94 437.14 1385.94 451.61 1402.01 457.71 1409.73 446.46 1394.94 437.14"/><path class="cls-10" d="M1369.23,454.82s-3.3-.64-7.6-7.39-8.47-2.57-9.44-1-1,7.72,0,11.25.65,5.15.65,5.15l20.56.78Z"/><path class="cls-10" d="M1343.19,447.43c1.13-7.16-4.5-10.29-8.68-7.07s-7.07,10.88-4.82,13.31S1341.26,459.64,1343.19,447.43Z"/><path class="cls-10" d="M1356.69,410.14c3.54-7.39,1.61-7.39-3.21-9.32s-5.47-2.72-7.72,1.37-5.14,10.2-5.14,10.2l12.54,4.18Z"/><path class="cls-9" d="M1611.91,389.57s4.82,6.75,3.21,11.25-1.61,10.93-3.21,14.14-7.4,1.61-7.4,1.61,9.76-16.42,5.47-23.46S1611.91,389.57,1611.91,389.57Z"/><polygon class="cls-9" points="1582.98 416.97 1595.84 428.3 1594.45 431.39 1582.98 432.96 1578.16 428.3 1582.98 416.97"/><polygon class="cls-9" points="1624.12 410.14 1631.51 419.46 1624.54 423.29 1617.69 412.39 1624.12 410.14"/><polygon class="cls-9" points="1637.3 402.19 1646.62 396.96 1649.84 402.84 1642.28 404.84 1649.84 414.32 1642.28 416.57 1636.01 404.84 1637.3 402.19"/><polygon class="cls-9" points="1666.87 395.35 1677.65 406.43 1669.12 408.25 1660.76 395.43 1666.87 395.35"/></svg>