<?xml version="1.0" encoding="utf-8"?>
<!-- Generator: Adobe Illustrator 25.0.0, SVG Export Plug-In . SVG Version: 6.00 Build 0)  -->
<svg version="1.1" id="bacon" xmlns="http://www.w3.org/2000/svg" xmlns:xlink="http://www.w3.org/1999/xlink" x="0px" y="0px"
	 viewBox="0 0 1820.8 686.6" style="enable-background:new 0 0 1820.8 686.6;" xml:space="preserve">
<style type="text/css">
	.st0{opacity:5.000000e-02;enable-background:new    ;}
	.st1{fill:#F2F2F2;}
	.st2{fill:#E5E5E5;}
	.st3{fill:#BF2626;}
</style>
<ellipse class="st0" cx="878.5" cy="632.6" rx="853.9" ry="19.2"/>
<path class="st1" d="M1285.7,502.4c53,9.7,322.1-38.6,377-51.1s86.8-30.9,111.2-46.5c-3.3-1.2-10,1.1-10,1.1s-8.7-13.8-15.8-20.7
	c-2.1-1.2-2.9-0.2-6.6-1.5c-1.1-0.4-2.4-0.8-3.6-1.2c-3.2,1.5-7,3.1-11.6,5c-28,11.6-180.3,77.1-404,77.1H17.8
	c-7.9,25.3-1.1,139.8,2.4,157.5c3.9,19.3,55.3,10.3,55.3,10.3l1141.7,10.3l3-0.2c2.8-29.3,7.6-79,9.6-91.1
	C1232.6,534.2,1224.9,541,1285.7,502.4z"/>
<path class="st2" d="M1773.9,404.8c-24.4,15.6-56.2,33.9-111.2,46.5s-324,60.8-377,51.1c-60.8,38.6-53,31.8-55.9,49.2
	c-2,12.1-6.8,61.8-9.6,91.1c155.9-11.5,416-23.5,589.7-109.1C1803.9,495.6,1785.5,426.7,1773.9,404.8z"/>
<path class="st3" d="M8.6,439.7h7.3c-5.8-34,14.2-156.2,14.2-156.2h-9.5c0,0.4,0,0.6,0,0.6S-0.4,378,8.6,439.7z"/>
<path class="st2" d="M979.3,329.5c17-16.8,11.9-28.6-4.5-42.1C962,276.4,818.6,180,805.8,150.4c-2.6,1.8-5.7,2.7-8.8,2.5
	C774.4,177,758,203,756.8,210.6c-4.9,0.1-9.8,0.3-14.7,0.6c19.2,6,39.2,12.5,53.4,17.7C820.5,243.6,952.3,314,979.3,329.5z"/>
<path class="st1" d="M1042.3,292.5c-0.7-32.8-107.4-93.9-158.2-131.8s-31.5-86.1-25.7-113.1c0,0-30.9-30.9-56.6-11.6
	c9,18-18,92.6-3.9,115.7l-1.1,1.2c3.1,0.2,6.3-0.6,8.8-2.5c12.9,29.6,156.2,126,169.1,136.9c12.1,12.1,22,20.4,3.2,39.2
	c-29.6,30.2-153.6,27-243.6,61.7c-51.3,19.5-106.8,58.8-130.4,76.5h102.1c61.7-43.6,151.8-43.3,243-66.9
	C1046.2,372.9,1043,325.3,1042.3,292.5z"/>
<g>
	<path d="M822.9,365c68.6-12.6,134.6-17.5,155.2-38.5c1.7-1.2,2.7-3.1,2.9-5.2c-1.7,1.5-3.7,3.2-6.1,5.2
		c-27-15.4-154.3-82.9-179.4-97.7c-14.2-5.2-34.2-11.7-53.4-17.7c-162.3,8.3-367.3,87.4-674.3-74.2c-41.5,7.2-56,51.5-41.9,84.1h0
		c1,2.3,2.1,4.4,3.3,6.6c-7.6,34.4-8.5,52.4-8.5,55.9h9.5c0,0-20.1,122.2-14.2,156.2h0.4c0,0-0.1,0.4-0.2,1.1
		c0.1,0.3,0.1,0.6,0.2,0.9H16c-0.4,3.7-0.6,11.9,4.2,18.6c-0.9,0.7-1.7,2.3-2.4,4.5h274.8H604c23.6-17.7,79-57,130.4-76.5
		C761.9,377.7,792.6,370.6,822.9,365"/>
	<path d="M1250.5,222.9c-55-23-113.5-48.6-168.2-72.9c-24-10.7-47.2-21.1-69-31c0.7,1.9,1.6,3.7,2.6,5.5c-1-1.8-1.9-3.7-2.6-5.6
		c-89-40.3-154.8-71.3-154.8-71.3c-5.8,27-25.1,75.2,25.7,113.1c39,29.1,110.9,71.8,142.5,105c0,0,0,0,0,0c4,4.1,7.6,8.5,10.8,13.3
		c0.4-0.2,0.9-0.4,1.3-0.6c-0.4,0.2-0.9,0.5-1.3,0.6c3.1,4.9,4.8,9.4,4.9,13.5c0.6,32.8,3.8,80.4-93.2,105.4
		c-91.2,23.5-181.2,23.3-243,66.9h616.2c223.7,0,376.1-65.6,404-77.2c4.6-1.9,8.4-3.6,11.6-5c-44.2-13.7-135.9-22.9-272.7-74.3v0
		c-6.9-2.6-13.9-5.3-21-8.1c-0.7,1.4-1.3,2.9-1.9,4.5c-0.3,0.7-0.5,1.4-0.7,2.1c0.2-0.7,0.5-1.4,0.7-2.1c0.6-1.6,1.2-3.1,1.9-4.5
		c-16.4-6.5-33.3-13.5-50.9-21.2c-8.2-2.9-16.7-6-25.7-9.3c3.7,10,7.7,20.2,7.7,27.3 M1375.3,296.9c0.1-7.1-3.9-17.2-7.6-27.3
		c-5.6-2.1-11.3-4.2-17.1-6.5c0,0,0,0,0,0c-4.9-1.9-10-3.8-15.1-5.8c-1.5,0.6-2.6,1.5-2.6,2.8c0-1.4,1.1-2.3,2.6-2.9l-5.4-2.1
		c0,0,0,0,0,0l-7-2.7c0,0,0,0,0,0c-22.9-9.1-47.3-19.1-72.5-29.6 M1318.8,252.5c0.7,0,1.4,0,2.1,0
		C1320.2,252.6,1319.5,252.5,1318.8,252.5c-3.7-0.1-8.4-0.4-13.6-0.6C1310.3,252.1,1315.1,252.4,1318.8,252.5z M1255.6,263.4
		C1255.6,263.4,1255.6,263.4,1255.6,263.4C1255.6,263.4,1255.6,263.4,1255.6,263.4C1255.6,263.4,1255.6,263.4,1255.6,263.4z
		 M1255.8,300.2L1255.8,300.2 M1463.8,312.7c0.5-1.5,1-3,1.4-4.4C1464.8,309.8,1464.3,311.3,1463.8,312.7z"/>
</g>
</svg>
