<svg id="blueberry" xmlns="http://www.w3.org/2000/svg" viewBox="0 0 1820.84 686.57"><defs><style>.cls-1{opacity:0.05;}.cls-2{fill:#c00;}.cls-3{fill:#d9d9d9;}.cls-4{fill:#f2f2f2;}.cls-5{fill:#e5e5e5;}.cls-6{fill:#474775;}.cls-7{fill:#336;}</style></defs><title>prod-3</title><ellipse class="cls-1" cx="878.52" cy="632.64" rx="853.88" ry="19.21"/><path class="cls-2" d="M8.62,439.71h7.32c-5.84-34,14.22-156.21,14.22-156.21H20.65c0,.42,0,.64,0,.64S-.38,378,8.62,439.71Z"/><path class="cls-3" d="M25.86,221a60.42,60.42,0,0,0,3.33,6.57C21.56,262,20.73,280,20.65,283.5h9.51S10.1,405.75,15.94,439.71h.4s-.09.4-.19,1.09c.06.31.12.62.19.91H16c-.42,3.7-.64,11.86,4.16,18.58-.93.72-1.74,2.27-2.43,4.5H292.55C285.3,298,95.42,244.91,25.86,221Z"/><path class="cls-3" d="M1393.34,279C1221.05,218.29,858.48,47.57,858.48,47.57c-5.79,27-25.07,75.22,25.71,113.14s157.5,99,158.15,131.79,3.85,80.36-93.22,105.43c-91.19,23.55-181.23,23.28-243,66.86H1322.3c223.71,0,376.07-65.58,404-77.15,4.6-1.9,8.4-3.57,11.57-5C1686.36,366.62,1570.12,356.79,1393.34,279Z"/><path class="cls-4" d="M979.34,329.46c17-16.82,11.89-28.6-4.5-42.1C962,276.43,818.62,180,805.76,150.43a13.46,13.46,0,0,1-8.83,2.48C774.37,177,758,203,756.76,210.57q-7.29.18-14.72.56c19.19,6,39.22,12.49,53.44,17.73C820.55,243.64,952.34,314,979.34,329.46Z"/><path class="cls-5" d="M1042.34,292.5c-.65-32.79-107.36-93.86-158.15-131.79s-31.5-86.14-25.71-113.14c0,0-30.86-30.86-56.57-11.57,9,18-18,92.57-3.86,115.71l-1.12,1.2a13.46,13.46,0,0,0,8.83-2.48C818.62,180,962,276.43,974.84,287.36c12.1,12.1,22,20.41,3.21,39.21-29.57,30.22-153.64,27-243.64,61.72-51.34,19.55-106.76,58.81-130.36,76.5h102.1c61.74-43.58,151.78-43.31,243-66.86C1046.19,372.86,1043,325.29,1042.34,292.5Z"/><path class="cls-3" d="M627.05,312.43c-190.93,44.36-283.5,30.46-435.86-28.93a391.22,391.22,0,0,0-41.47-13.35c69.72,36.54,138.52,95.5,142.83,194.64h311.5c23.6-17.69,79-57,130.36-76.5,27.53-10.62,58.24-17.69,88.47-23.25C777.69,341.71,693,304.35,627.05,312.43Z"/><path class="cls-3" d="M980.91,321.37c-1.71,1.54-3.71,3.24-6.07,5.2-27-15.43-154.29-82.93-179.36-97.71-14.22-5.24-34.25-11.74-53.44-17.73-162.26,8.34-367.35,87.37-674.28-74.2-41.48,7.21-56,51.54-41.9,84.07,28.23,9.7,76.26,24.2,123.86,49.15a391.22,391.22,0,0,1,41.47,13.35c152.36,59.39,244.93,73.29,435.86,28.93C693,304.35,777.69,341.71,822.88,365c68.59-12.63,134.64-17.5,155.17-38.47A6.85,6.85,0,0,0,980.91,321.37Z"/><g id="b_color" data-name="b color"><path class="cls-6" d="M1621.76,358.9s-7.28,10.1-27.21,6.89-35.6-6.43-45.44-14.15-21.42-17.78-21.42-17.78l-19.93-.43a36,36,0,0,0,16.29,9.21c9.86,2.36,22.25,13.45,30.68,17.53s25.65,17.63,53.31,15.16S1629.86,363.56,1621.76,358.9Z"/><path class="cls-6" d="M1420.34,388.29l26.44,1.65s3.77-13,6.34-7.33,4.11,15.32,15.88,19.18,37.24,9,46,9,23.37-9.55,9-20.85-14.63-25.26-2.89-19,31.44,20.82,27.94,33.86-36.08,60.59-93,8.52c0,0,2.18-5.17-4.81-2.41s-24.48,6.05-18.49-2.09-12.43-15.43-12.43-15.43S1413.25,387.84,1420.34,388.29Z"/><path class="cls-6" d="M1384.34,297s0,.64,7.07-2.57,23.47,1.95,41.36,5.14,30,5.21,28.07,11.39l-1.93,6.18,10.09-3.21s-23.38-15.33-45.66-22.13-28.46-10.29-39-9.78-21-4.31-21-4.31,6.21,3.1,4.92,8.62S1364.81,300.07,1384.34,297Z"/><path class="cls-6" d="M1357,325.71s5.21-6.46-1-15-3.86,8.79-15.43,12-9,10.5-28.93,5.58-32.14-8.36-36-14.36-4.93-11.41-5.78-19.5-10.93-4-14.15-8.1l-3.21-4.12-2.36,10.08-11.78,2.14,16.07,9.86a17.8,17.8,0,0,1,9,12.85c1.75,9.55,13,16.74,22.28,22.29S1336.74,357,1357,325.71Z"/><path class="cls-6" d="M1290.88,411.29s15.24-.29,19.42,5.28,13.61,1.91,14.25,9.63,16.71,17.76,22.5,16.92,26.36,1.74,28.93-13.05,9.37-15.69-4.5-25.07-23.79-11.57-23.79-11.57,16.72-.85,23.79,4.29,16.74,9.07,20.9,15.09,13.38,11.28,4.17,23.72-13.82,45.18-60.59,21.18-23.2-10.71-23.2-10.71-11.71-1.33-14-.43-1-13.71-1-13.71,7.85-5.1,4.72-7.53S1277.14,417.73,1290.88,411.29Z"/><path class="cls-6" d="M1121.19,207s5.36,14.14,15,10.29,11.79-12.19,19.07-4.81,27.86,17,36.86,20.88,19.93,7.16,19.29,13.86,2.1,10.57,8.76,9S1222,261,1222,261s12.26-13.5-5.61-27-46.8-33.42-68.66-33.42S1124,188.14,1124,188.14,1135.12,205.71,1121.19,207Z"/><path class="cls-6" d="M1140.8,366.86s-.06-6.43,11.49-1.82,19.26,10.6,17.33,1.82,7.07-11.37,14.79-12.33,14.78-15.74,6.43-25.07-15.85-6.1-27.53-8.67-13.4-7.5-18.12-3.65-5.14,3.76-9.42,2.74-6.65,3-6.65-4.16.64-7.36,0-11.43l-.64-4.08s7.43-7.2,15.43,0,34.07,6.22,46.93,10.5,29,12,31.19,18.75,6.55,12.74,0,25.07S1170.48,403.29,1140.8,366.86Z"/><path class="cls-6" d="M1254.18,462.46s8-13.67-.36-23.13-33.41-18.69-52.7-18.16-13.5,10-20.78,10-4.73,9-12.65,5.39-13.93-3.57-12.43.66-1.5,13.95,0,20.77,12.39,13.68,21.73,8.32,11.92-7.28,17.06-15,10.93-11.83,19.29-8.17,7.71,12,16.07,8.81,10.28-8.79,13.5-5.36S1257.1,451.79,1254.18,462.46Z"/><path class="cls-6" d="M1107.31,377.57s1.67,4.07-10.12,0-5.88,2.79-16.22,0-2-7.28-10.35-2.78-14.14,7.07-9.64,13.5,12.21,12.21,9.64,16.71-7.07,10.15-12.21,4.75-2.57-11.82-12.86-16.32-16.71,1.28-20.57,0-1.29-1.71-2.57-10.82-2.57-11.9-7.72-5-6.43,23.34-3.21,34.39,19.28,32.47,46.93,34.61S1074,436,1081,437.19s10.65-2.62,10.65-2.62S1133.06,418.29,1107.31,377.57Z"/><path class="cls-6" d="M1038.05,286.29s5.42,2.12,15.2-.33a86.11,86.11,0,0,0,17-6.2s-5.43,9.46-11.86,12.06,1.15,5.18-4.25,9S1039.55,307.71,1038.05,286.29Z"/><path class="cls-6" d="M1019.62,159.23s3.64-2,0-8-2.45-6,.81-7.24a22.22,22.22,0,0,0,6.48-4.71s22.5,4.4,31.5,12,24.22,9.11,29.33,15.45,7.37,5.93,7.37,5.93-45-40.18-75.49-42.23c0,0-7.76-.06-12,0s-9.52,6.4-12,3.23a16.64,16.64,0,0,0-5.68-4.56s12.6,3.8,8.31,7.87a17.12,17.12,0,0,1-8.31,4.68s10.16,1.78,7.88,5-.63,7.13-.63,7.13S1015.7,155.64,1019.62,159.23Z"/><path class="cls-6" d="M983.62,224.87s6,4,13.07,9.77l7.07,5.79s-15-7-17.57-8.87S978.88,221.54,983.62,224.87Z"/><path class="cls-6" d="M859.12,83.57a276.05,276.05,0,0,0,32.5,13.94c15.72,5.31,25.36,5.58,30.5,0s5.79-4.08,0-9.65-3.86.85-8.36-4.29-.64-7.07-13.5-12.21S856,58.06,856,58.06l1.09-4.4,34,9.15s39.41,15,40.43,21.4,6.23,3.86,5.26,8.36-5,25.31-62.21,4.94C874.58,97.51,872.62,89.36,859.12,83.57Z"/><path class="cls-6" d="M839.19,339.82s-5.78-5.75-11.57,6.57-8.25,10.08-11.35,15.28-13.89,7.35-19.08,8.5-3.87-16.5,0-21.31,3-19.4,3-19.4,8.15-1.17,12-5.46-1.93,4.5,6.43,9,12.26,3.53,12.22-.64S839.84,328,839.19,339.82Z"/><path class="cls-6" d="M706.15,218.29a68.29,68.29,0,0,0,0,17.64c1.26,9.64,4.52,20,0,33.45s-6.91,21.21,2.32,27.63,21.92,9,33.57,2.56,24.19-10,24.5-19.81a139.24,139.24,0,0,1,2.67-20.89s2.7,26.56,1,40.7S751.61,328.4,742,330.06s-37.2-.27-54.56-20.2-27.64-36.32-18-54.81,10.85-23.12,6.74-30.18l-4.1-7.05,11.94.47,11.24-3.21,13.54-1.41S722.48,219.93,706.15,218.29Z"/><path class="cls-6" d="M565.47,232.25A16.08,16.08,0,0,0,558.91,251c3.85,12.59,5.78,11,13.5,19.17s12.21,17.85,9.64,21.71-6.2,12.21-25.92,0-23.61-22.26-26.17-33A39,39,0,0,1,530,240S542.45,225.36,565.47,232.25Z"/><path class="cls-6" d="M440.57,260.48s.84,4.18,7.44,0,10.53,2.88,18.77-2,5.74-5.61,7.15,5.85,3.15,16,7.1,23,14.3,25.7,5.27,45.63-24.14,41.57-47,32-19.29-15.25-13.5-18.5,6.62-5,12-6.53,7.95,4.1,13.1-9.49-.65-8.67,1.93-24,9.59-14.64,2.87-19.16-4.8-5.8-12.52-7.73-5.46-8-12.21-10.26a59.71,59.71,0,0,1-11.25-5.05S432.8,278,440.57,260.48Z"/><path class="cls-6" d="M703.44,387.86s-5.68-4.29-13.39,0-19.38,5.67-24.28,21.89-9.1,18.84-9.1,18.84l-23.19,16.27s-3.32-30.19,2.91-40.66,18.34-22.11,31.63-30.91,16-18.43,16-18.43l5.49,6S686.62,375.21,703.44,387.86Z"/><path class="cls-6" d="M527.62,370.29s10.72-1.78,16.5-2.82,3.22-4.9,0,8-10.49,27-6.53,40.82,18.58,35.46,27.88,32.46,22.37-27.14,21.08-39-7.79-16.64-7.71-27.14-6.65-15.14-6.65-15.14a85.23,85.23,0,0,0,10.59,6c7.07,3.52,14.49,14,7,42.64s-22.24,35.17-34,36.16-32.71-5.08-39.87-18.8-14-33.11-3.95-42,2.76-25.07,3.95-30.86l1.19-5.78S521.41,365.14,527.62,370.29Z"/><path class="cls-6" d="M434.51,428.14c-2.59,3-7.39,10.15-21.53,11.19s-16.07-7-11.89-8.94,2.44-8.7,6.1-11.74,2.25-4.33,10.61-1.44,10,3.22,16.71,3.22,12.66-4.72,15.11-4.18,7.72-9.47,10.29-3.54-3.22,11.58-1.61,17.68-7.36,5.24,2.28,15.55,7.68,22.7,4.15,22.06-24.16-3.21-24.16-3.21,2.62-14.15,4.55-19.93S440.14,421.62,434.51,428.14Z"/><path class="cls-6" d="M305.94,349s-10.6,2.56-6.43,21.27-6.77,23.29-1,36.75,6.54,14.29,18.45,20.87a25.92,25.92,0,0,0,22.7,1.27s-8.11,16.39-22.7,15.75-15.65,3.21-24.44-7.07-3.37-12.46-10.84-30.82-16.59-14-17.87-24.38-5.15-20,2.57-27.73,14.22-6.43,10-17.68-4.22-17.68-4.22-17.68,8.9,3.49,12.22,11.57,17.35,3.4,21.85-.55,3.86-13.91,3.86-13.91-.73,5.28,12.33,13.91,10.49,3.12,15.64,16.3,11.27,24.25,12.47,29.84,0,7.24,0,7.24-2.51-11.69-14.72-24.54-14.53-23.21-14.53-23.21A64.13,64.13,0,0,0,305.94,349Z"/><path class="cls-6" d="M276.39,407s-20,3-14.66,19.5,4.68,22.61,10.46,30.46l5.79,7.86H261.73s-7.54-29.07-10.75-38.32,6.32-18.9,10.23-23.72.38-10.61.38-10.61S271.07,407,276.39,407Z"/><path class="cls-6" d="M128.31,376.68s.53,10.32-3.33,15.46-6.33-3.13-7.67,18.69,7.19,38.25,11.61,46.1,5.06,12.93,1.84,13-28.6-5.11-28.6-5.11-5.09-19.87-2.13-30.2,11.45-20.59,8.23-30.23-16.07-13.5-15.42-18.65-1.61-.77,9-3.12,7.81-1.77,15.47-8.45S123.28,380.5,128.31,376.68Z"/><path class="cls-6" d="M23.92,325.44c1.34.64,9.29-12.37,18.53-8.83s15.67,6.61,13.74,26.28-4.34,53.4-13.74,56.79-21.24-6.47-21.81-4.32,2.85,23.42,18,16.49S52.2,401,59.41,378s8.32-51.28,3.35-57.3-13.94-5.08-13.95-15.77,3.51-19.54.24-15.72S44,299.77,42.37,297s-8.83-5.93-12.21,1.25-6.11,5.82-6.11,5.82S14.79,321.1,23.92,325.44Z"/><path class="cls-6" d="M100.46,251s8.48-3.92,10.07,1.77,6.13-4.38,0,11.58-6,37.29,6.78,46.87,17.29,18.94,32.41-2.77,24.14-31.13,24.14-31.13.42,21.22-9.45,31.13-30.49,34.83-51.61,25.28S83,317.58,82.87,302.79,85.59,266.68,100.46,251Z"/><path class="cls-6" d="M82.87,149.14s-17.1,0-17.07,20.57,8.38,30.22,17,32.15,48-28.93,48-28.93S109.35,208.71,92.09,212s-47-9.14-44.82-18,1.85-34.57,7.64-41.64S80.61,145.93,82.87,149.14Z"/><path class="cls-6" d="M173.86,201.81s17.31-3,21-5.33,16.21,2.13,26.58,5.33a163.21,163.21,0,0,0,21.22,4.8S199.3,228.59,173.86,201.81Z"/><path class="cls-6" d="M342.14,229.71s-1.16,18.54-16.59,28.77S304.93,272.76,296,274.56s-14.79,10.23-16.07,11.19,21.09,10,31.11,8,29-6.1,40.08-21.7,18.81-22.66,18.81-29.09v-9.74S343.94,233.14,342.14,229.71Z"/><path class="cls-6" d="M859.76,434.14A34,34,0,0,1,870,444.68a59.2,59.2,0,0,0,8.48,11.14s-4.65,9-18.76,9H845.65s8-7.72,9-13.5S853.57,427.29,859.76,434.14Z"/></g><g id="b_outline" data-name="b outline"><path class="cls-7" d="M518.62,363l3.43-2.14s4.29,4.93,8.57,4.18,6.43-4.18,6-11.47h3.43s4.71,8.14,7.29,3,8.57-14.14,8.57-14.14h3.43a10.29,10.29,0,0,0,0,5.57c.85,3,1.71,5.77,1.71,5.77L575.19,345v17.57s16.29,11.57,19.72,24.43,0,33.43-3.43,42-13.29,21.43-13.29,21.43-8.57,2.14-3.43-4.72,13.72-21.85,15-29.57,1.72-39.92-17.57-48.67L571.34,351l-11.58,8.57s-2.43.86-2.29-3a14.43,14.43,0,0,0-2-7.28l-6.43,9.42L542.62,365l-2.57-3.75s1.29,3.79-3.43,6.18a28.39,28.39,0,0,1-9,2.82l1.29,6s-5.57,16.28-7.29,23.57-2.14,20.14,4.29,27,15.43,22.49,23.14,23.89S567.91,453,567.91,453s5.57,3.43-3.86,3.86-17.14-.86-27-7.72-20.14-20.57-21-31.28,3-29.35,6-35.25,2.57-6.75.43-10.61A63.78,63.78,0,0,1,518.62,363Z"/><path class="cls-7" d="M1448.62,376.71A18.38,18.38,0,0,1,1458.91,366c8.14-3.43,20.57-4.29,39.43,0s42.42,19.29,44.14,24.86,5.14,17.57-2.57,26.14-33.43,19.71-51.43,11.14-24-17.57-24-17.57l-5.57-1.28s2.57,9.42,8.57,13.71,21.43,12,34.71,13.29,27.86-2.58,33.86-7.72,11.14-9.86,12.86-21-7.72-27.86-24.43-35.14-33.86-15-52.29-13.29-19.28,5.15-21.85,9S1444.76,376.29,1448.62,376.71Z"/><path class="cls-7" d="M1440.48,370.71l-6.86-1.71,3.43,8.57h-6.86l7.72,10.72-14.57-15.43,8.57,1.28-2.15-7.28,12.43,1.71S1442.49,371.22,1440.48,370.71Z"/><path class="cls-7" d="M1442.21,393.43h-15.87l12.42,7.28-1.71,15.86,18.43-7.28s2.14-6.86-1.72-4.29-11.55,5.57-11.55,5.57l4.57-10.28-5.58-2.57Z"/><path class="cls-7" d="M1524.05,333.43l-9-5.14,2.15,5.14h-9.43l16.29,6S1514.62,332.57,1524.05,333.43Z"/><path class="cls-7" d="M1533.91,345s26.57,18,36.85,21.86,38.15,6.43,44.15,5.57,13.23-9.29,6.85-13.53,10.29,3.24,4.72,8-6.43,9.85-24,8.14S1552.14,363.86,1533.91,345Z"/><path class="cls-7" d="M1401.05,285s-13.29,3-21.86,0-11.14-3-11.14-3l-6,4.33h-6l9-4.33-1.71-4.29S1371.05,285.86,1401.05,285Z"/><path class="cls-7" d="M1382.62,294.43h-11.14l5.57,4.71-5.57,5.57s15.43,2.15,20.14,4.29,14.14,5.14,14.14,5.14l-17.14-9.85h-7.71l-.43-6.43,3.86-.86Z"/><path class="cls-7" d="M1420.76,310.71s48,9.43,45,0c0,0,10.72,6.43-6.85,6.43s-38.15-3-38.15-3S1411.76,311.14,1420.76,310.71Z"/><path class="cls-7" d="M1310.19,400.71c2.43-3.95,18.86-7.71,32.57-7.28s25.72,5.57,35.79,9.43,20.36,15.43,19.07,21.43-8.14,23.14-12.86,28.28a52.93,52.93,0,0,1-9.42,8.14h9.42s10.51-14.14,13-17.57,5-15,3.32-21S1398.48,408,1385.19,402s-30.43-14.14-50.57-11.57-27,8.57-28.28,9.43-20.58-6.43-20.58-6.43l12,11.57-9.85,9,14.57,11.33-13.29,8.38,9.86,5.15-4.71,15.43,5.57-3,7.28-1.29h3l2.57-3s13.31,9.78,20.15,13.71a11.87,11.87,0,0,0,12.43,0s-17.15-4.28-23.58-11.14-9.42-9.86-9.42-9.86l-7.72,6.86v-3.86l-6.86-9.85,15.43-6.66,1.29-4.06-6.43-8.57-.43,9-12.43-9.86,6-5.14-3.43-6.86,6.86,4.13S1307.24,405.53,1310.19,400.71Z"/><path class="cls-7" d="M1290.05,282c4.29.84,32.14,4.27,40.29,9.41s21,7.28,25.71,19.28c0,0,2.14,1.72,0-3.85s-15.43-14.91-30-20.53-40.29-6.47-40.29-6.47-20.57-12.43-27.42-12.43l9,14.59-2.58-9.88s20.15,6.48,21,9.88S1290.05,282,1290.05,282Z"/><path class="cls-7" d="M1277.19,282s1.29,7.79-8.14,4.31l-9.43-3.47v4.37l-9.43,5.06,3.86,7.28-6,4.72,12.43,6.42c0,10.29,5.26,20.58,16.77,26.58s16.23,8.57,33.8,10.28,34.71-4.71,40.29-8.14,10.71-13.29,10.71-13.29-1.52-4.71-5-.43-11.29,23.68-46.38,17.15-43.28-14.15-45.43-32.15c0,0,.43-2.57-3.85-3.85a47.7,47.7,0,0,1-6.86-2.57l3.86-5.15-3.43-4.71h9l-.86-8.1s8.57,4.49,14.14,2.87S1281.48,280.76,1277.19,282Z"/><path class="cls-7" d="M1249.76,464.79s9-.65,4.72-12.65-15-23.16-28.29-25.94-34.71,2.8-39.43,7.51-13.71,9.43-13.71,9.43,2.14-8.14,0-12a11,11,0,0,0-6-4.94V432l-10.29,1.29v8.14s-5.57-2.14-4.28-6.86,10.28-2.57,10.71-5.14-.43-8.14-.43-8.14,9.86,1.69,11.15,4.91,3.43,5.8,6.43,4.94,24.42-11.14,30.42-9.85,29.15,2.57,34.72,8.57,12.43,12.43,12.86,20.57S1263.05,466.71,1249.76,464.79Z"/><path class="cls-7" d="M1157.62,450.86l-5.33,3,10.47,11.21-15-14.21,10.72-4.29A2.67,2.67,0,0,1,1157.62,450.86Z"/><path class="cls-7" d="M1143.91,375.43c3.59,5.65,38.57,11.37,47.14,7.18s21-7.18,24.43-15.75,8.14-19.29-2.14-33-18-19.22-29.15-22.9-25.71-2.39-28.93-2.39S1133.62,297,1133.62,297v17.14l-7.71-.21v7.93l-12-4.72,6.85,15.86-9.42,4.71,12,4.72s2.14,12.43,6,14.57,5.57,1.9,5.57,1.9-9.86-8-7.72-18.46l-2.57-2.3-4.71-15.85,9,2.57,2.57-6,9,2.14-2.57-16.71,17.35,9.64s13.93-4.93,23.79,0,22.9,7.46,31.71,22.5,2.58,27.43-7.28,33.86-42.43,15-58.29.85C1145.19,371.14,1140.91,370.71,1143.91,375.43Z"/><path class="cls-7" d="M1130.19,241.29h-3s-9.85-11.58-8.57-19.72l-12.86-9.86H1118v-3.42l-6.64-6,13.71,2.14L1118,194.14l9.64,3.86,2.57-3.86a3,3,0,0,1,3.43,0c1.72,1.29,7.72,5.57,9.86,7.72l2.14,2.14s17.4,4.29,19.84,5.14,29.45,14.15,32,15.86,18,15,19.71,16.29,5.1,12.21,3,14.89c-4.26,0-3.83-5.16-5.12-9s-6-13.47-25.71-22.35-27.86-14.44-34.08-15.3-11.35-1.71-11.35-1.71l-10.29-10.29-3.43,4.29-4.28-1.29,2.57,8.14-7.29-1.71.43,7.29h-7.71l7.28,6a23,23,0,0,0,2.57,9.85C1126.34,234.86,1126.34,239.14,1130.19,241.29Z"/><path class="cls-7" d="M1140.91,252.43c-2.27-3.79,33,22.71,72.43,6.86,0,0,5.14,0,2.14,2.14s-11.14,6.86-24,8.14-16-1.28-26-4.28S1143.48,256.71,1140.91,252.43Z"/><path class="cls-7" d="M1076.62,184.29v3.42s-10.28,1.72-18.86-1.71-33.42-16.29-36.42-20.57-6.43-9-9.86-8.57-18-4.29-18-4.29l4.28-6-11.57-7.28h17.57l1.72,4.71-4.29-2.14-7.28-.86,8.57,6.43-2.14,3s6,3.43,11.14,3.86,9.43,7.28,18,13.28S1059.48,189,1076.62,184.29Z"/><path class="cls-7" d="M1089.48,182.57h3.86s3.85,0,3.85-3.86-3.85-11.14-15-18.85-45-23.15-53.14-25.29-9.43,0-9.43,0,42.43,9.43,64.72,29.14C1084.34,163.71,1102.34,177.43,1089.48,182.57Z"/><path class="cls-7" d="M1014.48,133.62l-13.29-6.33,2.15,3.16H993.05l5.14,6.48-12-11.36,12.43,3-.43-4.71S1014.48,131.38,1014.48,133.62Z"/><path class="cls-7" d="M983.62,224.87l-10.28-9.73s-.86-4.71,5.14-3.85,7.71-4.29,5.14-7.29a34.34,34.34,0,0,1-4.58-8.14s11.44,5.14,15.72,8.57,12.86,8,18,5.94,8.15-2.64,18.65,0l10.5,2.63s-1.72.86-6.86.86-12.86-3-17.57-1.72-7.72,3.43-12,1.29-19.29-11.14-19.29-11.14,4.8,7.16,3.69,8.08-1.54,3.49-5.4,3.49-10.56,1.14-3.57,4.43S988.28,223.47,983.62,224.87Z"/><path class="cls-7" d="M1056.48,218.29s-.43,3,5.57,6.58,22.29,12.67,26.14,26.11-9,19.88-11.57,22.88-11.57,14.57-38.57,12.43c0,0,3.43,7.28,9,5.14s16.71-3.69,26.14-9.56,17.57-14.87,18.86-19.16,2.57-6.74,0-11.73S1078.61,225.47,1056.48,218.29Z"/><path class="cls-7" d="M928.76,87.86s4.29,3.85,3,8.14-3,8.14-14.57,7.71-39-5.14-47.14-9.85c0,0-.86,2.57,13.29,6.85s39,10.36,48.66,3C932,103.75,942.48,96,928.76,87.86Z"/><path class="cls-7" d="M857.94,130.83s19.4-4.17,30.11,0,35.14,14.46,42,29.88l6.86,15.43a9.71,9.71,0,0,1,0-5.57c.85-3.43-2.15-9.43-5.15-14.57s-24.57-22.76-40.14-27S848.39,125.81,857.94,130.83Z"/><path class="cls-7" d="M937.06,180.86l5,1.71-5,14.73-5.53-3.73S937.27,194.37,937.06,180.86Z"/><path class="cls-7" d="M1091.62,434.57v3a30,30,0,0,0,16.72-11.37c6.42-9.2,14.14-21.75,9.85-36.26s-22.71-31.23-30-35.51-25.71-9.43-32.14-9a42.8,42.8,0,0,1-9,0l-4.55-4.87,3.26,7.33s19,2.28,32.58,5.71,24.91,16.38,33,30.48,6.85,22.24-3.86,34.66S1091.62,434.57,1091.62,434.57Z"/><path class="cls-7" d="M961.76,468s-6-16.29-15-21.43-24.85-12.43-36.42-11.14S894,439.29,894,439.29l-17.51-23.15,2.14,25.93s-4.28-.21-4.28-2.78-3-29.15-3-29.15,7.28-2.77,9.85,6.43S894,433.71,894,433.71s18.92-5.14,29.63-2.14,36,9.43,43.29,33.22C966.91,464.79,966.48,471.21,961.76,468Z"/><path class="cls-7" d="M866,441l-10.91-1.67,5.45,12.81s1,5.15-5.45,5.57-9.86,1.5-6.43,4.29,12.82,2.57,17.34,0,7.09-1.29,7.09-1.29-8.57,11.58-16.29,10.29-17.57-12.43-17.57-12.43,15.43-.43,14.57-7.28l-1.71-13.72s0-6,7.71-3.43S867.87,437.14,866,441Z"/><path class="cls-7" d="M882.05,351.86s-3.43-12-10.71-14.15-15.22-4.28-15.22-4.28V317.57s-6.21,12.64-10.07,11.89-5.57-3.32-9.43-2-10.83,1.28-13.34-2.57a14,14,0,0,0-7.23-5.15L818.62,333a25.17,25.17,0,0,1-10.28,1.71,52.56,52.56,0,0,0-9,0s6.42.91,3.85,5.82a38.1,38.1,0,0,1-6,8.33s.86,3.43,5.15,3l4.28-.43s-.75,9-3.86,13.61-5.57,5.13-5.57,5.13,9.7-13.18,4.44-15.64-15.58-4.39-15.58-4.39,10.71-1.66,9.43-9.61.43-12,4.71-11.07,10.72,4.4,12-5.46,7.6-10.29,11.09-6.43,8.63,11.14,13.34,3.86c0,0,6.43,3,9,2.14s13.72-13.71,13.72-13.71l1.71,19.6s20.57,7.83,23.14,13.4S890.19,357.86,882.05,351.86Z"/><path class="cls-7" d="M727.33,391.1s-1.71,1.47,2.15-4.1a117.62,117.62,0,0,0,7.28-12.43l-18.85,2.57a15.3,15.3,0,0,0,0-4.71c-.43-2.14-12.86,3.86-15.86,3.43s-3-7.5,0-10.82l3-3.33s1.93-1.71-5.25,0l-7.18,1.72s-3.43-1.29-5.57-7.29-8.14-13.71-8.14-13.71a7.83,7.83,0,0,0-3,6V372a60.8,60.8,0,0,0-16.29,3.86c-9,3.43-23.14,26.21-25.71,33.89s-3,20.19-2.15,29.58l.86,9.38,9.43-7.28s-8.14-8.14-4.71-22.29,6.42-29.34,21-36.53,23.57-10.25,23.14-15.14a32.92,32.92,0,0,1,0-7.47l6,7.47,9.86-2.43s-6,14.47-3.86,17.57c1.44,2.09,6.69,4.14,10,5.25,1.59.54,2.71.85,2.71.85s-8.81-6.85-8.39-8.57,15-4.28,15-4.28-.42,5.36,2.58,6.75,11.14-3.75,11.14-3.75l3.86-.86s4.28,5.57-7.72,11.57C722.62,389.57,722.83,395.19,727.33,391.1Z"/><path class="cls-7" d="M731.84,210.37l2.25,7.92A86.8,86.8,0,0,0,742,229.18c3.62,3.86,8.76,1,13.9,14.14s15.11,24.11,9.65,39.86.64,10.93-2.9,14.78-8,9-8,9,.32,1.61,2.89,0,11.25-10,11.89-17.67,2.25-28.61-2.89-40.18-10.29-12.54-14.14-18-8.2-5.47-10.37-8.68-4.85-2.57-5.28-5.14S736.71,208.64,731.84,210.37Z"/><path class="cls-7" d="M752.41,314s-5.15,1.28-8,4.82-8,5.8-12.53,6.1-19.69,3.66-32.51-7.17-23.42-16.29-23.1-30.11c0,0,3.86-1.61,4.18,2.57s4.21,11.67,11.57,19.61,24.64,21.53,44.78,11.25C736.76,321.11,752.73,307.93,752.41,314Z"/><path class="cls-7" d="M596.33,227.69s10.47,6.95,9.83,13.7-1.77,19-4.9,23.47,1,5.78,2.79,3.21,7.89-10.78,6.61-19.53S606.75,230.06,596.33,227.69Z"/><path class="cls-7" d="M538.62,233.89c-1.25,3.32-5.43,15.22-4.14,22.29s3.14-.73,4.14,2.69,3.25,14.67,11.61,18.52,18.32,11.25,29.89,6.75,17.68-10.93,17.68-10.93,4.82,1,2.57,2.9S587.84,288,576.26,289s-26.35-.64-34.07-9.32S529.66,264.21,530,256.18s-1-13.93,2.57-18a30.08,30.08,0,0,1,8.36-6.43Z"/><path class="cls-7" d="M453.48,270.15s1.93-7.3,8-9.67,9-3.34,9-3.34,2.25,9.37,0,12.24a66.81,66.81,0,0,0-5.14,8.66s10.61,9,10.61,26,4.82,32.47-7.39,42.43-17.68,16.71-32.79,11.89-20-7.12-27.34-20.6a108.53,108.53,0,0,1-9.95-24.4s-4.5,2.25-3.85,10,10,23.46,21.85,32.14,27.65,10.29,36,7.07,17.36-12,22.83-20.14,7.07-22.61,4.5-35.79-8-23.46-7.4-26-1.28-7,.32-11.23S475,253.61,475,253.61l-13.5,3.85-1-3.85a11.52,11.52,0,0,0-11.89,1.93c-5.79,4.82-4.82,8.6-.65,4.94a29.22,29.22,0,0,1,9.33-5.27s-3.22,1.29-4.83,7.4S449.77,276.79,453.48,270.15Z"/><path class="cls-7" d="M439.34,269.38l-4.5-1.31a82.26,82.26,0,0,0,0-9c-.33-1.93-1-3.53-2.9,0s-7.71,8-7.71,8l-8.36-6.63a17.8,17.8,0,0,0,0,7.59c1,3.54,2.25,9.32,2.25,9.32s-7.71,4.82-9.64,7.4-4.82,6.75-4.82,9.32v2.57h-3.54l1.61-7.47s8.51-10.83,12.21-12.38c0,0-3.85-13.58-1-18.08,0,0,2.25-2.25,6.75.32s6.11,1.41,6.11,1.41l6.75-7.73s4.34-1.39,5.22,1.82S439.34,269.38,439.34,269.38Z"/><path class="cls-7" d="M352.9,231.21l-15.46,31.08s-11.25,17-22.18,18-15.75,2.25-15.75,2.25a10.19,10.19,0,0,0,7.72,3.21c5.14,0,17-4.18,21.86-8.36s20.57-28,20.57-28l7.4-17.68Z"/><path class="cls-7" d="M270.26,221s-5.78,6.89-6.42,15.57,3.85,16.07,5.14,19,2.57,4.82,5.46,10,10.29,8.68,15.11,12.86,4.5,7.71,0,5.14-15.75-10.61-21.86-18.64-9.64-21.54-7.07-30.22a83.71,83.71,0,0,1,7.07-16.35S272.05,218.49,270.26,221Z"/><path class="cls-7" d="M237.14,206.61s-13.8,5.53-27.95,4.25-23.46-2-23.46-2-.32,3,4.18,3.63,21.21,2.25,30.85,1.93a32.41,32.41,0,0,0,16.38-5.14S240.06,207.47,237.14,206.61Z"/><path class="cls-7" d="M162.91,186.11a11.31,11.31,0,0,0,3.53,10.28c4.82,4.18,15.11,10.22,15.11,10.22s2.57,2.82-5.79,0-15.75-8.29-16.07-11.18a85.65,85.65,0,0,1,0-9.32S163.06,183.84,162.91,186.11Z"/><path class="cls-7" d="M130.76,172.93s-9.32,6.66-13.17,12.17S98,203.46,96.37,204.43s-11.25,6.43-12.21,7.39-17-1.5-22.82-4S46.55,198,45.91,188.36s2.25-21.86,5.78-28,5.15-4.18,2.9,0-6.43,19.2-5.15,24.71,9.65,19.83,14.47,21.51,18.87,1.35,24.38-1.22S107.62,193.74,115,185.1,130.44,169.71,130.76,172.93Z"/><path class="cls-7" d="M191.84,254.25s-5.8-16.39-6.12-19.93-3.85-3.86-5.46-1.61-3.21,16.72-3.21,16.72-5.88-.32-6.31-3.54-3.33-5.92-5.26-3.12-5.14,13-9.32,9.68-10.61-7.84-10.61-7.84-2.89,3.14,0,7.84,6.43,9.3-2.57,6-12.22-2.3-12.22-2.3,12.54,10.28,16.4,9.32,10.54-2.57,6.55-8.68-5.27-8.39-5.27-8.39,6.43,11.28,12.86,8.07,4.5-12,7.71-8.07,6.11,11.28,8.36,7.11,4.55-18.33,4.55-18.33,2.19-.32,3.8,5.79a126,126,0,0,1,2.58,15.48s7.71-1,11.57,2.2,11.25,6.43,19.29,19.61,12.85,24.13,13.5,28.14,5.78,3.38,4.5,0-8.68-24.16-16.4-33.87S200.19,252.32,191.84,254.25Z"/><path class="cls-7" d="M104.73,251.33c.45,5-18.32,23.81-18.32,39.88s3.85,32.15,13.5,37.61,34.39,11.57,44,1.61,24.78-28.94,26-38.57l1.26-9.64a3.28,3.28,0,0,1,2.6,3.53c-.33,2.89-4.18,20.89-12.54,31.82s-22.82,21.54-28.61,21.54-22.18,1-31.5-6.11-18.64-17.68-18.32-30.21-1.93-26,4.82-35.68S104.09,244.23,104.73,251.33Z"/><path class="cls-7" d="M40.76,294.23,42.37,297,52,285.75s1,9.32-1.28,13.5-2.89,11.95-2.89,11.95,6.1-.06,10,3.48,9.32,9.64,9.32,26.36-3.21,50.46-8.36,57.21S44.62,418.82,34,415s-15.09-17.58-15.74-27.32S17,349.36,20.64,336.21s4.7-8,6.3-10,1,5.46-1,8.36-4.9,16.39-5.34,35.68S24.5,400,26.3,405.64s14.62,7.4,16.15,5.47,14.39-6.75,17-33.11,5.78-44.68,1-53-8-11.25-11.57-10.92l-3.54.32s1.29-10,1.61-13.5a20.12,20.12,0,0,1,1.93-6.63s-4.82,9.2-7.71,6.63l-2.9-2.57,2.25-8.68S37.34,293.59,40.76,294.23Z"/><path class="cls-7" d="M125,380.25l-2.89-7.07a56.33,56.33,0,0,0-4.5,7.07c-1.61,3.21-.33,5.46-5.47,5.46H100.55s-4.18,3.54-7.71,0,7.71,2.54,6.1-5.48c0,0,1.29-4.48,3.54-2.23s6.75,9.61,10,2.23a49.23,49.23,0,0,1,8.36-12.76s1.93-3.14,4.18,0,1.84,6.6,3.33,9.21S128.51,382.5,125,380.25Z"/><path class="cls-7" d="M153.71,365s-2.37-5.57-6.55,0-15.11,20.28-12.86,22.25c0,0,2.89-.07,5.14-4.68s8-15.14,8-15.14,3.86.89,3.53,4.1S148.12,395,148.12,395s3.86.64,8,1.6,16.39,5.84,23.78,19,14.79,22.16,12.54,34.05a98.46,98.46,0,0,1-5.14,18.64s2.74,5.79,5.55-4.82,2.34-26.68,0-34.07-15.26-31.5-39.18-37.93"/><path class="cls-7" d="M92.14,389.57a69.87,69.87,0,0,0,8.41,0c2.57-.32,4.18-1.93,6.11,0s0,2.25,6.1,6.43,5.47,8.36,1.61,4.82-9.64-3.53-9.64-3.53a17.29,17.29,0,0,0,3.53,7.07c2.9,3.53,3.86,4.55-1,11.27s-3.54,8-5.46,11.55-3.22,15.11-.65,23.46A143.76,143.76,0,0,0,107,466.07s-2.25,4.18-4.82-1.28-8.68-22.5-5.79-30.54,8.36-22.82,8.36-22.82,7.07,0,0-6.43S91.45,393.43,92.14,389.57Z"/><path class="cls-7" d="M233.62,427.18s-2.57,12.86,0,20.57,9,22.15,9,22.15-7.39-3.19-8.68-6.72-6.75-22.18-5.46-28S231.37,424.61,233.62,427.18Z"/><path class="cls-7" d="M279.91,350s-8,8.46-9.32,15-1.29,13.64,0,16.15,1.6,3.88-2.58,7.42-8-1.93-6.42,3.53a18.33,18.33,0,0,1-.38,10.61s-1.55-2.25-8.95,3.86-9.64,9.62-9.64,9.62,4.82-8.34,8.36-11.55,6.43-10.61,5.46-14.14,1.52-5.24,3.33-7.93,3.73-2.42,4.71-6.54,2.89-7.22,3.86-12S279.91,344.89,279.91,350Z"/><path class="cls-7" d="M290.51,432s19.29,2.25,28.29,1.93,23.46-8.36,28.61-19.61,5.14-14.78,5.14-14.78,2.89-.65,2.25,4.17-5.79,18-15.11,25.4-26.68,8.68-39.53,8.68S285.05,429.75,290.51,432Z"/><path class="cls-7" d="M357.06,382.61s-4.83,4.39-6.12-3,.65-12.86-7.71-19.61-14.94-17.11-14.94-17.11l2.72-7.32a5.21,5.21,0,0,0-5.14,2.25c-1.93,2.89-5.78-4.94-7.71-2.31s-4.18,3.14-3.22,7.38-.46,2.72-.23,6.06-2.34.83-4.27,0-1.93-1.74-4.5,0-1.28-.52-6.43-4.06-3.21-5.72-4.17-9.93l-1-4.21s-4,9.09-6.64,8.4-4.93-1.33-5.57-3.9a4.49,4.49,0,0,0-2.25-3.21,11,11,0,0,0,2.25,7.11c2.57,3.17,2.57,4.14,2.57,5.1s-3.86-.14-4.82-1.36-3.78-2.5-3.5-5.71,0-13.18,0-13.18l8,7.07s-3.32,8,3.32,3.86,2.78-13.18,2.78-13.18l2-5.14,7,3.45s-.32,8.44,0,14.23,1,5.46,4.83,7.07,5.78,3.39,6.42,1.53,1.93-1.85,1.93-5.71,5.11-10.85,5.29-12.5,3.39-4,3.71.86.65,8.1,4.82,3.6a36.29,36.29,0,0,1,8.36-6.75s3.52,2.57,2.24,6.43,0,8.13-1.6,10.33-1.92,3.49,2.58,7.67,15.75,19.44,15.75,20.65S359.28,363.61,357.06,382.61Z"/><path class="cls-7" d="M386.94,448.71s8.36-12.53,11.9-12.85,7.07-4.82,6.42-7.4,1.93-9.81,1.93-9.81.65,4.35,3.22,3.39,7.39-4.83,7.39-4.83,3.21,8.68,4.5,8,6.75-3.21,6.75-3.21-2.25,3.21,0,4.17,5.46,1.93,5.46,1.93a58.12,58.12,0,0,1,0-7.71,61.61,61.61,0,0,0,0-8s1.29-1.93-1.92,2.25a17.41,17.41,0,0,1-6.43,5.47,66.43,66.43,0,0,1-2.9-8.16c-1-3.74-5.46-6-6.1-3.09s-3.93,10.28-6.31,6.75a22.11,22.11,0,0,1-3-8.07s-5.15-2.86-5.79,4.21-1,18.64-1,18.64S383.09,442,386.94,448.71Z"/><path class="cls-7" d="M440.62,423.32s2.25-3.53,4.18,0,2.89,6.79,5.79,4.52,10-6.45,10.6-4.2,1.29,2.57-2.89,6.75-7.16,7.4-7.16,7.4,11,4.5,12.3,16.39S464.73,468,464.73,468h5.78s2.58-21.92-10.6-31.5a44.41,44.41,0,0,1,4.5-6.75c2.25-2.57,1-11.28-1.93-11.1s-3.66,4-6.81,2.1-1.87-4.5-6.05-4.5S440,419.46,440.62,423.32Z"/></g><path class="cls-4" d="M1285.66,502.39c53,9.65,322.07-38.57,377-51.1s86.79-30.86,111.22-46.45c-3.27-1.23-10,1.12-10,1.12s-8.73-13.82-15.75-20.67c-2.1-1.25-2.86-.22-6.64-1.5-1.13-.39-2.36-.78-3.64-1.18-3.17,1.46-7,3.13-11.57,5-28,11.57-180.33,77.15-404,77.15H17.76c-7.92,25.34-1.11,139.77,2.43,157.5,3.86,19.28,55.29,10.28,55.29,10.28l1141.71,10.29,3-.22c2.75-29.26,7.55-79,9.56-91.07C1232.62,534.21,1224.91,541,1285.66,502.39Z"/><path class="cls-5" d="M1773.91,404.84c-24.43,15.59-56.25,33.91-111.22,46.45s-324,60.75-377,51.1c-60.75,38.57-53,31.82-55.93,49.18-2,12.06-6.81,61.81-9.56,91.07,155.92-11.5,416-23.47,589.74-109.07C1803.89,495.57,1785.48,426.7,1773.91,404.84Z"/></svg>