<svg id="cherry" xmlns="http://www.w3.org/2000/svg" viewBox="0 0 1820.84 686.57"><defs><style>.cls-1{opacity:0.05;}.cls-2{fill:#c00;}.cls-3{fill:#f2f2f2;}.cls-4{fill:#ededed;}.cls-5{fill:#f0f0f0;}.cls-6{fill:#524333;}.cls-7{fill:#f33;}.cls-8{fill:#693;}.cls-9{fill:#e5e5e5;}</style></defs><title>prod-10</title><ellipse class="cls-1" cx="878.52" cy="632.64" rx="853.88" ry="19.21"/><path class="cls-2" d="M8.62,439.71h7.32c-5.84-34,14.22-156.21,14.22-156.21H20.65c0,.42,0,.64,0,.64S-.38,378,8.62,439.71Z"/><path class="cls-3" d="M1393.34,279C1221.05,218.29,858.48,47.57,858.48,47.57c-5.79,27-25.07,75.22,25.71,113.14s157.5,99,158.15,131.79,3.85,80.36-93.22,105.43c-91.19,23.55-181.23,23.28-243,66.86H1322.3c223.71,0,376.07-65.58,404-77.15,4.6-1.9,8.4-3.57,11.57-5C1686.36,366.62,1570.12,356.79,1393.34,279Z"/><path class="cls-4" d="M25.86,221a60.42,60.42,0,0,0,3.33,6.57C21.56,262,20.73,280,20.65,283.5h9.51S10.1,405.75,15.94,439.71h.4s-.09.4-.19,1.09c.06.31.12.62.19.91H16c-.42,3.7-.64,11.86,4.16,18.58-.93.72-1.74,2.27-2.43,4.5H292.55C285.3,298,95.42,244.91,25.86,221Z"/><path class="cls-3" d="M627.05,312.43c-190.93,44.36-283.5,30.46-435.86-28.93a391.22,391.22,0,0,0-41.47-13.35c69.72,36.54,138.52,95.5,142.83,194.64h311.5c23.6-17.69,79-57,130.36-76.5,27.53-10.62,58.24-17.69,88.47-23.25C777.69,341.71,693,304.35,627.05,312.43Z"/><path class="cls-5" d="M980.91,321.37c-1.71,1.54-3.71,3.24-6.07,5.2-27-15.43-154.29-82.93-179.36-97.71-14.22-5.24-34.25-11.74-53.44-17.73-162.26,8.34-367.35,87.37-674.28-74.2-41.48,7.21-56,51.54-41.9,84.07,28.23,9.7,76.26,24.2,123.86,49.15a391.22,391.22,0,0,1,41.47,13.35c152.36,59.39,244.93,73.29,435.86,28.93C693,304.35,777.69,341.71,822.88,365c68.59-12.63,134.64-17.5,155.17-38.47A6.85,6.85,0,0,0,980.91,321.37Z"/><path class="cls-4" d="M979.34,329.46c17-16.82,11.89-28.6-4.5-42.1C962,276.43,818.62,180,805.76,150.43a13.46,13.46,0,0,1-8.83,2.48C774.37,177,758,203,756.76,210.57q-7.29.18-14.72.56c19.19,6,39.22,12.49,53.44,17.73C820.55,243.64,952.34,314,979.34,329.46Z"/><path class="cls-6" d="M1120.72,273.26s84.47-8,126.9,9.6c0,0-56.57,54.43-91.28,58.71l6,12s51.85-33.26,63-41.06,27.42-25.37,27.42-25.37a9.88,9.88,0,0,0,5.15-2.14c3-2.14,56.57,15,56.57,15a41.37,41.37,0,0,0,13.71,3.86c6.86.43,9.86,1.71,9.86,1.71s.43-6.43-13.29-11.14-61.71-14.57-61.71-14.57l28.29-22.72,8.57-3.43-10.29-2.57-6.43,2.57-29.14,24.43s-73.43-19.71-143.82-9.85C1110.23,268.29,1104.06,274.38,1120.72,273.26Z"/><path class="cls-7" d="M1113.48,267.43c1.35-10.35-15.43-25.72-31.72-28.29s-35.14.86-42.85,16.29S1049.62,297,1049.62,297c10.29,14.14,21.86,24.86,43.29,24l21.43-.86s-19.29,13.29-23.58,26.57-3.85,25.72.43,33.86,16.72,22.29,34.72,23.57,41.14-3.43,47.57-9.43,14.14-17.14,7.28-34.28-6.42-8.14-13.28-12.86-9.43-4.71-7.29-9.86,4.29-15.42-31.28-26.14c.43-15,1.71-30-1.72-33.86S1113.09,270.43,1113.48,267.43Z"/><path class="cls-8" d="M119.84,167.79s-27-2.58-38.58,14.14-16.07,24.5-11.57,36.36A124.67,124.67,0,0,0,80,239.14s-16.72-.67-18,12.2-5.79,27.66,0,45l5.78,17.35s19.93-38.57,25.08-47.57,6.42-14.8,6.42-14.8l17.36.32C110.19,233.36,96.69,205.71,119.84,167.79Z"/><path class="cls-6" d="M62.62,142.71S44,146.93,42.69,167.64s-10.93,30.36,0,46.43,13.5,21.22,13.5,21.22-12.21-3.22-13.5,8.35-5.15,39.86-5.15,39.86l43.08,30.21-4.5,7.72L34.34,295.07,21.48,370.93h-6.6l15.28-79.07s-10-18.65-2.9-35c0,0-3.85,20.25,5.79,22.18,0,0,3.68-43.71,14.7-48.86,0,0-16-28.28-11.49-50.78S49.76,138.86,62.62,142.71Z"/><path class="cls-8" d="M18.27,393.43s7.71,5.78,11.89,3.86,8,9.64,6.1,18.64-16.07,44.36-16.07,44.36S5.42,423.64,18.27,393.43Z"/><path class="cls-6" d="M40.12,382.61l3.22,5s-3.86,16.72-3.22,29.57,7.63,43.08,7.63,43.08h-7.7S29.19,403.94,40.12,382.61Z"/><path class="cls-6" d="M62,464.79s14.14-10.93,21.21-9.65a90.66,90.66,0,0,1,15.43,4.77l-3.86,4.88Z"/><path class="cls-6" d="M231.69,275.79s-.64-30.22,3.22-43.72,6.3-24.28,6.3-24.28-.6-6.5-9.56,10.5-11.53,38.85-4.46,60.71S231.69,275.79,231.69,275.79Z"/><path class="cls-6" d="M328.76,247.26s-8.37-21-11.46-21.62-6.43,11.69,5.73,30.92S328.76,247.26,328.76,247.26Z"/><path class="cls-7" d="M223.34,276.43s-5.15-3.86-8.36-3.86-18,.64-18,10.93-9.64,11.57-18.64,12.21-25.72,19.93-25.08,27.65-4.53,18,0,27,16.09,23.78,30.23,25.07,30.21-6.43,48.86-13.82,40.5-20.25,40.5-20.25c9-9,11.57-19.93,13.5-33.43s0-13.5,0-13.5,12.85,14.78,18.64,19.28,24.43,16.08,37.28,14.15S368,310.5,373.12,304.07s5.79-23.14,7.72-36.64,1.28-28.93-20.58-30.22-37.92.73-38.57,10-.64,9.89-4.5,4.12-12.21-5.8-21.21.32-18,11.27-17.36,19.63-3.86-.65-16.07-1.29-18-4.5-25.71-2.57S223.34,276.43,223.34,276.43Z"/><path class="cls-7" d="M263.19,464.79c1.29-7.72-2.18-32-22-43.34s-36.52-8.62-49.37,0-26.36,22.76-24.43,49.12h96Z"/><path class="cls-6" d="M545,233.32s-10.52,19.32-13.09,34.11-3.22,33.43-3.22,33.43H517.12s7.07-23.21,10.29-37.64S536.24,238.43,545,233.32Z"/><path class="cls-6" d="M612.58,225.62s13.42,22.65,14.47,41.47,0,29.91,0,29.91l-14.47,3.86s11.26-28.93,2.9-44.68-11.43-27.32-11.43-27.32S603.41,226.82,612.58,225.62Z"/><path class="cls-7" d="M520.34,293.14c8.19,3,15.42-12.21,23.14-5.78s19.93,10.93,25.71,13.5S575,300,582.69,293s23.15-14,27.65-12.09,6.42,14.67,12.21,10.23,10.93-12.8,16.71-13.45,21.22,3.86,26.36,7.08,16.72,8.77,16.07,16.92-5.78,29.36-7.71,35.79-8.36,17.36-17.36,23.79-20.57,18.64-37.28,9.64-32.15-26.36-41.15-48.22c-3.85,20.58-12.21,46.25-31.5,51.41s-52.71,4.52-63-9-16.07-28.59-14.14-37.76S476,304.07,486.91,297,503,286.71,520.34,293.14Z"/><path class="cls-6" d="M485.62,409.5s-3.86,2.57-3.21,5.14,3.21,9,3.21,9L504.91,441l21.21,23.79h4.94Z"/><path class="cls-6" d="M579.48,414c2.57-4.5,14.78-5.79,12.86,0s-34.72,50.79-34.72,50.79H548Z"/><path class="cls-8" d="M495.67,432.69s7.95,15.38,5.38,23.74l-2.57,8.36H449s26.44-26.32,33.35-32.1S487.37,433.55,495.67,432.69Z"/><path class="cls-6" d="M873.26,273.86s-.64-2.7,2.58,3.79,6.42,1.35,6.42,5.85,1.24,34.07-4.52,49.5-11.37,16.07-11.78,7.07,2.8-28.93,3.45-39.21S878.7,279.19,873.26,273.86Z"/><path class="cls-6" d="M861.05,412.71l39.21,20.58s12.29,19.92-8.64,8.35-43.17-23.7-43.17-23.7Z"/><path class="cls-6" d="M819.09,423.35l-42.9,44H763.34l43.57-41.51S811.2,418.57,819.09,423.35Z"/><path class="cls-6" d="M936.26,410.14,1016,445.26l8.36-56.33s6.72-11.42,12.68-11.82,1.11,12.46,0,18.89-10.76,55.29-10.76,55.29l29.58,13.5h-22.5l-9.65-5.15-.64,5.15h-9s3.21-9.65-2.57-13.5-75.22-30.35-75.22-30.35S930.43,407.57,936.26,410.14Z"/><path class="cls-8" d="M976.76,467.36l-54.64-2.57L944,420.94s7.71-1.8,18.64,16.85S976.76,467.36,976.76,467.36Z"/><polygon class="cls-6" points="922.12 143.36 868.27 146.07 877.5 155.32 933.67 155.32 922.12 143.36"/><path class="cls-8" d="M1277.62,256.18s-46.28-2.81-62.36-9-46.92-20.29-51.42-39.58c0,0,48.21,15.43,64.92,20.57S1303.06,258.38,1277.62,256.18Z"/><path class="cls-7" d="M995.23,238.37s.82-30.08-45.79-44.23c0,0,65.25-12.21,37-43.71s-63.65-40.5-71.36-34.07-7.71,28.93-7.71,28.93,12.85,5.14,5.14,12.21,9.64,38.57,9.64,38.57S980.92,241.45,995.23,238.37Z"/><path class="cls-8" d="M1201.12,214.71s-48.21-25.71-57.21-31.5-31-19.73-31-19.73,90.78,37.07,92.09,47.38S1208.26,218.53,1201.12,214.71Z"/><path class="cls-6" d="M1373.41,327.86a35.52,35.52,0,0,1,21.85,12.21c9,10.93,34.08,32.79,34.08,32.79s7.07,5.78,16.07,2.57,45-10.93,61.71-9.64,54,4.5,54,4.5,10.29,7.73-3.86,6.11-64.92.77-78.42.22-36,6-36,6,27,21.1,38.57,26.25,71.35,35.35,71.35,35.35l-12.85,5.15s-48.22-21.86-64.93-33.43-44.36-33.32-44.36-33.32-31.5,10.18-47.57,16.6-34.71,12.22-34.71,12.22l-10.29-6.59,84.21-28.13-41.78-31.5S1361.84,333,1373.41,327.86Z"/><path class="cls-8" d="M1449.35,457.67s-8.44-25-14.87-31.46-65.57-27-65.57-27-12.22,4.5-7.07,15.43S1394,468,1394,468Z"/><path class="cls-7" d="M1576.55,411.43c-4.5,3.86-3.06,4.5-11.82,13.5s-8.66,15.41-8.66,15.41l50-6.73,10.93-4.82-21.21-17.36s28.92-3.54,33.42-6.59,14.79-17.2,0-26.84-29.57-21.21-45-24.43-30.85-12.21-36,0,9.65,18.66,9,22.83-5.78-2.68-3.21,6.21,1.29,17.89,19.29,26.25"/><path class="cls-3" d="M1285.66,502.39c53,9.65,322.07-38.57,377-51.1s86.79-30.86,111.22-46.45c-3.27-1.23-10,1.12-10,1.12s-8.73-13.82-15.75-20.67c-2.1-1.25-2.86-.22-6.64-1.5-1.13-.39-2.36-.78-3.64-1.18-3.17,1.46-7,3.13-11.57,5-28,11.57-180.33,77.15-404,77.15H17.76c-7.92,25.34-1.11,139.77,2.43,157.5,3.86,19.28,55.29,10.28,55.29,10.28l1141.71,10.29,3-.22c2.75-29.26,7.55-79,9.56-91.07C1232.62,534.21,1224.91,541,1285.66,502.39Z"/><path class="cls-9" d="M1773.91,404.84c-24.43,15.59-56.25,33.91-111.22,46.45s-324,60.75-377,51.1c-60.75,38.57-53,31.82-55.93,49.18-2,12.06-6.81,61.81-9.56,91.07,155.92-11.5,416-23.47,589.74-109.07C1803.89,495.57,1785.48,426.7,1773.91,404.84Z"/><path class="cls-9" d="M1042.34,292.5c-.65-32.79-107.36-93.86-158.15-131.79s-31.5-86.14-25.71-113.14c0,0-30.86-30.86-56.57-11.57,9,18-18,92.57-3.86,115.71l-1.12,1.2a13.46,13.46,0,0,0,8.83-2.48C818.62,180,962,276.43,974.84,287.36c12.1,12.1,22,20.41,3.21,39.21-29.57,30.22-153.64,27-243.64,61.72-51.34,19.55-106.76,58.81-130.36,76.5h102.1c61.74-43.58,151.78-43.31,243-66.86C1046.19,372.86,1043,325.29,1042.34,292.5Z"/></svg>