<svg id="egg" xmlns="http://www.w3.org/2000/svg" viewBox="0 0 1820.84 686.57"><defs><style>.cls-1{opacity:0.05;}.cls-2{fill:#f2f2f2;}.cls-3{fill:#e5e5e5;}.cls-4{fill:#c00;}.cls-5{fill:#ffe0eb;}.cls-6{fill:#ffd9e5;}.cls-7{fill:#fc3;}.cls-8{fill:#fff;}.cls-9{fill:#ffc2c2;}.cls-10{fill:#bf9926;}</style></defs><title>prod-5</title><ellipse class="cls-1" cx="878.52" cy="632.64" rx="853.88" ry="19.21"/><path class="cls-2" d="M1285.66,502.39c53,9.65,322.07-38.57,377-51.1s86.79-30.86,111.22-46.45c-3.27-1.23-10,1.12-10,1.12s-8.73-13.82-15.75-20.67c-2.1-1.25-2.86-.22-6.64-1.5-1.13-.39-2.36-.78-3.64-1.18-3.17,1.46-7,3.13-11.57,5-28,11.57-180.33,77.15-404,77.15H17.76c-7.92,25.34-1.11,139.77,2.43,157.5,3.86,19.28,55.29,10.28,55.29,10.28l1141.71,10.29,3-.22c2.75-29.26,7.55-79,9.56-91.07C1232.62,534.21,1224.91,541,1285.66,502.39Z"/><path class="cls-3" d="M1773.91,404.84c-24.43,15.59-56.25,33.91-111.22,46.45s-324,60.75-377,51.1c-60.75,38.57-53,31.82-55.93,49.18-2,12.06-6.81,61.81-9.56,91.07,155.92-11.5,416-23.47,589.74-109.07C1803.89,495.57,1785.48,426.7,1773.91,404.84Z"/><path class="cls-4" d="M8.62,439.71h7.32c-5.84-34,14.22-156.21,14.22-156.21H20.65c0,.42,0,.64,0,.64S-.38,378,8.62,439.71Z"/><path class="cls-3" d="M979.34,329.46c17-16.82,11.89-28.6-4.5-42.1C962,276.43,818.62,180,805.76,150.43a13.46,13.46,0,0,1-8.83,2.48C774.37,177,758,203,756.76,210.57q-7.29.18-14.72.56c19.19,6,39.22,12.49,53.44,17.73C820.55,243.64,952.34,314,979.34,329.46Z"/><path class="cls-2" d="M1042.34,292.5c-.65-32.79-107.36-93.86-158.15-131.79s-31.5-86.14-25.71-113.14c0,0-30.86-30.86-56.57-11.57,9,18-18,92.57-3.86,115.71l-1.12,1.2a13.46,13.46,0,0,0,8.83-2.48C818.62,180,962,276.43,974.84,287.36c12.1,12.1,22,20.41,3.21,39.21-29.57,30.22-153.64,27-243.64,61.72-51.34,19.55-106.76,58.81-130.36,76.5h102.1c61.74-43.58,151.78-43.31,243-66.86C1046.19,372.86,1043,325.29,1042.34,292.5Z"/><path class="cls-5" d="M627.05,312.43c-190.93,44.36-283.5,30.46-435.86-28.93a391.22,391.22,0,0,0-41.47-13.35c69.72,36.54,138.52,95.5,142.83,194.64h311.5c23.6-17.69,79-57,130.36-76.5,27.53-10.62,58.24-17.69,88.47-23.25C777.69,341.71,693,304.35,627.05,312.43Z"/><path class="cls-5" d="M980.91,321.37c-1.71,1.54-3.71,3.24-6.07,5.2-27-15.43-154.29-82.93-179.36-97.71-14.22-5.24-34.25-11.74-53.44-17.73-162.26,8.34-367.35,87.37-674.28-74.2-41.48,7.21-56,51.54-41.9,84.07,28.23,9.7,76.26,24.2,123.86,49.15a391.22,391.22,0,0,1,41.47,13.35c152.36,59.39,244.93,73.29,435.86,28.93C693,304.35,777.69,341.71,822.88,365c68.59-12.63,134.64-17.5,155.17-38.47A6.85,6.85,0,0,0,980.91,321.37Z"/><path class="cls-6" d="M118.76,291.43c48,9.43,65.15,35.57,70.29,45.86s23.14,21.64,23.57,24.32c.32,2,8.73,68.17,13.17,103.18h66.76C285.3,298,95.42,244.91,25.86,221a60.42,60.42,0,0,0,3.33,6.57C21.56,262,20.73,280,20.65,283.5h9.51s-2.16,13.13-4.85,32c1.76-1.3,3.4-2.61,4.85-3.91C41.62,301.29,70.76,282,118.76,291.43Z"/><path class="cls-2" d="M60.05,382.61c39.2,5.27,52.88,45.43,55.5,81.18H225.79c-4.44-35-12.85-101.22-13.17-103.18-.43-2.68-18.43-14-23.57-24.32s-22.29-36.43-70.29-45.86-77.14,9.86-88.6,20.14c-1.45,1.3-3.09,2.61-4.85,3.91C21,345,15.21,390.36,14.89,419.42,20.83,395.83,36.55,379.45,60.05,382.61Z"/><path class="cls-7" d="M17.76,463.79h97.79c-2.62-35.75-16.3-75.91-55.5-81.18-23.5-3.16-39.22,13.22-45.16,36.81a114.9,114.9,0,0,0,1,19.29h.4s-.09.4-.19,1.09c.06.31.12.62.19.91H16c-.42,3.7-.64,11.86,4.16,18.58C19.26,460,18.45,461.56,17.76,463.79Zm40.36-51.72C63.26,414,62,403.71,62.62,396s6.43-2.57,9,8.36-.23.44,1.93,1.28c14.79,5.79,5.79,12.7,5.79,12.7s-11.58,2.73-10.93,11.73-2.57,15.43-7.07,14.14,0-21.21-3.22-23.78S53,410.14,58.12,412.07Z"/><path class="cls-8" d="M1626.05,362.57l6.48-3.84a1302.51,1302.51,0,0,1-136.89-39.39c-2.28.93-4.35,1.81-5.88,2.52-6.42,3-10.28,9.43-4.71,18s33.86,35.36,32.14,42.75c14.58,7,70.17,20.95,80.3,48,27.63-7.08,51.39-14.39,70.9-21C1629.18,381.29,1626.05,362.57,1626.05,362.57Z"/><path class="cls-2" d="M954.91,150.43c25.07,7.71,82,24.11,99.32,24.11s31.17-4.11,47.41-16c-16.45-7.29-32.63-14.52-48.34-21.57h0c-42,4-97-23.81-113.67-51.68-49.3-22.68-81.15-37.68-81.15-37.68-.53,2.48-1.18,5.14-1.87,8C858,60.41,860.86,66,866,72.32,889.34,101.25,929.84,142.71,954.91,150.43Z"/><path class="cls-5" d="M1364.4,464a1106,1106,0,0,0,233.09-33.4c-10.13-27.05-65.72-41-80.3-48,1.72-7.39-26.57-34.18-32.14-42.75s-1.71-15,4.71-18c1.53-.71,3.6-1.59,5.88-2.52-31.47-11-65.57-24.18-102.3-40.34-76-26.79-189.08-75-291.7-120.5-16.1,11.83-29.83,16-47,16a26.27,26.27,0,0,0-1.36,3.54c-.93,3.54-26.39,5.79-42.46-3.53-7.45-4.32-9.92-8.15-10.44-11-5-1.33-10-2.71-14.84-4.07C977,171,971,165.86,956.19,158.14S926,144,920.19,134.36a17.92,17.92,0,0,1-2.51-8c-3.73-3.21-7.48-6.61-11.2-10.14a97.21,97.21,0,0,1-14.86,2.71C883,119.57,862.23,99,862.23,99L850.7,85c-2.64,24.09,1.66,51.9,33.49,75.67,49.5,37,152.1,95.91,157.88,129.23a82.42,82.42,0,0,1,21.8-10.3c34.72-9.64,40.5-14.46,75.22-3.85s57.85,10.6,63.64,7.71,41.46,1,82,15.43,69.43,24.11,80,54,25.07,46.28,14.46,71.36C1372.23,440.75,1367.74,452.6,1364.4,464Z"/><path class="cls-9" d="M1010.84,174.54c16.07,9.32,41.53,7.07,42.46,3.53a26.27,26.27,0,0,1,1.36-3.54h-.43c-9.72,0-31.84-5.15-53.83-11C1000.92,166.39,1003.39,170.22,1010.84,174.54Z"/><path class="cls-9" d="M956.19,158.14c14.79,7.72,20.8,12.88,29.37,1.3-11.88-3.34-22.82-6.6-30.65-9-10.5-3.23-23.71-12.39-37.23-24.07a17.92,17.92,0,0,0,2.51,8C926,144,941.41,150.43,956.19,158.14Z"/><path class="cls-9" d="M891.62,118.93a97.21,97.21,0,0,0,14.86-2.71A469.23,469.23,0,0,1,866,72.32,53.21,53.21,0,0,1,857.81,59l-2.56,2a188.37,188.37,0,0,0-4.55,24l11.53,14S883,119.57,891.62,118.93Z"/><path class="cls-7" d="M1737.91,382.61c-22.7-7-58-12.9-105.38-23.88l-6.48,3.84s3.13,18.72,42.34,47.05q2.88-1,5.62-1.93l-31.57-25.08s-18.28-24.71-4.82-15.33l50.69,35.32c18.74-6.85,31.64-12.31,38-15C1730.94,385.74,1734.74,384.07,1737.91,382.61Z"/><path class="cls-10" d="M1642.44,382.61,1674,407.69q7.63-2.64,14.3-5.09l-50.69-35.32C1624.16,357.9,1642.44,382.61,1642.44,382.61Z"/><path class="cls-2" d="M1364.73,352.93c-10.61-29.89-39.54-39.54-80-54s-76.18-18.32-82-15.43-28.93,2.89-63.64-7.71-40.5-5.79-75.22,3.85a82.42,82.42,0,0,0-21.8,10.3,17.68,17.68,0,0,1,.27,2.56c.55,28.47,3,68.08-59.87,94.43,4.79,20.44,16.92,47.6,35.83,77.86h126.57l.18-.09c-14.71-4.08-34-10.19-43.41-16.31-16.24-10.6-31-45.32-33-58s7.72-25.88,18.32-23.1c3.18.84,5.75,1.44,7.81,1.87a28.83,28.83,0,0,1,6.82-9.47c36.48-17.36,45.16-18.32,66.37-17.36s39.54,1,62.68,17.36,31.82,49.43,19.29,66.18c-9.67,12.92-26.82,33.66-65.14,38.93H1322.3q21.5,0,42.1-.78c3.34-11.41,7.83-23.26,14.79-39.72C1389.8,399.21,1375.34,382.82,1364.73,352.93Z"/><path class="cls-10" d="M1068.69,390.38c1.93,12.69,16.71,47.41,33,58,9.36,6.12,28.7,12.23,43.41,16.31,2-.91,21.43-9.9,28.75-16.31,7.71-6.75-42-12.84-48.21-17.78-28-22.23-38-45-30.77-61.46-2.06-.43-4.63-1-7.81-1.87C1076.41,364.5,1066.76,377.69,1068.69,390.38Z"/><path class="cls-7" d="M1230.69,359.68c-23.14-16.39-41.46-16.39-62.68-17.36s-29.89,0-66.37,17.36c-17.52,16.39-10,44,23.95,70.93,6.23,4.94,55.92,11,48.21,17.78s-28.93,16.4-28.93,16.4h40c38.32-5.27,55.47-26,65.14-38.93C1262.51,409.11,1253.84,376.07,1230.69,359.68Zm-10.52,24.49c-5.87,1.54-12.62-4.59-12.62-4.59l-9.64,16.74s-14.47,2.44-7.72-9.39l6.75-11.82-8.54-.13s-3-11.29,6.61-7.51l9.65,3.78,6.75-12.52s10.78-8.66,8.76,0a140.15,140.15,0,0,1-4.91,16.25C1228.76,379.93,1226,382.63,1220.17,384.17Z"/><path class="cls-7" d="M976.14,102h0a583.92,583.92,0,0,0,48.12,33.33,105,105,0,0,0,29,1.62h0C1025.81,124.58,999.75,112.76,976.14,102Z"/><path class="cls-10" d="M976.14,102c-13-5.92-25.2-11.53-36.51-16.73,13,21.75,49.31,43.48,84.63,50.06A583.92,583.92,0,0,1,976.14,102Z"/><path class="cls-5" d="M949.12,397.93c-91.19,23.55-181.23,23.28-243,66.86H976.26C967,441,963,412.74,961.28,394.5,957.41,395.69,953.37,396.83,949.12,397.93Z"/><path class="cls-9" d="M982.47,386.93a221.77,221.77,0,0,1-21.19,7.57c1.71,18.24,5.71,46.54,15,70.29h42C999.39,434.53,987.26,407.37,982.47,386.93Z"/></svg>