<svg id="pops" xmlns="http://www.w3.org/2000/svg" viewBox="0 0 1820.84 686.57"><defs><style>.cls-1{opacity:0.05;}.cls-2{fill:#ededed;}.cls-3{fill:#fffaeb;}.cls-3,.cls-4,.cls-9{stroke:#000;stroke-miterlimit:10;}.cls-12,.cls-4{fill:#f2f2f2;}.cls-5{opacity:0.9;}.cls-6{fill:#ff5c5c;}.cls-7{fill:#0085c2;}.cls-8{opacity:0.75;}.cls-9{fill:none;}.cls-10{fill:#dbdbdb;}.cls-11{fill:#e5e5e5;}.cls-13{fill:#c00;}</style></defs><title>prod-7</title><ellipse class="cls-1" cx="878.52" cy="632.64" rx="853.88" ry="19.21"/><path class="cls-2" d="M25.86,221a60.42,60.42,0,0,0,3.33,6.57C21.56,262,20.73,280,20.65,283.5h9.51S10.1,405.75,15.94,439.71h.4s-.09.4-.19,1.09c.06.31.12.62.19.91H16c-.42,3.7-.64,11.86,4.16,18.58-.93.72-1.74,2.27-2.43,4.5H292.55C285.3,298,95.42,244.91,25.86,221Z"/><path class="cls-2" d="M1393.34,279C1221.05,218.29,858.48,47.57,858.48,47.57c-5.79,27-25.07,75.22,25.71,113.14s157.5,99,158.15,131.79,3.85,80.36-93.22,105.43c-91.19,23.55-181.23,23.28-243,66.86H1322.3c223.71,0,376.07-65.58,404-77.15,4.6-1.9,8.4-3.57,11.57-5C1686.36,366.62,1570.12,356.79,1393.34,279Z"/><path class="cls-2" d="M627.05,312.43c-190.93,44.36-283.5,30.46-435.86-28.93a391.22,391.22,0,0,0-41.47-13.35c69.72,36.54,138.52,95.5,142.83,194.64h311.5c23.6-17.69,79-57,130.36-76.5,27.53-10.62,58.24-17.69,88.47-23.25C777.69,341.71,693,304.35,627.05,312.43Z"/><path class="cls-2" d="M980.91,321.37c-1.71,1.54-3.71,3.24-6.07,5.2-27-15.43-154.29-82.93-179.36-97.71-14.22-5.24-34.25-11.74-53.44-17.73-162.26,8.34-367.35,87.37-674.28-74.2-41.48,7.21-56,51.54-41.9,84.07,28.23,9.7,76.26,24.2,123.86,49.15a391.22,391.22,0,0,1,41.47,13.35c152.36,59.39,244.93,73.29,435.86,28.93C693,304.35,777.69,341.71,822.88,365c68.59-12.63,134.64-17.5,155.17-38.47A6.85,6.85,0,0,0,980.91,321.37Z"/><path class="cls-3" d="M151.69,327.67h9.64a0,0,0,0,1,0,0v61.9a4.82,4.82,0,0,1-4.82,4.82h0a4.82,4.82,0,0,1-4.82-4.82v-61.9A0,0,0,0,1,151.69,327.67Z" transform="translate(197.37 -30.34) rotate(29.4)"/><path class="cls-3" d="M666,350.12h9.64a0,0,0,0,1,0,0V412a4.82,4.82,0,0,1-4.82,4.82h0A4.82,4.82,0,0,1,666,412v-61.9A0,0,0,0,1,666,350.12Z" transform="translate(274.62 -279.89) rotate(29.4)"/><path class="cls-3" d="M986.05,168.52h9.64a0,0,0,0,1,0,0v61.9a4.82,4.82,0,0,1-4.82,4.82h0a4.82,4.82,0,0,1-4.82-4.82v-61.9a0,0,0,0,1,0,0Z" transform="translate(149.34 762.6) rotate(-45.19)"/><path class="cls-3" d="M1152,400.08h9.64a0,0,0,0,1,0,0V462a4.82,4.82,0,0,1-4.82,4.82h0A4.82,4.82,0,0,1,1152,462v-61.9A0,0,0,0,1,1152,400.08Z" transform="translate(34.05 948.71) rotate(-45.19)"/><path class="cls-3" d="M413,368.09h9.64a0,0,0,0,1,0,0V430a4.82,4.82,0,0,1-4.82,4.82h0A4.82,4.82,0,0,1,413,430v-61.9A0,0,0,0,1,413,368.09Z" transform="translate(250.86 -153.4) rotate(29.4)"/><path class="cls-3" d="M1218.71,228.74h8.15a0,0,0,0,1,0,0v52.31a4.07,4.07,0,0,1-4.07,4.07h0a4.07,4.07,0,0,1-4.07-4.07V228.74a0,0,0,0,1,0,0Z" transform="translate(372.27 1172.27) rotate(-58.97)"/><path class="cls-3" d="M1451,302.11h8.15a0,0,0,0,1,0,0v52.31a4.07,4.07,0,0,1-4.07,4.07h0a4.07,4.07,0,0,1-4.07-4.07V302.11A0,0,0,0,1,1451,302.11Z" transform="translate(305.88 1281.98) rotate(-52.42)"/><path class="cls-4" d="M254.53,355.35s33.31-85.35,38-99.17-2.23-25.39-19-13.82-52.28,76.41-52.28,76.41Z"/><path class="cls-4" d="M505.55,237.62c16.55,5.86-48.86,150-48.86,150s-44.55-14.86-45-32.29c10.29-12.46,65.57-108.13,65.57-108.13S494,233.52,505.55,237.62Z"/><path class="cls-4" d="M710.62,367.47s0,10.59-12.86,3.46-32.14-23.15-32.14-23.15-5.61-.64,2.66-13.49,75.77-116,75.77-116,12.86-5.78,24.43,2.71-18.64,54.79-18.64,54.79Z"/><path class="cls-4" d="M1154.19,401.79l-31.5,23.14s-7.71,1.28-16.71-7.72-67.72-82.14-67.72-82.14l4.22-34.62,15.28,7.48,51.43,48.86,48.86,36S1160.12,397.43,1154.19,401.79Z"/><path class="cls-4" d="M980.91,173.57,958.76,189s-9,6.43-14.78,0-90.64-91.93-90.64-91.93S845,86.79,853.34,81s66.85,39.86,66.85,39.86l57.22,39.85S989.28,167.74,980.91,173.57Z"/><path class="cls-4" d="M1079,162l106.71,85.22S1196,249.11,1214,240c0,0,1.93-6.59-10.93-12.38S1092.48,162,1092.48,162,1077.69,155.57,1079,162Z"/><path class="cls-4" d="M1445.41,310.5l-26.36,9.64s-1.93,1.93-10.29-4.82-103.5-59.14-103.5-59.14-9.4-7.45,5.15-5.2Z"/><path class="cls-4" d="M1686.86,403.14s-37.67-27.42-73-40.42-39.22-13-32.15-6.58,68.15,41.15,73.29,61.72C1655,417.86,1682.73,412.21,1686.86,403.14Z"/><path class="cls-4" d="M184.91,285.87l36.21,28.56-25.71,32.35s-12-4.82-26.36-11.57-11.57-18.89-11.57-18.89Z"/><path class="cls-4" d="M14.88,329.46l15.28,18.32,49.24-105s6.36-10-7.78-13.89c-10.93-7.86-16.26,2.8-16.26,2.8Z"/><g class="cls-5"><path class="cls-6" d="M277.35,296.49s-13.09,3.08-12.34-2.92,6.11-11.14,0-13.28-1.81-3.43-7.38-3.43-4.09-6.43-9.34-3.22c0,0,25.17-45.83,43-33.73,0,0,5.37,5.13,1.29,16.27S277.35,296.49,277.35,296.49Z"/><path class="cls-6" d="M285.05,467.14s-2.44-26.33-13.86-29.45-27.28,14-31.57,10.6-23.14-20.15-39.86-15-24.42,4.4-29.57,17.95-6.85,15.9-6.85,15.9Z"/><path class="cls-6" d="M494.23,296.49s-5.11,1.37-7.93-2.92-1.54-21.86-5.82-18.86-4.29-6.12-9.43-4.56a35.26,35.26,0,0,1-8.1,1.66l14.31-24.59s19.5-13.27,28.29-9.6,5.61,13.26,2.68,18.8S494.23,296.49,494.23,296.49Z"/><path class="cls-6" d="M401.19,353.14c5.16-.25-2.14-8.16-4.28-5.36S392.62,353.57,401.19,353.14Z"/><path class="cls-6" d="M722.66,251c5.1,5.31,8.48-2,10.86,1.88s9.51,3,8.52,8.57-5.28,14.14-1.85,15.86,9.65-1.5,9.65-1.5,12.71-32,16.32-30.05,5.34.27,1.47-3.59,7.71-18,0-23.15-20.38-5.59-23.57-.71-24,32.69-24,32.69Z"/><path class="cls-6" d="M1042.48,300.45s11.47,3.86,19.58,11.56l22.38,21.26s1.45,11.73-5.54,6.59-10-10.29-10.85-5.15-3,1.76-6.86,6.45-10,10-8.9,11.31l-14-17.4Z"/><path class="cls-6" d="M918.15,119.28s13.61-5.71,23-4,14.15-4.08,18.43-.33,9.43,3.56,12,1.52-4.71-8,0-7.62-5.07-2.47.57-4.29,2.65,0,2.65,0S911.7,68.7,895.8,65,878.87,54.43,874,54.86s-8.73-6-8.07,0,10.09,9,1.95,13.3-9.86,2.15-12,6-3.21,3.73-4.72,8.15-.52,12.09,4.17,16.83L878,121.93s-1.93-5.36,4.5-5.36-2.57-7.28,4.28-5.57,6,2.14,10.72,3.86,6.26,5.51,8.57,1.28S911.41,114.43,918.15,119.28Z"/><path class="cls-6" d="M980.91,139.71c5.31,3.09,4.58-3.65,0-3.53S976.49,137.14,980.91,139.71Z"/><path class="cls-6" d="M1134.91,189s2.14,1.29-2.15,0-8.57-3-8.57-3-6-4.29-5.8-1.71,1.09,4.46-2.34,2.23-7.17-4.2-6.37,0l.8,4.19L1079,162s2.47-5.56,10.84-1S1131.91,184.29,1134.91,189Z"/><path class="cls-6" d="M1358.18,272.05s-6.27.61-8.13-1.9-8.14-5.72-7.71-1.86-.43,3.3-3.86,1.86-2.28,3.18-2.28,3.18l-32.94-19.13s-3.65-8,14.45,0C1317.71,254.2,1358.71,270.56,1358.18,272.05Z"/><path class="cls-6" d="M1302.27,357.82c7.49-3.61,17.78-9.33,31.28-4.86s32.79,10.9,37.29,16.68,4.5,9.29,10.28,15.25,16.07,11.75,12.22,16.25-7.72,6.43-7.08,13.5-2.57,1.4-5.14,11-2.57,13.44-19.28,14.73-27.81,4.5-31.27,8.35-6.66,8.36-13.09,3.86-9.64-7.07-11.57-1.93-6.43,1.29-12.22,0-7.07-.09-11.57,3.81-7.69,2.62-11.56,6.48-20.58-7.72-24.44-13.5-9.64-30.22,0-37.29,9-8.35,15.43-12.85,16.71-8.14,14.14-14.68-7.71-21.83,6.43-24.79S1298.39,359.69,1302.27,357.82Z"/><path class="cls-6" d="M1611.79,376.59a6.76,6.76,0,0,1,6.55-4.38c5.14,0-1.13.36,7.71,0l8.84-.35s-41.72-20.87-56.14-23.76C1573.34,353,1609.15,374.76,1611.79,376.59Z"/><path class="cls-6" d="M143.19,312.25c3.43-2.82,2.57-7.86-1.28-4.49S143.19,312.25,143.19,312.25Z"/><path class="cls-6" d="M73.53,255.27H66.91l6.62-14-18.19-4.44s6.42-1.56,0-3.28-.2-14,9.09-9S84.55,233,85.76,237.62s7.29,7,10.29,1.71,4.71-3.91,10.71-2.48,13.13,7.27,15.43,14.13,2.6,6.75-8,2.31-14.74-2.15-18.6-4.29-13.36-11.8-14.79-9S73.53,255.27,73.53,255.27Z"/><path class="cls-6" d="M167.41,464.79l15.43-20.58s11.57-10.92,19.92-4.5,7.08,21.22,2.58,25.08Z"/></g><g class="cls-5"><path class="cls-7" d="M55.34,286.87s-3.67-6.74-5.58-3.37-3-2.79-5.14-6.64,0-2.44-1.71-6.71-2.35-2.73-5,3.75-23,50.1-23,50.1l18.17,23.78Z"/><path class="cls-7" d="M62.62,335.57c5.53-1.84,0-6.86-2.57-4.28S57.48,337.29,62.62,335.57Z"/><path class="cls-7" d="M254.19,353.14s-29.87-31.89-32.93-34.37l8.66-15.25s-.58,5.94,4.13,5.92,2.57,2.56,6,4.7,7.71,5.15,9.86,7.72,10.28-2.57,12-.86,4.51,3.77,2.26,9.57S254.19,353.14,254.19,353.14Z"/><path class="cls-7" d="M286.76,375.86c5.94-.46,6.43-8.15-1.71-5.15S281.19,376.29,286.76,375.86Z"/><path class="cls-7" d="M440.69,309.44s5.5.49,7.22,2.81,1.28,4.4,4.71,5.07,9.94,2,10.33,5,8.53-.86,10.67-2.15,10,4.1,7.46,10.43-24.39,57.07-24.39,57.07-38.29-11.07-44.32-28.78Z"/><path class="cls-7" d="M505.34,375.9c9,2.14,4.71-7.86-2.58-5.88S501.91,375.09,505.34,375.9Z"/><path class="cls-7" d="M697.15,290s7.09-1.57,9,3.14.19,3,5.33,8.15,8.14,8.57,9.86,5.14,3.42-6.86,6-3.43,5.32,12.94,6.16,11-26.06,59-26.06,59-10.6-1.29-23.52-11.08-22.11-14.34-19.68-19.64S697.15,290,697.15,290Z"/><path class="cls-7" d="M745.19,296.7s7.43,2.9,7,12.74,14.28.42,18.93-2.15,11.07-6.86,14.5-8.15,12.86-2.33,15.43,6.12,1.29,14,3.43,20.88,13.71,3,15,15.86a122,122,0,0,1,0,23.67l-6.86,1.8s7.72-23.33-1.28-29.76-4.72,4.72-9.86,1.72-13.29-6.86-10.29-16.72.86-13.68-5.14-13.27-11-1.66-14.93,2.81-19.07,4.9-24.07-6.68-10.07.28-10.07.28L742.05,294Z"/><path class="cls-7" d="M754.76,360c6.82,2.27,5.58-6.86,0-4.71S749.62,358.29,754.76,360Z"/><path class="cls-7" d="M974.84,326.57,955.05,316s-6.14-.59-6.14,2.41-15.17,27.24-15.17,27.24S963.14,337.52,974.84,326.57Z"/><path class="cls-7" d="M1112.19,360.37s-12-2.22-11.57,2.35-1.71,6.71-5.57,8-1.71,1.72-8.14,4.72a17.41,17.41,0,0,0-8.57,9.08L1114.76,425s4.38,2.54,11.29-2.53,32.35-21.75,32.35-21.75,1.2-6.78-8.87-14.2S1112.19,360.37,1112.19,360.37Z"/><path class="cls-7" d="M1158.44,357.66c5.07,1.74,2.54-11.8,0-9.23S1154.13,356.18,1158.44,357.66Z"/><path class="cls-7" d="M933.74,131.57s-11,1.49-8.4,4.61,4.71,5.25-2.15,7.82-7.36,6.86-10.11,6.43a33.73,33.73,0,0,0-6.9,0l43.58,41.43s-1.34,4.34,9-2.86,22.15-13.71,22.15-13.71,10-5-1.2-12.93S933.74,131.57,933.74,131.57Z"/><path class="cls-7" d="M1214.08,237.43s-5.09,6-11.32,7.26-17.07,2.53-17.07,2.53a133.27,133.27,0,0,1-21.21-13.65c-9.43-7.71-24.43-18.7-24.43-18.7s-.83-4.87,6.44-4.44a51.93,51.93,0,0,0,14.88-1.72s-9.81-4.34-2.77-3.42l7.05.92S1214.83,231.86,1214.08,237.43Z"/><path class="cls-7" d="M1216.34,246.33s1.33-3.33,6.45-2.9,6.83,0,6.83,0S1228.15,239,1222,240,1212.5,242.06,1216.34,246.33Z"/><path class="cls-7" d="M1262.62,243.08c-4.59,1.25,4.72-1.9,4.72-3.13s1.71-.49,3,0-3.43-2.52-1.72-3.38a4.06,4.06,0,0,0,1.94-3s-8.8-3.43-10.94-4.28.86.85,0,4.71-2.57,6.32.86,5.95S1268.62,241.44,1262.62,243.08Z"/><path class="cls-7" d="M1185.91,203.26s-1.29-2.26-6.43-5.26-8.14-4.29-10.29-2.14.43,1.28-2.14,2.14-2.78-4.11-5.68-4.84,0-4.16,0-4.16,1.05,2.45,6.11,4.16S1185.48,197,1185.91,203.26Z"/><path class="cls-7" d="M1386.18,284.39s-4.42-2.49-2.65,0,6.9,3.29,2.65,3.61-4.9-.8-7.79,0-4.66-1.17-6.11.06a42.71,42.71,0,0,1-4.46,3l50.1,29.32s6.75-.42,16.72-4.11,10.77-4.67,10.77-4.67S1388.82,284.39,1386.18,284.39Z"/><path class="cls-7" d="M1665.66,389.07s2.33.39,0,3.66-19,6.48-19,6.48l-2.41,3.05,12,11.74,30.6-10.86Z"/><path class="cls-7" d="M1703.19,379.93s-4.34,2.69-10.28-3.34-7.07-2.45-16.07-3.09-11-6.74-11.3-.48-4.78,6.8-6.7,2.35a8.74,8.74,0,0,1,0-7.66s2.79.65,6.7,1.45,11.62,3.7,22.38,3,5.47-.36,7.4,1.91,2.89.83,5.14,1.63S1704.59,379.44,1703.19,379.93Z"/><path class="cls-7" d="M183.91,286.87s36,20,36.21,28.56-24,30.18-24,30.18-34.08-7.53-39.65-28.29Z"/></g><g class="cls-8"><path class="cls-9" d="M61.68,236.85s-17.71,27.82-26.57,50-14.47,39.62-14.47,39.62"/><path class="cls-9" d="M68,240s-35,75.33-37.87,96.08"/><path class="cls-9" d="M55.34,286.87s-15.93-9.74-12.43-16.72"/><path class="cls-9" d="M191.19,295.07s-24.85,23.3-27.85,31.42"/><path class="cls-9" d="M208.88,306.64s-21.06,26.22-22.75,36.25"/><path class="cls-9" d="M271.19,256.42s-29.85,54.65-33.71,68.35"/><path class="cls-9" d="M280.53,261.32s-36.25,75.4-35.8,81.57"/><line class="cls-9" x1="276.05" y1="281.67" x2="254.33" y2="267.75"/><line class="cls-9" x1="264.17" y1="330.57" x2="234.05" y2="309.44"/><line class="cls-9" x1="493.01" y1="274.71" x2="469.07" y2="261.32"/><line class="cls-9" x1="487.12" y1="250.98" x2="425.51" y2="367.47"/><line class="cls-9" x1="493.01" y1="256.18" x2="442.83" y2="382.61"/><line class="cls-9" x1="742.04" y1="236.98" x2="682.98" y2="352.05"/><line class="cls-9" x1="750.74" y1="243.08" x2="692.51" y2="367.47"/><line class="cls-9" x1="750.74" y1="256.94" x2="725.73" y2="243.37"/><line class="cls-9" x1="725.73" y1="312.25" x2="697.15" y2="290"/><line class="cls-9" x1="975.63" y1="174.95" x2="878.52" y2="98.36"/><line class="cls-9" x1="959.73" y1="184.18" x2="871.01" y2="98.36"/><line class="cls-9" x1="893.99" y1="101.58" x2="871.01" y2="114.9"/><line class="cls-9" x1="940.7" y1="136.17" x2="913.08" y2="150.43"/><line class="cls-9" x1="1123.1" y1="180.24" x2="1109.68" y2="186.52"/><line class="cls-9" x1="1165.65" y1="206.21" x2="1146.49" y2="210.43"/><line class="cls-9" x1="1207.55" y1="236.22" x2="1107.21" y2="174.95"/><line class="cls-9" x1="1192.44" y1="246.33" x2="1101.81" y2="180.24"/><line class="cls-9" x1="1070.62" y1="328.33" x2="1046.76" y2="345.61"/><line class="cls-9" x1="1112.19" y1="360.37" x2="1084.57" y2="382.61"/><line class="cls-9" x1="1147.13" y1="401.54" x2="1058.69" y2="324.77"/><line class="cls-9" x1="1132.32" y1="417.86" x2="1042.5" y2="326.49"/><line class="cls-9" x1="1312.34" y1="461.7" x2="1276.34" y2="433.44"/><line class="cls-9" x1="1288.55" y1="464.79" x2="1264.49" y2="437.79"/><line class="cls-9" x1="1294.34" y1="437.79" x2="1270.56" y2="455.79"/><line class="cls-9" x1="1435.2" y1="309.88" x2="1336.76" y2="264.86"/><line class="cls-9" x1="1425.48" y1="315.98" x2="1328.29" y2="268.74"/><line class="cls-9" x1="1392.94" y1="287.37" x2="1367.82" y2="291.08"/><line class="cls-9" x1="1680.82" y1="404.84" x2="1617.05" y2="367.71"/><path class="cls-9" d="M1665.54,410.58s-32.13-31.61-52.35-39.09"/><line class="cls-9" x1="1622.84" y1="367.71" x2="1606.54" y2="367.71"/></g><path class="cls-10" d="M979.34,329.46c17-16.82,11.89-28.6-4.5-42.1C962,276.43,818.62,180,805.76,150.43a13.46,13.46,0,0,1-8.83,2.48C774.37,177,758,203,756.76,210.57q-7.29.18-14.72.56c19.19,6,39.22,12.49,53.44,17.73C820.55,243.64,952.34,314,979.34,329.46Z"/><path class="cls-11" d="M1042.34,292.5c-.65-32.79-107.36-93.86-158.15-131.79s-31.5-86.14-25.71-113.14c0,0-30.86-30.86-56.57-11.57,9,18-18,92.57-3.86,115.71l-1.12,1.2a13.46,13.46,0,0,0,8.83-2.48C818.62,180,962,276.43,974.84,287.36c12.1,12.1,22,20.41,3.21,39.21-29.57,30.22-153.64,27-243.64,61.72-51.34,19.55-106.76,58.81-130.36,76.5h102.1c61.74-43.58,151.78-43.31,243-66.86C1046.19,372.86,1043,325.29,1042.34,292.5Z"/><path class="cls-12" d="M1285.66,502.39c53,9.65,322.07-38.57,377-51.1s86.79-30.86,111.22-46.45c-3.27-1.23-10,1.12-10,1.12s-8.73-13.82-15.75-20.67c-2.1-1.25-2.86-.22-6.64-1.5-1.13-.39-2.36-.78-3.64-1.18-3.17,1.46-7,3.13-11.57,5-28,11.57-180.33,77.15-404,77.15H17.76c-7.92,25.34-1.11,139.77,2.43,157.5,3.86,19.28,55.29,10.28,55.29,10.28l1141.71,10.29,3-.22c2.75-29.26,7.55-79,9.56-91.07C1232.62,534.21,1224.91,541,1285.66,502.39Z"/><path class="cls-11" d="M1773.91,404.84c-24.43,15.59-56.25,33.91-111.22,46.45s-324,60.75-377,51.1c-60.75,38.57-53,31.82-55.93,49.18-2,12.06-6.81,61.81-9.56,91.07,155.92-11.5,416-23.47,589.74-109.07C1803.89,495.57,1785.48,426.7,1773.91,404.84Z"/><path class="cls-13" d="M8.62,439.71h7.32c-5.84-34,14.22-156.21,14.22-156.21H20.65c0,.42,0,.64,0,.64S-.38,378,8.62,439.71Z"/></svg>