<?xml version="1.0" encoding="utf-8"?>
<!-- Generator: Adobe Illustrator 23.0.1, SVG Export Plug-In . SVG Version: 6.00 Build 0)  -->
<svg version="1.1" id="Layer_1" xmlns="http://www.w3.org/2000/svg" xmlns:xlink="http://www.w3.org/1999/xlink" x="0px" y="0px"
	 viewBox="0 0 512 512" style="enable-background:new 0 0 512 512;" xml:space="preserve">
<style type="text/css">
	.st0{fill:#99CCCC;}
	.st1{fill:#EFEFEF;}
	.st2{fill:#FFCC33;}
	.st3{fill:#FF3333;}
	.st4{fill:#FF8585;}
</style>
<path class="st0" d="M512,256c0,141.4-114.6,256-256,256S0,397.4,0,256S114.6,0,256,0S512,114.6,512,256z"/>
<path class="st1" d="M339.4,195.3c10.2,37.4-0.5,85.3-35.7,104.4c-28.3,15.4-28.8,49.2-63.1,58.5c-42.4,11.6-71-15.6-103.4-38.2
	c-23.9-16.7-50.9-2.4-64.4-52.1c-14-51.4,27-71.6,42-95.2c17.6-27.7-6.3-64,53.3-80.3c53-14.4,69.9,12.7,101.8,33.4
	C295.6,142.7,323.4,136.8,339.4,195.3z"/>
<path class="st2" d="M282.9,211.3c-7.8-28.5-37.2-45.3-65.6-37.5c-28.5,7.8-45.3,37.2-37.5,65.6c7.8,28.5,37.2,45.3,65.6,37.5
	C273.9,269.2,290.7,239.8,282.9,211.3z"/>
<path class="st3" d="M437,189.4c-21.9-11.9-43.7-23.8-65.6-35.7c-1.4-0.8-3.1,0.1-3.4,1.6C348.7,254.8,246.8,309,228.3,408.9
	c-0.2,1,0.3,2,1.2,2.5c21.9,11.9,43.7,23.8,65.6,35.7c1.4,0.8,3.1-0.1,3.4-1.6c19.3-99.4,121.2-153.7,139.7-253.6
	C438.3,190.9,437.9,189.9,437,189.4z"/>
<path class="st4" d="M415.7,177.9c-8.1-4.4-16.2-8.8-24.4-13.3C373.5,266.6,268.6,321,250.8,423c8.1,4.4,16.2,8.8,24.4,13.3
	C293,334.2,397.8,279.9,415.7,177.9z"/>
<path class="st3" d="M438.2,191.9c0.2-1-0.3-2-1.2-2.5c-7.1-3.9-14.2-7.7-21.3-11.6c-17.9,102-122.7,156.4-140.6,258.4
	c6.6,3.6,13.3,7.2,19.9,10.9c1.4,0.8,3.1-0.1,3.4-1.6C317.8,346,419.6,291.8,438.2,191.9z"/>
</svg>
