<?xml version="1.0" encoding="utf-8"?>
<!-- Generator: Adobe Illustrator 23.0.1, SVG Export Plug-In . SVG Version: 6.00 Build 0)  -->
<svg version="1.1" id="Capa_1" xmlns="http://www.w3.org/2000/svg" xmlns:xlink="http://www.w3.org/1999/xlink" x="0px" y="0px"
	 viewBox="0 0 512 512" style="enable-background:new 0 0 512 512;" xml:space="preserve">
<style type="text/css">
	.st0{fill:#FFE9A6;}
</style>
<path class="st0" d="M511.9,256.9c0,141.4-114.6,256-256,256s-256-114.6-256-256s114.6-256,256-256S511.9,115.6,511.9,256.9z"/>
<g>
	<g>
		<path d="M418.7,209.7l-0.6-1.8c-8.8-28.8-12.5-56.5-9.1-69c1.7-6.5-1-10-2.8-11.4c-7-5.7-22.1,0.3-30.4,4.4
			c-2.2,1.1-3.5,3.5-3.1,5.9c1.7,12.2,4,46.7-6.6,60.1c-2.3,2.9-4.8,7.6-8.2,14.2c-9.1,17.5-24.5,46.8-50.8,66.9
			c-31.4,24-83.9,32.8-101.5,34.2c-24.7,1.9-40.9-0.9-55.1-3.3c-9.3-1.6-18-3.1-28.1-3.3c-25.3-0.4-50.8,2-51.9,2.1
			c-1.4,0.1-2.7,0.8-3.7,1.8c-4,4.4-8.9,15.7,1.1,26.9c20.7,23,61.8,54.5,113.4,68.3c36.1,9.7,77.4,10.7,120.5-5.8
			c66.5-25.5,107.1-61.2,120.7-106C433.5,257.5,423.5,225.2,418.7,209.7z M297.7,389.3C199,427.2,109.7,367,76.4,329.8
			c-3.9-4.4-3.2-8-2.2-10.1c7.2-0.6,28-2.2,48-1.8c9.2,0.2,17.5,1.6,26.3,3.1c14.9,2.6,31.8,5.5,58,3.5c23-1.8,75.1-11.8,107.5-36.5
			c28.4-21.6,44.4-52.3,54-70.7c2.9-5.6,5.4-10.4,7-12.4c13.2-16.7,10.8-52.2,9.5-64.5c5.3-2.2,10.6-3.8,13.5-4
			c-4.5,17.8,1.8,50.3,9.3,74.8l0.6,1.9C417,242.7,444.8,332.8,297.7,389.3z"/>
	</g>
</g>
<g>
	<g>
		<path d="M260.5,339.1c-1.2-2.9-4.5-4.3-7.4-3.1c-53.6,22.1-135-5-135.8-5.3c-2.9-1-6.2,0.6-7.2,3.6c-1,3,0.6,6.2,3.6,7.2
			c0.8,0.3,5.7,1.9,13.4,4c26.4,7.1,85.9,19.4,130.3,1C260.3,345.3,261.7,342,260.5,339.1z"/>
	</g>
</g>
<g>
	<g>
		<path d="M297.7,319.1c-1.6-2.7-5-3.6-7.8-2.1l-17.4,10c-2.7,1.6-3.6,5-2.1,7.8c0.8,1.4,2,2.3,3.4,2.6c1.4,0.4,3,0.2,4.3-0.6
			l17.4-10C298.4,325.3,299.3,321.8,297.7,319.1z"/>
	</g>
</g>
</svg>
