<?xml version="1.0" encoding="utf-8"?>
<!-- Generator: Adobe Illustrator 23.0.1, SVG Export Plug-In . SVG Version: 6.00 Build 0)  -->
<svg version="1.1" id="Capa_1" xmlns="http://www.w3.org/2000/svg" xmlns:xlink="http://www.w3.org/1999/xlink" x="0px" y="0px"
	 viewBox="0 0 512 512" style="enable-background:new 0 0 512 512;" xml:space="preserve">
<style type="text/css">
	.st0{fill:#D8D8DB;}
	.st1{fill:#5C5C85;}
	.st2{fill:#333366;}
</style>
<path class="st0" d="M512,256c0,2.9-0.1,5.8-0.1,8.6c-0.9,27.3-6.1,53.4-14.9,77.9c-4.2,11.7-9.2,22.9-14.9,33.7
	c-4.1,7.7-8.5,15.1-13.3,22.2c-18.6,27.8-42.6,51.7-70.4,70.4c-25.7,17.2-54.7,29.9-85.8,36.9c-4.3,1-8.7,1.8-13.1,2.6
	c-8.5,1.4-17.1,2.5-25.8,3.1c0,0,0,0,0,0c-5.8,0.4-11.6,0.6-17.5,0.6c-14.8,0-29.2-1.3-43.3-3.7C91.9,487.8,0,382.6,0,256
	C0,114.6,114.6,0,256,0c132.1,0,240.8,100.1,254.5,228.5v0c0.2,2.1,0.4,4.1,0.6,6.2C511.7,241.8,512,248.8,512,256z"/>
<g>
	<circle class="st1" cx="246.3" cy="246" r="154.6"/>
</g>
<polygon class="st2" points="197.6,275.3 208.8,219.6 159.1,192.2 212.9,174 211.8,117.2 254.5,154.7 303.1,125.4 291.9,181.1 
	341.6,208.6 287.8,226.7 288.9,283.5 246.3,246 "/>
</svg>
