<?xml version="1.0" encoding="utf-8"?>
<!-- Generator: Adobe Illustrator 23.0.1, SVG Export Plug-In . SVG Version: 6.00 Build 0)  -->
<svg version="1.1" id="Layer_1" xmlns="http://www.w3.org/2000/svg" xmlns:xlink="http://www.w3.org/1999/xlink" x="0px" y="0px"
	 viewBox="0 0 512 512" style="enable-background:new 0 0 512 512;" xml:space="preserve">
<g id="Noodles-chinese-food-3">
	<path d="M204.2,219.8c-1.3-3.8-1.5-7.9-0.7-11.8c-3.9,0.9-8,0.6-11.8-0.7c-3.6-1.8-6.7-4.6-8.8-8c-2.1,3.4-5.2,6.2-8.8,8
		c-3.8,1.3-7.9,1.5-11.8,0.7c0.9,3.9,0.6,8-0.7,11.8c-1.8,3.6-4.5,6.6-8,8.8c7.4,4,11,12.6,8.7,20.6c1.8-0.3,3.6-0.4,5.4-0.5
		c2.2,0,4.4,0.4,6.4,1.2c3.6,1.8,6.6,4.6,8.8,8c2.1-3.4,5.2-6.2,8.8-8c3.8-1.3,7.9-1.5,11.8-0.7c-2.3-8,1.3-16.6,8.6-20.6
		C208.7,226.4,205.9,223.4,204.2,219.8z"/>
	<path d="M235.9,305.1c-5.2-0.1-10.2,1.4-14.4,4.4c-14.5,9.4-33.3,9.4-47.8,0c-8.8-5.9-20.3-5.9-29.1,0c-14.5,9.4-33.2,9.4-47.8,0
		c-1.7-1.1-3.5-2-5.3-2.9v63.3c5.3,1.1,10.3,3.2,14.8,6.2c8.8,5.9,20.2,5.9,29,0c14.6-9.4,33.3-9.4,47.9,0c8.8,5.9,20.2,5.9,29,0
		c11.9-7.7,26.8-9.2,40-4c-5.5-19.6-3.5-40.5,5.5-58.8c-2.5-1.1-4.9-2.4-7.2-3.8C246.2,306.5,241.1,305,235.9,305.1z M128,356.6
		h-18.3v-27.4H128V356.6z M210.3,356.6H192v-27.4h18.3V356.6z"/>
	<path d="M256,0C114.6,0,0,114.6,0,256s114.6,256,256,256s256-114.6,256-256C511.8,114.7,397.3,0.2,256,0z M203.9,38.6
		c3-3.4,5.6-7.1,7.9-11c2.4-4.4,8-6,12.4-3.6c4.4,2.4,6,8,3.6,12.4c-2.8,4.9-6.1,9.5-9.8,13.8c-15.9,15.6-16.2,41.1-0.7,57.1
		c0.6,0.6,1.1,1.1,1.7,1.7c11.1,10.7,17.5,25.3,17.8,40.7c0.4,9.4-1.8,18.7-6.1,27.1c-2.4,4.5-7.9,6.2-12.4,3.8
		c-4.5-2.4-6.2-7.9-3.8-12.4l0,0c2.9-5.6,4.3-11.9,4-18.2c-0.2-11.1-5-21.6-13.2-29C182.3,98.6,181.6,61.8,203.9,38.6z M221.7,247.2
		c1.7,5.8,0.4,12.1-3.4,16.8c-4.7,3.8-11,5.1-16.8,3.4c-0.8-0.1-1.8-0.3-2.7-0.4c-0.5,0.6-1.1,1.4-1.5,2c-2.9,5.4-8.4,9-14.5,9.6
		c-6.1-0.6-11.6-4.2-14.5-9.6c-0.5-0.6-1.1-1.5-1.6-2.1c-0.9,0.2-1.7,0.4-2.6,0.5c-5.8,1.7-12.1,0.4-16.7-3.4
		c-3.8-4.7-5.1-11-3.4-16.8c0.1-0.8,0.3-1.8,0.4-2.7c-0.6-0.5-1.4-1.1-2-1.5c-5.4-2.9-9-8.4-9.7-14.5c0.6-6.1,4.2-11.6,9.7-14.5
		c0.6-0.5,1.5-1.1,2.1-1.6c-0.2-0.5-0.3-1.7-0.5-2.6c-1.7-5.8-0.4-12.1,3.4-16.8c4.7-3.8,11-5.1,16.8-3.4c0.8,0.1,1.8,0.3,2.7,0.4
		c0.5-0.6,1.1-1.4,1.5-2c2.9-5.4,8.4-9,14.5-9.6c6.1,0.6,11.6,4.2,14.5,9.6c0.5,0.6,1.1,1.5,1.6,2.1c0.9-0.2,1.7-0.4,2.6-0.5
		c5.8-1.7,12.1-0.4,16.7,3.4c3.8,4.7,5.1,11,3.4,16.8c-0.1,0.8-0.3,1.8-0.4,2.7c0.6,0.5,1.4,1.1,2,1.5c5.4,2.9,9,8.4,9.7,14.5
		c-0.6,6.1-4.2,11.6-9.7,14.5c-0.6,0.5-1.5,1.1-2.1,1.6C221.4,245.2,221.5,246.4,221.7,247.2L221.7,247.2z M158,47.8
		c1.2-1.5,2.5-3,3.7-4.6c3-4,8.8-4.8,12.8-1.8c4,3,4.8,8.8,1.8,12.8l0,0c-1.3,1.7-2.7,3.4-4,5.1c-15.9,15.7-16.1,41.3-0.5,57.2
		c0.5,0.5,1.1,1.1,1.6,1.6c11.1,10.7,17.5,25.3,17.8,40.7c0.1,2.5,0,5.1-0.3,7.6c-0.5,4.7-4.4,8.2-9.1,8.2c-0.3,0-0.6,0-0.9,0
		c-5-0.5-8.7-5-8.2-10c0,0,0,0,0-0.1c0.2-1.8,0.2-3.6,0.2-5.4c-0.2-11.1-5-21.6-13.2-29C136.6,107.8,135.9,71.1,158,47.8z
		 M187.3,473.1c-3,4.1-8.8,4.9-12.8,1.9c-4.1-3-4.9-8.8-1.9-12.8l0,0c4-6.2,5.9-13.5,5.5-20.9c-0.2-11.2-4.9-21.7-13.2-29.2
		c-1.4-1.6-2.9-3.3-4.3-5c-3.2-3.9-2.6-9.7,1.3-12.9c3.9-3.2,9.7-2.6,12.9,1.3c1.3,1.6,2.6,3.1,3.9,4.6
		c11.2,10.7,17.6,25.5,17.7,40.9C196.9,452.4,193.7,463.7,187.3,473.1L187.3,473.1z M226,473.3c-2.5,3-4.9,6.2-7,9.5
		c-2.5,4.4-8.1,5.9-12.5,3.3c-4.4-2.5-5.9-8.1-3.3-12.5c0.1-0.1,0.1-0.2,0.2-0.3c2.5-4,5.4-7.9,8.4-11.5c8-7.8,12.4-18.5,12.1-29.7
		c0-5.9-1.3-11.7-4-16.9c-2.3-4.5-0.5-10,4-12.3c4.4-2.2,9.7-0.6,12.1,3.7c4,7.8,6.2,16.4,6.2,25.1
		C242.5,447.3,236.7,462.2,226,473.3L226,473.3z M451.5,403.2c-3.8,3.3-9.6,2.9-12.9-0.9c0,0,0,0,0,0
		c-10.8-10.6-17.1-25.1-17.3-40.2c0-1.6,0.1-3.1,0.2-4.6c-4.6,10.7-10.1,21.1-16.5,30.9c0.8,0.9,1.5,1.8,2.3,2.7
		c9.9,9.6,16.1,22.5,17.4,36.2c0.4,5-3.3,9.4-8.4,9.9c-0.3,0-0.5,0-0.8,0c-4.8,0-8.8-3.6-9.1-8.4c-1-9.8-5.5-18.8-12.7-25.5
		c-1.4,1.6-2.9,3.3-4.3,4.7c-3.7,3.7-7.8,7.1-12.2,10c1.2,4.5,1.9,9.1,2,13.7c0.5,14.2-4.5,28-13.8,38.6c-3.2,3.9-8.9,4.5-12.9,1.3
		c-3.8-3.1-4.5-8.7-1.5-12.6c6.8-7.3,10.3-17,9.9-26.9c-0.1-1.8-0.3-3.6-0.6-5.4c-8.6,3.2-17.7,5-26.9,5.3
		c0.3,15.3-5.5,30.2-16.2,41.2c-3.4,3.8-6.3,8.1-8.7,12.6c-2.5,4.4-8.1,6-12.5,3.5c-4.4-2.5-6-8.1-3.5-12.5
		c2.9-5.4,6.4-10.4,10.4-15.1c8-7.8,12.3-18.5,12.1-29.6c0-0.6-0.1-1.1-0.2-1.6c-10.3-2-20.1-6-28.9-11.7c1,4.3,1.6,8.7,1.6,13.1
		c0.4,15.4-5.5,30.4-16.2,41.5c-3.9,4.3-7.1,9.2-9.6,14.5c-1.8,4.7-7.2,7-11.9,5.2c-4.7-1.8-7-7.2-5.2-11.9c0-0.1,0.1-0.2,0.1-0.3
		c3.1-6.9,7.2-13.3,12.2-19c16-15.6,16.2-41.3,0.6-57.2c-0.5-0.6-1.1-1.1-1.7-1.6c-3.8-4.2-7.3-8.7-10.3-13.5
		c-3.2-1.5-6.6-2.2-10.1-2.1c-5.2-0.1-10.2,1.4-14.4,4.4c-14.5,9.4-33.3,9.4-47.8,0c-8.8-5.9-20.3-5.9-29.1,0
		c-4.2,2.7-8.8,4.7-13.6,5.9c0.7,0.8,1.3,1.6,2,2.4c11.1,10.7,17.5,25.4,17.7,40.9c0,2.9-0.1,5.6-0.3,7.9c-0.4,4.7-4.4,8.4-9.1,8.4
		c-0.3,0-0.5,0-0.8,0c-5-0.4-8.8-4.9-8.3-9.9c0.2-1.8,0.2-4,0.2-6.2c-0.2-11.1-5-21.6-13.2-29c-1.4-1.7-2.9-3.3-4.3-5.1
		c-1.9-2.5-2.5-5.7-1.4-8.7c-6-1-11.7-3.2-16.7-6.5c-4.2-3-9.3-4.6-14.4-4.5c-5,0-9.1-4.1-9.1-9.1v-7.9c-1.5,3.2-4.7,5.2-8.2,5.2
		h-0.3c-4.9-0.1-8.8-4.2-8.8-9.1v-0.1c0.9-13.5,6.6-26.3,15.9-36.2l1.5-1.8V296c0-4.8,3.7-8.7,8.5-9C79,281,75.3,275.6,70.8,271
		c-23-22.3-23.7-59.1-1.5-82.2c8-7.8,12.4-18.5,12.2-29.7c-0.1-10.1-4.2-19.8-11.4-26.9c-3.3-3.8-2.9-9.6,1-12.9
		c3.8-3.3,9.6-2.9,12.9,1c10,10.3,15.7,24.1,15.8,38.5c0.4,15.5-5.5,30.4-16.2,41.5c-15.9,15.6-16.2,41.1-0.6,57.1
		c0.5,0.6,1.1,1.1,1.7,1.6c8.8,8.7,14.8,20,16.9,32.2c1.7,0.9,3.2,1.8,4.6,2.6c4.2,3,9.3,4.6,14.5,4.5c3,0.1,6-0.4,8.8-1.5
		c-1.1-9.9-5.7-19-13-25.8c-23-22.4-23.7-59.1-1.5-82.3c15.9-15.5,16.3-41,0.8-56.9c-0.6-0.6-1.2-1.2-1.9-1.8
		c-10.1-9.8-16.4-23-17.5-37c-0.3-5,3.6-9.3,8.7-9.6c4.9-0.3,9.1,3.4,9.6,8.2c0.9,10.1,5.6,19.5,13.1,26.3
		c23.1,22.3,23.7,59.1,1.5,82.2c-15.9,15.6-16.2,41.2-0.6,57.1c0.5,0.6,1.1,1.1,1.7,1.6c8.1,8.1,13.8,18.3,16.4,29.5
		c4-1.2,8.2-1.7,12.5-1.7c8.5-0.2,16.8,2.3,23.9,7.1c8.8,5.9,20.2,5.9,29,0c14.5-9.4,33.2-9.4,47.7,0c2.1,1.4,4.4,2.5,6.8,3.3
		c0.2-2,0.4-4.1,0.3-6.1c-0.2-11.1-5-21.7-13.2-29.2c-23-22.4-23.7-59.1-1.5-82.3c15.9-15.5,16.3-41,0.7-57
		c-0.6-0.6-1.2-1.2-1.8-1.7c-23.1-22.3-23.8-59.1-1.6-82.3c3.9-4.4,7.2-9.3,9.6-14.6c1.8-4.7,7.1-7,11.8-5.2c4.7,1.8,7,7.1,5.2,11.8
		c0,0.1-0.1,0.2-0.1,0.3c-3.1,7-7.3,13.5-12.3,19.2c-15.9,15.6-16.2,41.1-0.6,57.1c0.6,0.6,1.1,1.1,1.7,1.7
		c23.1,22.3,23.8,59.1,1.5,82.3c-15.9,15.6-16.2,41.2-0.6,57.1c0.5,0.6,1.1,1.1,1.7,1.6c8.8,8.7,14.7,19.9,16.9,32.1
		c6.6-5,13.5-9.4,20.6-13.4c-1.7-2.3-3.7-4.5-5.6-6.7c-23.1-22.3-23.7-59.1-1.6-82.3c15.9-15.5,16.3-41,0.7-57
		c-0.6-0.6-1.2-1.2-1.8-1.7c-23.1-22.3-23.8-59.1-1.6-82.3c3-3.4,5.6-7.1,7.9-11c2.4-4.4,8-6,12.4-3.6c4.4,2.4,6,8,3.6,12.4
		c-2.8,4.9-6.1,9.5-9.7,13.7c-15.9,15.6-16.2,41.2-0.6,57.1c0.6,0.6,1.1,1.1,1.7,1.6c23.1,22.3,23.8,59.1,1.5,82.3
		c-15.9,15.6-16.2,41.2-0.6,57.1c0.6,0.6,1.1,1.1,1.7,1.6c3,3.3,5.8,6.9,8.4,10.6c5.5-2.5,11.2-4.7,17-6.6
		c-7.3-9.4-11.2-20.9-11.1-32.8c-0.2-5.8,0.6-11.6,2.1-17.2c2.9-9,7.7-17.3,14.1-24.2c15.9-15.5,16.2-41.1,0.7-57
		c-0.6-0.6-1.2-1.2-1.8-1.7c-23.1-22.4-23.8-59.3-1.4-82.5l0.8-0.9c3.1-4,8.8-4.7,12.8-1.6c4,3.1,4.7,8.8,1.6,12.8
		c-0.1,0.1-0.2,0.2-0.3,0.3l-0.8,1c-16,15.5-16.4,41.1-0.8,57.1c0.6,0.6,1.2,1.2,1.8,1.8c23.1,22.3,23.8,59.1,1.5,82.3
		c-4.8,5.1-8.5,11.2-10.7,17.8c-1,3.8-1.5,7.8-1.4,11.8c0.1,10.5,4.4,20.5,12,27.7c7-1.5,14.1-2.4,21.3-2.7
		c-3.9-7.6-5.9-16.1-5.9-24.7c-0.4-15.4,5.5-30.3,16.2-41.4c15.9-15.5,16.3-41,0.7-57c-0.6-0.6-1.2-1.2-1.8-1.7
		c-11.2-10.7-17.6-25.4-17.8-40.9c-0.3-8.1,1.2-16.1,4.5-23.6c2.1-4.6,7.5-6.7,12.1-4.6c4.6,2.1,6.7,7.5,4.6,12.1
		c-2.1,4.9-3.1,10.3-2.9,15.7c0.2,11.2,5,21.8,13.2,29.3c23.1,22.3,23.8,59.1,1.5,82.3c-8,7.7-12.3,18.4-12.1,29.5
		c0.1,10.7,4.6,20.8,12.3,28.1c6.8,2,13,5.6,18.1,10.5c15.7,15.7,16.3,42.5,9.5,69.6c2-3,4.2-5.7,6.3-8.2
		c16-15.6,16.2-41.3,0.6-57.2c-0.5-0.5-1.1-1.1-1.7-1.6c-23-22.4-23.7-59.1-1.5-82.3c15.9-15.5,16.3-41,0.8-56.9
		c-0.6-0.6-1.2-1.2-1.9-1.8c-6.2-6.4-11.1-13.9-14.4-22.1c-1.7-4.8,0.8-10,5.6-11.7c4.7-1.6,9.8,0.7,11.6,5.4
		c2.6,6.1,6.3,11.7,11,16.3c23.1,22.3,23.8,59.1,1.6,82.3c-15.9,15.6-16.2,41.2-0.6,57.1c0.5,0.6,1.1,1.1,1.7,1.6
		c23,22.4,23.7,59.2,1.5,82.3c-8,7.8-12.3,18.4-12.1,29.5c0.2,10.9,4.8,21.2,12.7,28.5C455.7,394.2,455.3,399.9,451.5,403.2z"/>
	<path d="M339.1,316.9c-0.6,0-1.2,0-1.8,0.1c-8.4,0.6-16.3,4.3-22.2,10.3c-12.4,9-15.1,26.4-6,38.8c9,12.4,26.4,15.1,38.8,6
		c2.3-1.7,4.3-3.7,6-6c6.1-5.9,9.7-13.8,10.3-22.2c0.6-7.3-2-14.5-7.1-19.8C352.3,319.3,345.8,316.7,339.1,316.9z"/>
	<path d="M382.8,264c-35.8,2.6-69.9,16.8-96.8,40.7c-25,25-25,65.5,0,90.5c25,25,65.5,25,90.5,0l0,0
		c27.8-27.8,54.8-100.4,32.3-122.8C401.6,266.2,392.2,263.2,382.8,264z M366.8,379c-9.7,9.9-23,15.6-36.9,15.7
		c-11.6,0.1-22.7-4.4-30.9-12.5c-17.8-19.7-16.3-50,3.2-67.9c9.1-9.2,21.2-14.8,34.1-15.7c23.6-1.9,44.3,15.7,46.2,39.3
		c0.2,2.3,0.2,4.6,0,6.9C381.7,357.8,376.1,369.9,366.8,379z"/>
</g>
</svg>
