<?xml version="1.0" encoding="utf-8"?>
<!-- Generator: Adobe Illustrator 23.0.1, SVG Export Plug-In . SVG Version: 6.00 Build 0)  -->
<svg version="1.1" id="Layer_1" xmlns="http://www.w3.org/2000/svg" xmlns:xlink="http://www.w3.org/1999/xlink" x="0px" y="0px"
	 viewBox="0 0 511 511" style="enable-background:new 0 0 511 511;" xml:space="preserve">
<style type="text/css">
	.st0{fill:#D8D8DB;}
	.st1{fill:#FFC885;stroke:#000000;stroke-width:5;stroke-miterlimit:10;}
	.st2{fill:#FF2E2E;stroke:#000000;stroke-width:5;stroke-miterlimit:10;}
	.st3{fill:#76E5FF;stroke:#000000;stroke-width:5;stroke-miterlimit:10;}
	.st4{fill:#EFEFEF;stroke:#000000;stroke-width:5;stroke-miterlimit:10;}
</style>
<path class="st0" d="M511,256c0,59-20,113.4-53.6,156.7C410.6,473.1,337.3,512,255,512S99.4,473.1,52.6,412.7C19,369.4-1,315-1,256
	C-1,114.6,113.6,0,255,0S511,114.6,511,256z"/>
<path class="st1" d="M173.5,312.3l25,25l-75.1,75.2c-6.9,6.9-18.1,6.9-25,0s-6.9-18.1,0-25L173.5,312.3z"/>
<path class="st2" d="M406.6,104.7c-17.2-17.7-45.5-17.8-62.9-0.4l-31,31c-3.5,3.5-7.5,6.5-11.8,8.8l65.6,65.7
	c2.4-4.5,5.4-8.6,9-12.2l30.2-30.2C422.9,150.2,423.6,122.2,406.6,104.7z"/>
<path class="st3" d="M216,204.5l-62.6,62.6c-6.9,6.9-6.9,18.1,0,25.1l65.1,65.1c6.9,6.9,18.1,6.9,25,0l62.6-62.6L216,204.5z"/>
<path class="st4" d="M285.5,149.9c-12,2.5-23.3,8.4-32.6,17.6l-37,37l90.1,90.2l37.5-37.6c9.1-9.1,14.9-20.3,17.3-32
	c1.1-5.4,3-10.5,5.5-15.3l-65.6-65.7C296.1,146.8,290.9,148.8,285.5,149.9z"/>
<g>
	<path d="M189.7,283.4c-1.3,0-2.5-0.5-3.5-1.5c-1.9-1.9-1.9-5.1,0-7l87.6-87.7c1.9-1.9,5.1-1.9,7,0c1.9,1.9,1.9,5.1,0,7l-87.6,87.7
		C192.3,282.9,191,283.4,189.7,283.4z"/>
	<path d="M211,304.7c-1.3,0-2.5-0.5-3.5-1.5c-1.9-1.9-1.9-5.1,0-7l87.6-87.7c1.9-1.9,5.1-1.9,7,0c1.9,1.9,1.9,5.1,0,7l-87.6,87.7
		C213.5,304.2,212.3,304.7,211,304.7z"/>
	<path d="M232.3,326c-1.3,0-2.5-0.5-3.5-1.5c-1.9-1.9-1.9-5.1,0-7l87.6-87.7c1.9-1.9,5.1-1.9,7,0c1.9,1.9,1.9,5.1,0,7l-87.6,87.7
		C234.8,325.5,233.5,326,232.3,326z"/>
</g>
</svg>
