<?xml version="1.0" encoding="utf-8"?>
<!-- Generator: Adobe Illustrator 23.0.1, SVG Export Plug-In . SVG Version: 6.00 Build 0)  -->
<svg version="1.1" id="Capa_1" xmlns="http://www.w3.org/2000/svg" xmlns:xlink="http://www.w3.org/1999/xlink" x="0px" y="0px"
	 viewBox="0 0 512 512" style="enable-background:new 0 0 512 512;" xml:space="preserve">
<style type="text/css">
	.st0{fill:#333366;}
	.st1{fill:#F74C83;}
	.st2{fill:#BC7256;}
	.st3{fill:#FFD255;}
</style>
<path class="st0" d="M512,256c0,59-20,113.4-53.6,156.7C411.6,473.1,338.3,512,256,512s-155.6-38.9-202.4-99.3C20,369.4,0,315,0,256
	C0,114.6,114.6,0,256,0S512,114.6,512,256z"/>
<path class="st1" d="M364.3,429.7L364.3,429.7c-5.9,2.7-12.9,0-15.6-5.9l-15.5-34.3c-2.7-5.9,0-12.9,5.9-15.6l0,0
	c5.9-2.7,12.9,0,15.6,5.9l15.5,34.3C372.9,420,370.2,427,364.3,429.7z"/>
<g>
	<path class="st2" d="M198.2,462.5L198.2,462.5c-3.7-5.4-2.3-12.7,3.1-16.3l31-21.2c5.4-3.7,12.7-2.3,16.3,3.1l0,0
		c3.7,5.4,2.3,12.7-3.1,16.3l-31,21.2C209.2,469.2,201.9,467.8,198.2,462.5z"/>
	<path class="st2" d="M331,145.2L331,145.2c-3.7-5.4-2.3-12.7,3.1-16.3l31-21.2c5.4-3.7,12.7-2.3,16.3,3.1l0,0
		c3.7,5.4,2.3,12.7-3.1,16.3l-31,21.2C342,152,334.7,150.6,331,145.2z"/>
	<path class="st2" d="M127.2,126.7L127.2,126.7c-6.1,2.2-12.8-1-15-7.1L99.4,84.2c-2.2-6.1,1-12.8,7.1-15l0,0c6.1-2.2,12.8,1,15,7.1
		l12.8,35.4C136.5,117.7,133.3,124.5,127.2,126.7z"/>
</g>
<path class="st3" d="M268.5,483L268.5,483c-6.3-1.7-10-8.2-8.3-14.4l9.9-36.3c1.7-6.3,8.2-10,14.4-8.3l0,0c6.3,1.7,10,8.2,8.3,14.4
	l-9.9,36.3C281.2,481,274.7,484.7,268.5,483z"/>
<g>
	<path class="st1" d="M213.6,116.3L213.6,116.3c-6.3-1.7-10-8.2-8.3-14.4l9.9-36.3c1.7-6.3,8.2-10,14.4-8.3l0,0
		c6.3,1.7,10,8.2,8.3,14.4l-9.9,36.3C226.3,114.3,219.9,118,213.6,116.3z"/>
	<path class="st1" d="M188.7,360.3L188.7,360.3c-6.5,0-11.8-5.3-11.8-11.8v-37.6c0-6.5,5.3-11.8,11.8-11.8l0,0
		c6.5,0,11.8,5.3,11.8,11.8v37.6C200.5,355,195.2,360.3,188.7,360.3z"/>
</g>
<path class="st3" d="M451.8,150L451.8,150c-6.3,1.6-12.7-2.2-14.3-8.4l-9.4-36.4c-1.6-6.3,2.2-12.7,8.4-14.3l0,0
	c6.3-1.6,12.7,2.2,14.3,8.4l9.4,36.4C461.9,141.9,458.1,148.3,451.8,150z"/>
<path class="st1" d="M387.8,247.4L387.8,247.4c-6.5,0-11.8-5.3-11.8-11.8v-37.6c0-6.5,5.3-11.8,11.8-11.8l0,0
	c6.5,0,11.8,5.3,11.8,11.8v37.6C399.5,242.2,394.3,247.4,387.8,247.4z"/>
<g>
	<path class="st3" d="M295.1,260.6L295.1,260.6c-6.3,1.6-12.7-2.2-14.3-8.4l-9.4-36.4c-1.6-6.3,2.2-12.7,8.4-14.3l0,0
		c6.3-1.6,12.7,2.2,14.3,8.4l9.4,36.4C305.2,252.5,301.4,259,295.1,260.6z"/>
	<path class="st3" d="M107.6,235.5L107.6,235.5c-5.6-3.2-7.5-10.4-4.3-16.1l18.8-32.6c3.2-5.6,10.4-7.5,16.1-4.3l0,0
		c5.6,3.2,7.5,10.4,4.3,16.1l-18.8,32.6C120.4,236.8,113.2,238.8,107.6,235.5z"/>
	<path class="st3" d="M114.9,399.1L114.9,399.1c4.6-4.6,12-4.6,16.6,0l26.6,26.6c4.6,4.6,4.6,12,0,16.6l0,0c-4.6,4.6-12,4.6-16.6,0
		l-26.6-26.6C110.3,411.1,110.3,403.7,114.9,399.1z"/>
</g>
</svg>
